<svg width="17" height="11" viewBox="0 0 17 11" fill="none" xmlns="http://www.w3.org/2000/svg">
<path fill-rule="evenodd" clip-rule="evenodd" d="M14.6309 6.81964C15.1948 7.37557 15.79 7.89862 16.2958 8.51061C16.5192 8.78257 16.7307 9.06322 16.8925 9.37883C17.1218 9.82749 16.9142 10.3212 16.5157 10.348L14.0391 10.3469C13.4004 10.4004 12.8908 10.1407 12.4624 9.69975C12.1195 9.34708 11.8019 8.97174 11.4722 8.60717C11.337 8.45816 11.1956 8.31795 11.0265 8.20713C10.6885 7.98553 10.395 8.05338 10.2018 8.40943C10.005 8.77158 9.96039 9.17258 9.94106 9.57618C9.91453 10.165 9.73826 10.3199 9.15245 10.3468C7.90052 10.4064 6.71237 10.2152 5.60862 9.57747C4.63552 9.01528 3.88092 8.22162 3.22412 7.32312C1.94532 5.57354 0.966018 3.65104 0.0858558 1.67469C-0.112262 1.22941 0.032626 0.990388 0.519178 0.981928C1.32712 0.96608 2.13495 0.967208 2.94384 0.9808C3.27221 0.985651 3.4896 1.17583 3.61639 1.48907C4.05351 2.57437 4.58838 3.60694 5.25975 4.56404C5.43854 4.81886 5.62085 5.07367 5.88047 5.25302C6.16767 5.45161 6.38635 5.38579 6.52146 5.06273C6.6072 4.85789 6.64473 4.63725 6.66406 4.41786C6.72807 3.66306 6.7365 2.90956 6.62423 2.15741C6.55531 1.688 6.29346 1.38411 5.82958 1.29528C5.59287 1.25 5.62812 1.16105 5.74273 1.02462C5.9418 0.789323 6.12902 0.642853 6.50225 0.642853H9.30119C9.74183 0.730667 9.83969 0.930548 9.90001 1.37825L9.90241 4.51763C9.89761 4.69094 9.98815 5.20525 10.2973 5.31997C10.5447 5.40164 10.7078 5.20176 10.8563 5.04333C11.5265 4.32513 12.0047 3.47638 12.432 2.5975C12.6217 2.21105 12.7847 1.80971 12.9427 1.4087C13.0598 1.11114 13.2435 0.964726 13.5754 0.971212L16.2693 0.973637C16.3491 0.973637 16.43 0.974822 16.5073 0.988188C16.9612 1.0663 17.0856 1.26348 16.9454 1.71106C16.7245 2.4133 16.2947 2.9985 15.8745 3.58641C15.4252 4.21408 14.9448 4.82027 14.4993 5.45166C14.09 6.02824 14.1225 6.31887 14.6309 6.81964Z" fill="white" fill-opacity="0.8"/>
</svg>
