<svg width="17" height="11" viewBox="0 0 17 11" fill="none" xmlns="http://www.w3.org/2000/svg">
<path fill-rule="evenodd" clip-rule="evenodd" d="M14.6309 6.81985C15.1948 7.37578 15.79 7.89883 16.2958 8.51083C16.5192 8.78279 16.7307 9.06343 16.8925 9.37905C17.1218 9.82771 16.9142 10.3214 16.5157 10.3482L14.0391 10.3471C13.4004 10.4006 12.8908 10.141 12.4624 9.69996C12.1195 9.34729 11.8019 8.97195 11.4722 8.60739C11.337 8.45838 11.1956 8.31817 11.0265 8.20734C10.6885 7.98575 10.395 8.0536 10.2018 8.40965C10.005 8.77179 9.96039 9.17279 9.94106 9.57639C9.91453 10.1653 9.73826 10.3201 9.15245 10.347C7.90052 10.4066 6.71237 10.2154 5.60862 9.57769C4.63552 9.01549 3.88092 8.22184 3.22412 7.32333C1.94532 5.57376 0.966018 3.65126 0.0858558 1.6749C-0.112262 1.22962 0.032626 0.990602 0.519178 0.982142C1.32712 0.966293 2.13495 0.967421 2.94384 0.981014C3.27221 0.985864 3.4896 1.17604 3.61639 1.48929C4.05351 2.57459 4.58838 3.60715 5.25975 4.56426C5.43854 4.81907 5.62085 5.07389 5.88047 5.25324C6.16767 5.45182 6.38635 5.386 6.52146 5.06294C6.6072 4.8581 6.64473 4.63746 6.66406 4.41807C6.72807 3.66327 6.7365 2.90977 6.62423 2.15762C6.55531 1.68821 6.29346 1.38433 5.82958 1.2955C5.59287 1.25021 5.62812 1.16127 5.74273 1.02484C5.9418 0.789537 6.12902 0.643066 6.50225 0.643066H9.30119C9.74183 0.730881 9.83969 0.930761 9.90001 1.37846L9.90241 4.51784C9.89761 4.69116 9.98815 5.20547 10.2973 5.32018C10.5447 5.40185 10.7078 5.20197 10.8563 5.04354C11.5265 4.32535 12.0047 3.47659 12.432 2.59771C12.6217 2.21126 12.7847 1.80992 12.9427 1.40892C13.0598 1.11135 13.2435 0.96494 13.5754 0.971426L16.2693 0.973851C16.3491 0.973851 16.43 0.975035 16.5073 0.988402C16.9612 1.06652 17.0856 1.26369 16.9454 1.71128C16.7245 2.41351 16.2947 2.99871 15.8745 3.58662C15.4252 4.2143 14.9448 4.82048 14.4993 5.45188C14.09 6.02845 14.1225 6.31908 14.6309 6.81985Z" fill="#CA4949"/>
</svg>
