<svg width="17" height="16" viewBox="0 0 17 16" fill="none" xmlns="http://www.w3.org/2000/svg">
<path d="M13.8989 10.169C12.9726 10.169 12.1555 10.6103 11.6217 11.2861L6.67045 8.75407C6.73527 8.51231 6.78186 8.26252 6.78186 7.99963C6.78186 7.71344 6.72653 7.444 6.64932 7.18182L11.5787 4.66143C12.1096 5.36782 12.9478 5.82953 13.8996 5.82953C15.5119 5.82953 16.8162 4.52527 16.8162 2.91441C16.8162 1.305 15.5119 0 13.8996 0C12.291 0 10.9853 1.305 10.9853 2.91438C10.9853 3.17801 11.0319 3.42851 11.0974 3.67101L6.14687 6.20308C5.61234 5.52657 4.7938 5.0838 3.86604 5.0838C2.25517 5.0838 0.95166 6.38951 0.95166 7.99963C0.95166 9.60975 2.25521 10.9147 3.86604 10.9147C4.81929 10.9147 5.65677 10.4516 6.18981 9.74449L11.117 12.2649C11.0398 12.5263 10.9838 12.798 10.9838 13.0849C10.9838 14.695 12.2895 16 13.8982 16C15.5105 16 16.8147 14.695 16.8147 13.0849C16.8155 11.4733 15.5112 10.169 13.8989 10.169Z" fill="#CA4949"/>
</svg>
