<svg width="81" height="29" viewBox="0 0 81 29" fill="none" xmlns="http://www.w3.org/2000/svg">
<path d="M80.9696 15.7445C80.8624 15.1256 80.3408 14.7543 79.5866 14.746C79.3539 14.7427 79.1229 14.7658 78.8968 14.7411C78.4512 14.6948 78.334 14.8434 78.3373 15.1966C78.3587 16.9295 78.3521 18.6607 78.3455 20.3887C78.3406 21.2947 77.456 22.2256 76.3931 22.4616C73.0923 23.1861 69.7949 23.9222 66.4908 24.6401C66.1195 24.721 65.7283 24.7622 65.3504 24.7589C65.1853 24.7589 64.9576 24.6335 64.8866 24.5114C64.8404 24.4305 64.9856 24.2341 65.0995 24.1334C65.2497 24.0113 65.4411 23.9139 65.6375 23.8462C66.2432 23.63 66.8588 23.4337 67.4711 23.2307C69.9219 22.4154 72.3777 21.61 74.8253 20.7897C75.9294 20.4167 76.5252 19.6807 76.5433 18.7515C76.5994 15.7412 76.5714 12.7309 76.5582 9.71728C76.5582 9.24031 76.3106 8.84257 75.7429 8.63627C75.0893 8.40191 74.515 8.58841 73.9472 8.85907C70.4781 10.5144 67.0107 12.1665 63.5382 13.8185C62.5167 14.3054 61.9473 15.0101 61.9522 16.0135C61.9638 18.8604 61.9555 21.7024 61.9588 24.546C61.9588 24.6879 61.9737 24.8332 62.0182 24.9685C62.3599 25.9356 63.2461 26.4902 64.4707 26.4902C66.9116 26.4968 69.3608 26.4935 71.8034 26.4935C74.2377 26.4935 76.6638 26.4968 79.0981 26.4902C79.6262 26.4902 80.1131 26.3812 80.5092 26.0545C81.0225 25.6419 80.9961 25.117 80.9961 24.5939C81.001 21.8212 81.001 19.0519 80.9977 16.2743C81.0027 16.101 80.9994 15.9194 80.9696 15.7445ZM70.8198 14.8549C71.0657 14.2162 71.602 13.8168 72.4206 13.7145C72.962 13.6452 73.434 13.9802 73.5115 14.4687C73.6287 15.2213 72.688 16.096 71.7588 16.0927C70.9831 16.0927 70.5507 15.5497 70.8198 14.8549Z" fill="white"/>
<path d="M12.5628 3.85017C12.5628 4.72818 12.5628 5.58803 12.5628 6.45613C11.8977 6.45613 11.2788 6.45613 10.612 6.45613C10.612 5.56987 10.612 4.71002 10.612 3.84192C10.2506 3.84192 9.93701 3.84192 9.59208 3.84192C9.59208 6.01548 9.59208 8.15108 9.59208 10.2916C9.94857 10.2916 10.2704 10.2916 10.6434 10.2916C10.6434 9.3146 10.6434 8.36398 10.6434 7.40346C11.3035 7.40346 11.9142 7.40346 12.5694 7.40346C12.5694 8.37718 12.5694 9.32946 12.5694 10.2949C12.9407 10.2949 13.2625 10.2949 13.6075 10.2949C13.6075 8.13623 13.6075 5.99732 13.6075 3.85017C13.2543 3.85017 12.9325 3.85017 12.5628 3.85017Z" fill="white"/>
<path d="M38.5085 21.6035C38.2015 20.0703 37.0363 19.1395 35.1763 18.986C34.4436 18.9299 33.6976 18.9761 32.9071 18.9761C32.9071 17.6244 32.9071 16.2579 32.9071 14.8947C32.3459 14.8947 31.8376 14.8947 31.3161 14.8947C31.3161 18.6509 31.3161 22.3808 31.3161 26.2427C32.4928 26.2427 33.6299 26.3104 34.7522 26.2246C36.4339 26.0991 37.7163 25.4307 38.317 24.0593C38.6669 23.2638 38.6735 22.4353 38.5085 21.6035ZM36.0477 23.3232C35.7523 24.5775 34.4683 25.1683 32.9203 24.8019C32.9203 23.409 32.9137 22.0392 32.9335 20.6661C32.9335 20.5753 33.0919 20.4268 33.2058 20.4053C34.7538 20.0769 35.7886 20.5918 36.0576 21.884C36.1534 22.3478 36.1567 22.8578 36.0477 23.3232Z" fill="white"/>
<path d="M7.10489 0.372713C6.5421 0.372713 5.98262 0.374364 5.42149 0.372713C4.6293 0.369412 3.97245 0.616971 3.43277 1.09393C1.57939 2.73442 2.06625 5.85035 4.53193 6.51546C3.70344 7.75985 2.87989 9.00094 2.01674 10.3014C2.36827 10.3014 2.63894 10.2833 2.903 10.3064C3.25288 10.3378 3.43277 10.2239 3.59451 9.96477C4.21176 8.96298 4.86696 7.97605 5.50731 6.98252C5.80273 6.52701 5.83904 6.51381 6.5355 6.64749C6.5355 7.84897 6.5355 9.06036 6.5355 10.2701C6.95635 10.2701 7.32109 10.2701 7.71718 10.2701C7.71718 10.0621 7.71718 9.8872 7.71718 9.70896C7.71718 6.76136 7.71718 3.81212 7.71718 0.86288C7.71718 0.372715 7.71553 0.374364 7.10489 0.372713ZM6.50249 5.60775C5.69876 5.59949 4.86036 5.79919 4.24806 5.1968C3.54665 4.50859 3.34695 3.7131 3.60606 2.84005C3.62752 2.77073 3.66218 2.70471 3.69023 2.6387C4.21176 1.43887 4.89997 1.10549 6.50249 1.30518C6.50249 2.73937 6.50249 4.15375 6.50249 5.60775Z" fill="white"/>
<path d="M36.3134 9.36583C34.5624 9.95007 33.3543 9.42194 33.0374 7.89698C32.8707 7.10645 32.9301 6.31096 33.219 5.54023C33.6085 4.48728 34.3825 4.17371 35.6698 4.52194C35.6945 4.52854 35.7243 4.51699 35.7688 4.51039C35.8975 4.3503 36.0296 4.18196 36.1732 4.00207C35.1103 3.30396 33.653 3.47064 32.8608 4.35195C32.2485 5.03191 32.0092 5.81915 31.9317 6.64599C31.8442 7.59496 31.9614 8.51588 32.5885 9.34933C33.2454 10.2207 34.3841 10.63 35.5559 10.3561C36.3828 10.1613 36.4752 10.0755 36.3134 9.36583Z" fill="white"/>
<path d="M8.59027 24.9026C8.59027 21.5523 8.59027 18.24 8.59027 14.8979C6.53884 14.8979 4.55177 14.8979 2.61421 14.8979C2.5317 16.5962 2.49209 18.2664 2.35675 19.9333C2.23628 21.412 1.9095 22.8627 1.25595 24.2589C1.03974 24.7194 0.780634 25.0231 0.120478 24.9125C0.0858202 24.9076 0.0429101 24.934 0 24.9505C0 26.1784 0 27.3996 0 28.6209C0.602392 28.6209 1.17013 28.6209 1.78407 28.6209C1.78407 27.7908 1.78407 26.9936 1.78407 26.1982C3.95103 26.1982 6.07508 26.1982 8.24534 26.1982C8.24534 27.0201 8.24534 27.8155 8.24534 28.6275C8.84938 28.6275 9.40391 28.6275 9.97825 28.6275C9.97825 27.3864 9.97825 26.1618 9.97825 24.9026C9.50128 24.9026 9.06063 24.9026 8.59027 24.9026ZM6.65437 24.8894C5.31425 24.8894 3.98899 24.8894 2.74294 24.8894C3.07632 24.0543 3.48397 23.2324 3.73153 22.3792C4.22829 20.6644 4.22499 18.9051 4.2382 17.1507C4.2415 16.8801 4.2382 16.6061 4.2382 16.309C5.04854 16.309 5.83412 16.309 6.65602 16.309C6.65437 19.1477 6.65437 21.9946 6.65437 24.8894Z" fill="white"/>
<path d="M25.3846 9.45313C25.0825 9.5406 24.7921 9.64623 24.4884 9.70729C23.6418 9.87893 23.0377 9.69079 22.7159 9.15771C22.338 8.53386 22.3561 7.86381 22.3792 7.16239C23.4652 7.16239 24.5082 7.16239 25.5727 7.16239C25.642 6.11275 25.5133 5.12911 24.8482 4.2346C24.264 3.44902 23.2523 3.32359 22.4485 3.96889C22.1465 4.20985 21.8923 4.51847 21.7141 4.83204C21.2157 5.7051 21.0259 6.64582 21.1431 7.59974C21.2173 8.19223 21.3807 8.79463 21.6332 9.35246C21.9996 10.1727 22.8463 10.5919 23.825 10.4879C24.2986 10.4384 24.7723 10.3047 25.2179 10.1496C25.7146 9.97795 25.7279 9.81952 25.3846 9.45313ZM22.909 4.72312C23.2688 4.27586 23.8629 4.28906 24.1814 4.75777C24.5379 5.27765 24.5808 5.85199 24.566 6.45438C23.7919 6.45438 23.0839 6.45438 22.3413 6.45438C22.3759 5.82393 22.4964 5.23969 22.909 4.72312Z" fill="white"/>
<path d="M28.3207 15.1091C28.2514 15.0249 28.1639 14.8978 28.0764 14.8945C27.5499 14.8731 27.0218 14.8813 26.4392 14.8813C26.4392 16.4475 26.4392 17.9923 26.4392 19.5453C25.2939 19.5453 24.2046 19.5453 23.0229 19.5453C23.0229 17.9791 23.0229 16.4442 23.0229 14.8896C22.3842 14.8896 21.8016 14.8896 21.2009 14.8896C21.2009 18.6937 21.2009 22.4781 21.2009 26.2806C21.8198 26.2806 22.4123 26.2806 23.046 26.2806C23.046 26.1155 23.046 25.9736 23.046 25.8349C23.046 24.5047 23.0444 23.1828 23.046 21.8542C23.046 21.1231 23.046 21.1231 23.9207 21.1231C24.7492 21.1231 25.5777 21.1231 26.4524 21.1231C26.4524 22.8742 26.4524 24.5724 26.4524 26.2839C27.0944 26.2839 27.6886 26.2839 28.3042 26.2839C28.3124 26.1584 28.3256 26.0511 28.3256 25.9488C28.3256 22.3807 28.3256 18.8125 28.3256 15.2477C28.3256 15.1998 28.3487 15.1404 28.3207 15.1091Z" fill="white"/>
<path d="M29.3389 6.37181C29.976 5.63904 30.585 4.89141 31.2039 4.15038C31.2798 4.05961 31.3458 3.96389 31.4514 3.82526C31.2517 3.82526 31.1346 3.83846 31.024 3.82361C30.5718 3.76254 30.2962 3.90943 30.0503 4.23291C29.5073 4.94587 28.9049 5.62583 28.324 6.31735C28.2579 6.39492 28.1754 6.46258 28.017 6.61607C28.017 5.62418 28.017 4.74288 28.017 3.84341C27.6605 3.84341 27.3486 3.84341 27.0086 3.84341C27.0086 5.96581 27.0086 8.05356 27.0086 10.1396C27.3552 10.1396 27.6671 10.1396 28.0318 10.1396C28.0318 9.39202 28.0153 8.65925 28.0417 7.92977C28.0516 7.67892 28.1672 7.42806 28.2332 7.1772C28.4296 7.29768 28.5138 7.40495 28.588 7.51718C29.1145 8.30771 29.6344 9.09825 30.1658 9.88383C30.2351 9.98781 30.3539 10.1281 30.4662 10.1429C30.7665 10.1809 31.0752 10.1561 31.4465 10.1561C30.7071 9.03059 30.0173 7.96773 29.3109 6.90984C29.1772 6.71179 29.1673 6.5682 29.3389 6.37181Z" fill="white"/>
<path d="M53.5815 14.8583C53.2844 14.8484 53.1507 14.9326 53.0451 15.1587C52.3305 16.7332 51.5977 18.2994 50.8699 19.8689C50.5514 20.5555 50.2213 21.242 49.8995 21.9286C49.8681 21.9253 49.8433 21.9187 49.812 21.9154C49.812 19.5784 49.812 17.2415 49.812 14.8864C49.1716 14.8864 48.5775 14.8864 47.9685 14.8864C47.9685 18.6971 47.9685 22.4947 47.9685 26.2939C48.5775 26.2939 49.1518 26.2939 49.779 26.2939C50.9293 23.8084 52.0796 21.313 53.2398 18.7961C53.2398 21.3014 53.2398 23.7952 53.2398 26.2873C53.9627 26.2873 54.6328 26.2873 55.3226 26.2873C55.3226 22.4765 55.3226 18.6922 55.3226 14.8666C54.7235 14.8666 54.1525 14.8831 53.5815 14.8583Z" fill="white"/>
<path d="M18.6742 24.6548C18.1081 24.8297 17.5981 25.0294 17.0601 25.14C15.3123 25.4981 14.1703 25.0145 13.6718 23.747C13.2873 22.7733 13.3022 21.7682 13.2857 20.707C15.2001 20.707 17.0568 20.707 18.9894 20.707C18.9102 19.8241 18.9019 18.9626 18.7418 18.1291C18.5388 17.0844 18.1361 16.0826 17.3027 15.2409C16.565 14.4966 15.6771 14.2804 14.5697 14.5808C13.4193 14.8927 12.7179 15.6156 12.2459 16.4721C10.8629 18.9857 10.7441 21.5751 11.8036 24.186C12.1221 24.9749 12.6618 25.6615 13.5596 26.1005C15.0648 26.8415 17.4991 26.5841 19.0257 25.5163C18.9052 25.2192 18.7831 24.9188 18.6742 24.6548ZM14.1472 16.5761C14.4162 16.1982 14.7743 15.8895 15.375 15.9176C15.9626 15.949 16.3108 16.2559 16.5468 16.6553C17.0683 17.5515 17.1558 18.512 17.1509 19.5088C15.8372 19.5088 14.568 19.5088 13.2312 19.5088C13.3302 18.4542 13.5151 17.4657 14.1472 16.5761Z" fill="white"/>
<path d="M19.5307 9.43508C19.5307 7.56024 19.5307 5.70851 19.5307 3.84192C18.3969 3.84192 17.3093 3.84192 16.1589 3.84192C16.1589 4.26112 16.1738 4.6374 16.1573 5.01534C16.1012 6.32905 16.0533 7.64441 15.5054 8.90201C15.3701 9.21228 15.2694 9.54401 14.7462 9.47469C14.7462 10.1745 14.7462 10.8412 14.7462 11.5047C15.0763 11.5047 15.3717 11.5047 15.7183 11.5047C15.7183 11.0508 15.7183 10.6184 15.7183 10.186C16.9528 10.186 18.1345 10.186 19.3706 10.186C19.3706 10.6432 19.3706 11.0756 19.3706 11.4981C19.7172 11.4981 20.0093 11.4981 20.2899 11.4981C20.2899 10.7983 20.2899 10.1315 20.2899 9.46479C20.0258 9.45489 19.8013 9.44499 19.5307 9.43508ZM18.4662 9.43508C17.6971 9.43508 16.9742 9.43508 16.1953 9.43508C17.1805 7.91013 17.0469 6.27129 17.1178 4.63575C17.5684 4.63575 18.0041 4.63575 18.4662 4.63575C18.4662 6.23333 18.4662 7.81605 18.4662 9.43508Z" fill="white"/>
<path d="M40.215 14.8828C40.215 18.7018 40.215 22.4928 40.22 26.2853C40.7877 26.2853 41.3274 26.2853 41.905 26.2853C41.905 22.8657 41.905 19.4709 41.905 16.0298C43.6412 16.0298 45.3444 16.0298 47.0427 16.0298C47.0427 15.6222 47.0427 15.2608 47.0427 14.8828C44.7618 14.8828 42.5107 14.8828 40.215 14.8828Z" fill="white"/>
</svg>
