<svg width="22" height="29" viewBox="0 0 22 29" fill="none" xmlns="http://www.w3.org/2000/svg">
<path d="M12.487 12.3112C12.2814 12.1349 12.0463 12.0174 11.7819 11.9292C11.5174 11.8704 11.2236 11.8411 10.871 11.8411H9.51945C9.28439 11.8411 9.13748 11.8998 9.01996 11.988C8.93181 12.0761 8.87305 12.2524 8.87305 12.4875V16.2777C8.87305 16.454 8.87305 16.5716 8.93181 16.6891C8.96119 16.8066 9.01996 16.8654 9.1081 16.9241C9.19625 16.9829 9.34316 17.0123 9.54883 17.0123H10.9004C11.1355 17.0123 11.3411 16.9829 11.5468 16.9535C11.7231 16.9241 11.8994 16.8654 12.0757 16.8066C12.252 16.7185 12.3989 16.6303 12.5164 16.5128C12.6927 16.3365 12.8396 16.1602 12.9571 15.9545C13.0747 15.7489 13.1628 15.5138 13.2216 15.2494C13.2803 14.9849 13.3097 14.7205 13.3097 14.3973C13.3097 13.4865 13.0453 12.7813 12.487 12.3112ZM11.7231 15.9545C11.635 16.0133 11.5468 16.0721 11.4587 16.1014C11.3411 16.1308 11.253 16.1602 11.1648 16.1602C11.0767 16.1602 10.9298 16.1602 10.7535 16.1602H9.96018V12.6344H10.6653C10.9885 12.6344 11.253 12.6638 11.488 12.7519C11.7231 12.8107 11.8994 12.987 12.0463 13.2514C12.1932 13.5158 12.2814 13.8978 12.2814 14.3973C12.252 15.1612 12.0757 15.6607 11.7231 15.9545Z" fill="#CA4949"/>
<path d="M21.8308 5.78825L21.8014 5.75887V5.72948L16.2188 0.14691L16.1895 0.117528C16.1895 0.117528 16.1601 0.117528 16.1601 0.0881459C16.1601 0.0881459 16.1307 0.0881459 16.1307 0.0587639C16.0426 0 15.9544 0 15.8369 0H1.99797C1.4691 0 0.969605 0.205674 0.617021 0.558257L0.587639 0.587639C0.235056 0.940223 0 1.4691 0 1.99797V27.002C0 27.5603 0.235056 28.0598 0.587639 28.4124C0.940223 28.7649 1.4691 29 1.99797 29H19.8916C20.4499 29 20.9493 28.7649 21.3019 28.4124C21.6545 28.0598 21.8896 27.5309 21.8896 27.002V6.08207C21.8896 5.96454 21.8602 5.87639 21.8308 5.78825ZM16.3951 2.1155L19.7153 5.43566H17.2766C17.0415 5.43566 16.8065 5.34752 16.6596 5.17123C16.5127 5.02432 16.3951 4.78926 16.3951 4.5542V2.1155ZM20.6261 27.002C20.6261 27.2077 20.538 27.384 20.3911 27.5309C20.2442 27.6778 20.0679 27.766 19.8622 27.766H1.99797C1.7923 27.766 1.61601 27.6778 1.4691 27.5603C1.32219 27.4134 1.26342 27.2371 1.26342 27.0314V1.96859C1.26342 1.76292 1.35157 1.58663 1.49848 1.43972L1.52786 1.41033C1.67477 1.29281 1.85106 1.20466 2.02736 1.20466H15.1905V4.52482C15.1905 5.11246 15.4255 5.64134 15.8369 6.05269C16.2188 6.43465 16.7771 6.66971 17.3647 6.66971H20.6261V27.002Z" fill="#CA4949"/>
<path d="M7.52176 12.2523C7.37485 12.1054 7.19856 12.0173 6.9635 11.9585C6.75783 11.8997 6.43463 11.8704 6.05266 11.8704H4.70109C4.46604 11.8704 4.28974 11.9291 4.2016 12.0173C4.08407 12.1054 4.05469 12.2817 4.05469 12.5168V16.5127C4.05469 16.7184 4.11345 16.8653 4.2016 16.9828C4.28974 17.1004 4.43665 17.1297 4.58356 17.1297C4.73047 17.1297 4.848 17.071 4.96553 16.9534C5.05367 16.8359 5.11244 16.689 5.11244 16.4833V15.0142H6.08204C6.72845 15.0142 7.19856 14.8673 7.52176 14.6029C7.84496 14.3384 8.02125 13.9271 8.02125 13.3982C8.02125 13.1632 7.99187 12.9281 7.90373 12.7224C7.7862 12.5461 7.66867 12.3699 7.52176 12.2523ZM6.81659 13.8977C6.72845 14.0152 6.61092 14.1034 6.43463 14.1622C6.25834 14.2209 6.05266 14.2503 5.81761 14.2503H5.11244V12.6637H5.81761C6.28772 12.6637 6.58154 12.7518 6.75783 12.8987C6.90474 13.0456 6.9635 13.2219 6.9635 13.457C6.93412 13.6333 6.90474 13.7802 6.81659 13.8977Z" fill="#CA4949"/>
<path d="M14.8671 11.8115C14.6908 11.8409 14.5733 11.8703 14.4851 11.9291C14.397 11.9584 14.3088 12.0466 14.2795 12.1347C14.2207 12.2229 14.2207 12.3404 14.2207 12.5167V16.4833C14.2207 16.6889 14.2795 16.8652 14.3676 16.9534C14.4558 17.0709 14.6027 17.1003 14.7496 17.1003C14.8965 17.1003 15.014 17.0415 15.1315 16.9534C15.2197 16.8358 15.2785 16.6889 15.2785 16.4833V14.7791H17.012C17.1589 14.7791 17.2764 14.7497 17.3646 14.6616C17.4527 14.6028 17.4821 14.4853 17.4821 14.3678C17.4821 14.2502 17.4527 14.1621 17.3646 14.0739C17.2764 14.0152 17.1589 13.9564 17.012 13.9564H15.2785V12.6342H17.3352C17.5115 12.6342 17.629 12.6048 17.7172 12.5167C17.8053 12.4285 17.8347 12.3404 17.8347 12.2229C17.8347 12.1053 17.8053 12.0172 17.7172 11.9291C17.629 11.8409 17.5115 11.8115 17.3352 11.8115H14.8671Z" fill="#CA4949"/>
</svg>
