<svg width="22" height="29" viewBox="0 0 22 29" fill="none" xmlns="http://www.w3.org/2000/svg">
<path d="M21.8308 5.78825L21.8014 5.75887V5.72948L16.2188 0.14691L16.1895 0.117528C16.1895 0.117528 16.1601 0.117528 16.1601 0.0881459C16.1601 0.0881459 16.1307 0.0881459 16.1307 0.0587639C16.0426 0 15.9544 0 15.8369 0H1.99797C1.4691 0 0.969605 0.205674 0.617021 0.558257L0.587639 0.587639C0.235056 0.940223 0 1.4691 0 1.99797V27.002C0 27.5603 0.235056 28.0598 0.587639 28.4124C0.940223 28.7649 1.4691 29 1.99797 29H19.8916C20.4499 29 20.9493 28.7649 21.3019 28.4124C21.6545 28.0598 21.8896 27.5309 21.8896 27.002V6.08207C21.8896 5.96454 21.8602 5.87639 21.8308 5.78825ZM16.3951 2.1155L19.7153 5.43566H17.2766C17.0415 5.43566 16.8065 5.34752 16.6596 5.17123C16.5127 5.02432 16.3951 4.78926 16.3951 4.5542V2.1155ZM20.6261 27.002C20.6261 27.2077 20.538 27.384 20.3911 27.5309C20.2442 27.6778 20.0679 27.766 19.8622 27.766H1.99797C1.7923 27.766 1.61601 27.6778 1.4691 27.5603C1.32219 27.4134 1.26342 27.2371 1.26342 27.0314V1.96859C1.26342 1.76292 1.35157 1.58663 1.49848 1.43972L1.52786 1.41033C1.67477 1.29281 1.85106 1.20466 2.02736 1.20466H15.1905V4.52482C15.1905 5.11246 15.4255 5.64134 15.8369 6.05269C16.2188 6.43465 16.7771 6.66971 17.3647 6.66971H20.6261V27.002Z" fill="#CA4949"/>
</svg>
