<svg width="17" height="17" viewBox="0 0 17 17" fill="none" xmlns="http://www.w3.org/2000/svg">
<path d="M8.5 0C3.81312 0 0 3.81312 0 8.5C0 13.1865 3.81312 17 8.5 17C13.1865 17 17 13.1865 17 8.5C17 3.81312 13.1872 0 8.5 0ZM10.6139 8.79924H9.23099C9.23099 11.0086 9.23099 13.7282 9.23099 13.7282H7.18183C7.18183 13.7282 7.18183 11.035 7.18183 8.79924H6.20775V7.0572H7.18183V5.93042C7.18183 5.12342 7.56529 3.86242 9.24982 3.86242L10.7683 3.86824V5.55927C10.7683 5.55927 9.84557 5.55927 9.66616 5.55927C9.48675 5.55927 9.23167 5.64898 9.23167 6.03382V7.05754H10.7929L10.6139 8.79924Z" fill="white" fill-opacity="0.8"/>
</svg>
