<svg width="16" height="16" viewBox="0 0 16 16" fill="none" xmlns="http://www.w3.org/2000/svg">
<path d="M10.8124 0.214355H4.91474C2.20082 0.214355 0 2.36672 0 5.02088V10.7887C0 13.4429 2.20082 15.5952 4.91474 15.5952H10.8124C13.5263 15.5952 15.7272 13.4429 15.7272 10.7887V5.02088C15.7272 2.36672 13.5263 0.214355 10.8124 0.214355ZM14.2527 10.7887C14.2527 12.644 12.7095 14.1533 10.8124 14.1533H4.91474C3.01765 14.1533 1.47442 12.644 1.47442 10.7887V5.02088C1.47442 3.16556 3.01765 1.65631 4.91474 1.65631H10.8124C12.7095 1.65631 14.2527 3.16556 14.2527 5.02088V10.7887Z" fill="#CA4949"/>
<path d="M7.86343 4.05957C5.6921 4.05957 3.93164 5.78126 3.93164 7.90477C3.93164 10.0283 5.6921 11.75 7.86343 11.75C10.0348 11.75 11.7952 10.0283 11.7952 7.90477C11.7952 5.78126 10.0348 4.05957 7.86343 4.05957ZM7.86343 10.308C6.50893 10.308 5.40606 9.22944 5.40606 7.90477C5.40606 6.57914 6.50893 5.50152 7.86343 5.50152C9.21793 5.50152 10.3208 6.57914 10.3208 7.90477C10.3208 9.22944 9.21793 10.308 7.86343 10.308Z" fill="#CA4949"/>
<path d="M12.0903 4.28365C12.3797 4.28365 12.6142 4.05434 12.6142 3.77147C12.6142 3.48859 12.3797 3.25928 12.0903 3.25928C11.801 3.25928 11.5664 3.48859 11.5664 3.77147C11.5664 4.05434 11.801 4.28365 12.0903 4.28365Z" fill="#CA4949"/>
</svg>
