<svg width="16" height="16" viewBox="0 0 16 16" fill="none" xmlns="http://www.w3.org/2000/svg">
<path d="M10.8124 0.214279H4.91474C2.20082 0.214279 0 2.36664 0 5.02081V10.7886C0 13.4428 2.20082 15.5952 4.91474 15.5952H10.8124C13.5263 15.5952 15.7272 13.4428 15.7272 10.7886V5.02081C15.7272 2.36664 13.5263 0.214279 10.8124 0.214279ZM14.2527 10.7886C14.2527 12.644 12.7095 14.1532 10.8124 14.1532H4.91474C3.01765 14.1532 1.47442 12.644 1.47442 10.7886V5.02081C1.47442 3.16549 3.01765 1.65624 4.91474 1.65624H10.8124C12.7095 1.65624 14.2527 3.16549 14.2527 5.02081V10.7886Z" fill="white" fill-opacity="0.8"/>
<path d="M7.86355 4.05948C5.69222 4.05948 3.93176 5.78117 3.93176 7.90467C3.93176 10.0282 5.69222 11.7499 7.86355 11.7499C10.0349 11.7499 11.7953 10.0282 11.7953 7.90467C11.7953 5.78117 10.0349 4.05948 7.86355 4.05948ZM7.86355 10.3079C6.50905 10.3079 5.40618 9.22934 5.40618 7.90467C5.40618 6.57904 6.50905 5.50143 7.86355 5.50143C9.21805 5.50143 10.3209 6.57904 10.3209 7.90467C10.3209 9.22934 9.21805 10.3079 7.86355 10.3079Z" fill="white" fill-opacity="0.8"/>
<path d="M12.0904 4.28361C12.3797 4.28361 12.6143 4.05429 12.6143 3.77142C12.6143 3.48855 12.3797 3.25923 12.0904 3.25923C11.801 3.25923 11.5665 3.48855 11.5665 3.77142C11.5665 4.05429 11.801 4.28361 12.0904 4.28361Z" fill="white" fill-opacity="0.8"/>
</svg>
