<svg width="17" height="16" viewBox="0 0 17 16" fill="none" xmlns="http://www.w3.org/2000/svg">
<path d="M13.899 10.169C12.9727 10.169 12.1556 10.6103 11.6218 11.2861L6.67058 8.75407C6.7354 8.51231 6.78198 8.26252 6.78198 7.99963C6.78198 7.71344 6.72665 7.444 6.64944 7.18182L11.5789 4.66143C12.1097 5.36782 12.9479 5.82953 13.8997 5.82953C15.512 5.82953 16.8163 4.52527 16.8163 2.91441C16.8163 1.305 15.512 0 13.8998 0C12.2911 0 10.9854 1.305 10.9854 2.91438C10.9854 3.17801 11.032 3.42851 11.0975 3.67101L6.14699 6.20308C5.61247 5.52657 4.79392 5.0838 3.86616 5.0838C2.25529 5.0838 0.951782 6.38951 0.951782 7.99963C0.951782 9.60975 2.25533 10.9147 3.86616 10.9147C4.81941 10.9147 5.65689 10.4516 6.18993 9.74449L11.1172 12.2649C11.0399 12.5263 10.9839 12.798 10.9839 13.0849C10.9839 14.695 12.2896 16 13.8983 16C15.5106 16 16.8148 14.695 16.8148 13.0849C16.8156 11.4733 15.5113 10.169 13.899 10.169Z" fill="url(#paint0_linear)"/>
<defs>
<linearGradient id="paint0_linear" x1="8.88404" y1="0" x2="8.88404" y2="16" gradientUnits="userSpaceOnUse">
<stop stop-color="#4BC050"/>
<stop offset="1" stop-color="#5CD061"/>
</linearGradient>
</defs>
</svg>
