<svg width="72" height="18" viewBox="0 0 72 18" fill="none" xmlns="http://www.w3.org/2000/svg">
<path d="M55.4478 4.02515H51.4887C51.2181 4.02515 50.9877 4.2281 50.9455 4.50366L49.3445 14.9636C49.313 15.1701 49.4676 15.3567 49.6704 15.3567H51.7019C51.8912 15.3567 52.0527 15.2148 52.0821 15.0218L52.5362 12.0564C52.5783 11.7809 52.8087 11.5779 53.0796 11.5779H54.3324C56.9399 11.5779 58.4448 10.2775 58.8382 7.70034C59.0153 6.57318 58.8453 5.68747 58.3331 5.06742C57.7701 4.38559 56.7723 4.02515 55.4478 4.02515ZM55.9047 7.84536C55.6883 9.30968 54.6032 9.30968 53.5532 9.30968H52.9561L53.3749 6.57574C53.4004 6.41037 53.5386 6.28864 53.7009 6.28864H53.9747C54.6893 6.28864 55.3643 6.28864 55.7122 6.70811C55.9205 6.95929 55.9834 7.33128 55.9047 7.84536Z" fill="white"/>
<path d="M27.2112 4.02515H23.2523C22.9817 4.02515 22.7513 4.2281 22.7089 4.50366L21.1079 14.9636C21.0764 15.1701 21.2312 15.3567 21.434 15.3567H23.3244C23.595 15.3567 23.8254 15.1539 23.8678 14.8784L24.2998 12.0564C24.3419 11.7809 24.5724 11.5779 24.843 11.5779H26.0958C28.7035 11.5779 30.2084 10.2775 30.6018 7.70034C30.7789 6.57318 30.6089 5.68747 30.0969 5.06742C29.5335 4.38559 28.5355 4.02515 27.2112 4.02515ZM27.6681 7.84536C27.4518 9.30968 26.3664 9.30968 25.3168 9.30968H24.7195L25.1383 6.57574C25.1638 6.41037 25.3019 6.28864 25.4643 6.28864H25.7381C26.4527 6.28864 27.1278 6.28864 27.4756 6.70811C27.6838 6.95929 27.7468 7.33128 27.6681 7.84536Z" fill="white"/>
<path d="M39.044 7.79869H37.1485C36.9861 7.79869 36.8478 7.92043 36.8224 8.0858L36.7391 8.63197L36.6066 8.43414C36.1959 7.82015 35.281 7.61499 34.3673 7.61499C32.2731 7.61499 30.4838 9.25037 30.1356 11.5439C29.9543 12.6881 30.2116 13.7818 30.8413 14.545C31.4198 15.2463 32.2453 15.5381 33.2289 15.5381C34.9169 15.5381 35.8534 14.4205 35.8534 14.4205L35.7687 14.9635C35.7368 15.17 35.8916 15.3568 36.0947 15.3568H37.8019C38.0725 15.3568 38.3028 15.154 38.3451 14.8787L39.37 8.19177C39.4016 7.98515 39.2468 7.79869 39.044 7.79869ZM36.4021 11.6008C36.219 12.7167 35.3591 13.466 34.2623 13.466C33.7125 13.466 33.2723 13.2838 32.9894 12.9388C32.709 12.5968 32.6035 12.1095 32.6925 11.5668C32.8631 10.4608 33.7369 9.68726 34.8169 9.68726C35.3552 9.68726 35.7924 9.87115 36.0808 10.2195C36.3712 10.5702 36.4852 11.0606 36.4021 11.6008Z" fill="white"/>
<path d="M67.2806 7.79869H65.3851C65.2227 7.79869 65.0844 7.92043 65.0592 8.0858L64.9757 8.63197L64.8432 8.43414C64.4325 7.82015 63.5176 7.61499 62.6039 7.61499C60.5095 7.61499 58.7204 9.25037 58.3724 11.5439C58.1911 12.6881 58.4484 13.7818 59.0781 14.545C59.6565 15.2463 60.4821 15.5381 61.4657 15.5381C63.1537 15.5381 64.0902 14.4205 64.0902 14.4205L64.0055 14.9635C63.9736 15.17 64.1284 15.3568 64.3314 15.3568H66.0387C66.3093 15.3568 66.5395 15.154 66.5819 14.8787L67.6068 8.19177C67.6384 7.98515 67.4834 7.79869 67.2806 7.79869ZM64.6389 11.6008C64.4558 12.7167 63.5961 13.466 62.4993 13.466C61.9493 13.466 61.5093 13.2838 61.2262 12.9388C60.946 12.5968 60.8403 12.1095 60.9293 11.5668C61.1001 10.4608 61.9735 9.68726 63.0535 9.68726C63.5918 9.68726 64.029 9.87115 64.3176 10.2195C64.6078 10.5702 64.7218 11.0606 64.6389 11.6008Z" fill="white"/>
<path d="M49.1408 7.79865H47.2353C47.0531 7.79865 46.8827 7.89196 46.7802 8.04725L44.1518 12.036L43.0378 8.20291C42.968 7.9631 42.7538 7.79846 42.5109 7.79846H40.6379C40.4117 7.79846 40.2527 8.02763 40.3254 8.24837L42.4236 14.5941L40.4502 17.4629C40.2952 17.6883 40.4516 17.9998 40.7196 17.9998H42.623C42.8035 17.9998 42.9723 17.9086 43.0752 17.7557L49.4119 8.33234C49.5635 8.10702 49.4069 7.79865 49.1408 7.79865Z" fill="white"/>
<path d="M69.5152 4.3125L67.8902 14.9639C67.8587 15.1701 68.0135 15.3568 68.2161 15.3568H69.8504C70.121 15.3568 70.3515 15.154 70.3938 14.8784L71.9959 4.41847C72.0276 4.21203 71.8728 4.02539 71.6699 4.02539H69.8413C69.6787 4.02521 69.5405 4.14713 69.5152 4.3125Z" fill="white"/>
<path opacity="0.68" d="M13.3412 4.57318C13.5543 3.17285 13.3397 2.22022 12.6047 1.35707C11.7955 0.40701 10.3336 0 8.46325 0H3.03393C2.65174 0 2.32613 0.286557 2.2667 0.675784L0.00576333 15.4477C-0.0387189 15.7392 0.179956 16.0027 0.466065 16.0027H3.81789L3.58658 17.5143C3.54761 17.7693 3.73871 17.9998 3.98923 17.9998H6.81456C7.14889 17.9998 7.43358 17.7491 7.48571 17.4087L7.51347 17.2605L8.04565 13.783L8.07999 13.5908C8.13212 13.2506 8.41681 12.9996 8.75114 12.9996H9.17372C11.9108 12.9996 14.0539 11.8539 14.6801 8.54025C14.9418 7.15568 14.8064 5.99992 14.1144 5.18737C13.9054 4.94206 13.6449 4.73892 13.3412 4.57318Z" fill="white"/>
<path opacity="0.7" d="M13.3412 4.57318C13.5543 3.17285 13.3397 2.22022 12.6047 1.35707C11.7955 0.40701 10.3336 0 8.46325 0H3.03393C2.65174 0 2.32613 0.286557 2.2667 0.675784L0.00576333 15.4477C-0.0387189 15.7392 0.179956 16.0027 0.466065 16.0027H3.81789L4.65985 10.5012L4.63369 10.6738C4.6933 10.2847 5.01588 9.99797 5.39825 9.99797H6.99142C10.1201 9.99797 12.57 8.6882 13.2857 4.90044C13.307 4.7886 13.325 4.67989 13.3412 4.57318Z" fill="white"/>
<path d="M5.56444 4.5917C5.6002 4.35776 5.7461 4.16599 5.94236 4.06919C6.0315 4.02519 6.13132 4.00062 6.23576 4.00062H10.4916C10.9959 4.00062 11.466 4.03472 11.8957 4.10604C12.0184 4.12639 12.138 4.14986 12.2542 4.17644C12.3702 4.20302 12.483 4.23254 12.5921 4.26554C12.6467 4.28186 12.7003 4.29928 12.7531 4.31724C12.9641 4.38948 13.1607 4.47455 13.3415 4.57337C13.5547 3.17303 13.3401 2.22041 12.6051 1.35725C11.7955 0.40701 10.3336 0 8.46325 0H3.03393C2.65174 0 2.32613 0.286557 2.2667 0.675784L0.00576333 15.4477C-0.0387189 15.7392 0.179956 16.0027 0.466065 16.0027H3.81789L4.65985 10.5012L5.56444 4.5917Z" fill="white"/>
</svg>
