<svg width="227" height="61" viewBox="0 0 227 61" fill="none" xmlns="http://www.w3.org/2000/svg">
<mask id="mask0" mask-type="alpha" maskUnits="userSpaceOnUse" x="2" y="33" width="225" height="17">
<rect x="2" y="33" width="225" height="17" fill="#C4C4C4"/>
</mask>
<g mask="url(#mask0)">
<path d="M1.96 47L7.64 18.52H21.52L20.56 23.32H12.04L10.92 28.84H12.8C15.0933 28.84 16.7867 29.3867 17.88 30.48C18.84 31.44 19.32 32.7867 19.32 34.52C19.32 35.72 19.2133 36.8533 19 37.92C18.3067 41.3867 17.2533 43.7733 15.84 45.08C14.4267 46.36 12.4533 47 9.92 47H1.96ZM8.28 42.2H10.2C11.24 42.2 11.9867 41.88 12.44 41.24C12.92 40.5733 13.32 39.4667 13.64 37.92C13.8267 36.9867 13.92 36.24 13.92 35.68C13.92 34.96 13.7733 34.4533 13.48 34.16C13.1333 33.8133 12.5733 33.64 11.8 33.64H9.96L8.28 42.2ZM24.4766 32.76C25.3032 28.7067 25.9966 25.88 26.5566 24.28C27.1432 22.6533 27.9032 21.3733 28.8366 20.44C30.3299 18.9467 32.3166 18.2 34.7966 18.2C37.5432 18.2 39.4366 19.12 40.4766 20.96C41.0899 22.0533 41.3966 23.4267 41.3966 25.08C41.3966 26.76 41.0366 29.32 40.3166 32.76C39.4899 36.8133 38.7832 39.6533 38.1966 41.28C37.6366 42.88 36.8899 44.1467 35.9566 45.08C34.4632 46.5733 32.4766 47.32 29.9966 47.32C27.2499 47.32 25.3566 46.4 24.3166 44.56C23.7032 43.4667 23.3966 42.0933 23.3966 40.44C23.3966 38.76 23.7566 36.2 24.4766 32.76ZM29.8366 32.76C29.1166 36.36 28.7566 38.8933 28.7566 40.36C28.7566 41.8 29.3432 42.52 30.5166 42.52C31.1566 42.52 31.7299 42.2667 32.2366 41.76C32.6899 41.3067 33.1032 40.4533 33.4766 39.2C33.8499 37.9467 34.3432 35.8 34.9566 32.76C35.6766 29.16 36.0366 26.6267 36.0366 25.16C36.0366 23.72 35.4499 23 34.2766 23C33.6366 23 33.0632 23.2533 32.5566 23.76C32.1032 24.2133 31.6899 25.0667 31.3166 26.32C30.9432 27.5733 30.4499 29.72 29.8366 32.76ZM42.835 47L48.515 18.52H55.755C58.0483 18.52 59.7417 19.0667 60.835 20.16C61.795 21.12 62.275 22.4667 62.275 24.2C62.275 25.4 62.1683 26.5333 61.955 27.6C61.2617 31.0667 60.2083 33.4533 58.795 34.76C57.3817 36.04 55.4083 36.68 52.875 36.68H50.235L48.195 47H42.835ZM51.195 31.88H53.155C54.195 31.88 54.9417 31.56 55.395 30.92C55.875 30.2533 56.275 29.1467 56.595 27.6C56.7817 26.6667 56.875 25.92 56.875 25.36C56.875 24.6667 56.715 24.16 56.395 23.84C56.075 23.4933 55.5283 23.32 54.755 23.32H52.915L51.195 31.88ZM63.3116 47L68.9916 18.52H74.3516L71.4716 32.84L79.9116 18.52H84.4316L78.7516 47H73.3916L76.2316 32.72L67.9516 47H63.3116ZM85.8809 40.44C85.8809 38.76 86.2409 36.2 86.9609 32.76C87.7876 28.7067 88.4809 25.88 89.0409 24.28C89.6276 22.6533 90.3876 21.3733 91.3209 20.44C92.8143 18.9467 94.7876 18.2 97.2409 18.2C99.6409 18.2 101.401 18.8933 102.521 20.28C103.428 21.4 103.881 22.8667 103.881 24.68C103.881 25.4267 103.854 26.0267 103.801 26.48H98.4409C98.4943 26.08 98.5209 25.5867 98.5209 25C98.5209 23.6667 97.9476 23 96.8009 23C96.1343 23 95.5476 23.2533 95.0409 23.76C94.5876 24.2133 94.1743 25.0667 93.8009 26.32C93.4276 27.5733 92.9343 29.72 92.3209 32.76C91.6009 36.36 91.2409 38.8933 91.2409 40.36C91.2409 41.8 91.8143 42.52 92.9609 42.52C93.8143 42.52 94.4943 42.16 95.0009 41.44C95.4276 40.8267 95.7609 40.0133 96.0009 39H101.441C100.828 41.9333 99.7343 44.0933 98.1609 45.48C96.7743 46.7067 94.8809 47.32 92.4809 47.32C89.7343 47.32 87.8409 46.4 86.8009 44.56C86.1876 43.4667 85.8809 42.0933 85.8809 40.44ZM113.374 47L119.054 18.52H134.334L128.654 47H123.294L128.014 23.32H123.454L118.734 47H113.374ZM136.867 32.76C137.694 28.7067 138.387 25.88 138.947 24.28C139.534 22.6533 140.294 21.3733 141.227 20.44C142.721 18.9467 144.707 18.2 147.187 18.2C149.934 18.2 151.827 19.12 152.867 20.96C153.481 22.0533 153.787 23.4267 153.787 25.08C153.787 26.76 153.427 29.32 152.707 32.76C151.881 36.8133 151.174 39.6533 150.587 41.28C150.027 42.88 149.281 44.1467 148.347 45.08C146.854 46.5733 144.867 47.32 142.387 47.32C139.641 47.32 137.747 46.4 136.707 44.56C136.094 43.4667 135.787 42.0933 135.787 40.44C135.787 38.76 136.147 36.2 136.867 32.76ZM142.227 32.76C141.507 36.36 141.147 38.8933 141.147 40.36C141.147 41.8 141.734 42.52 142.907 42.52C143.547 42.52 144.121 42.2667 144.627 41.76C145.081 41.3067 145.494 40.4533 145.867 39.2C146.241 37.9467 146.734 35.8 147.347 32.76C148.067 29.16 148.427 26.6267 148.427 25.16C148.427 23.72 147.841 23 146.667 23C146.027 23 145.454 23.2533 144.947 23.76C144.494 24.2133 144.081 25.0667 143.707 26.32C143.334 27.5733 142.841 29.72 142.227 32.76ZM155.226 47L160.906 18.52H176.186L170.506 47H165.146L169.866 23.32H165.306L160.586 47H155.226ZM178.719 32.76C179.545 28.7067 180.239 25.88 180.799 24.28C181.385 22.6533 182.145 21.3733 183.079 20.44C184.572 18.9467 186.559 18.2 189.039 18.2C191.785 18.2 193.679 19.12 194.719 20.96C195.332 22.0533 195.639 23.4267 195.639 25.08C195.639 26.76 195.279 29.32 194.559 32.76C193.732 36.8133 193.025 39.6533 192.439 41.28C191.879 42.88 191.132 44.1467 190.199 45.08C188.705 46.5733 186.719 47.32 184.239 47.32C181.492 47.32 179.599 46.4 178.559 44.56C177.945 43.4667 177.639 42.0933 177.639 40.44C177.639 38.76 177.999 36.2 178.719 32.76ZM184.079 32.76C183.359 36.36 182.999 38.8933 182.999 40.36C182.999 41.8 183.585 42.52 184.759 42.52C185.399 42.52 185.972 42.2667 186.479 41.76C186.932 41.3067 187.345 40.4533 187.719 39.2C188.092 37.9467 188.585 35.8 189.199 32.76C189.919 29.16 190.279 26.6267 190.279 25.16C190.279 23.72 189.692 23 188.519 23C187.879 23 187.305 23.2533 186.799 23.76C186.345 24.2133 185.932 25.0667 185.559 26.32C185.185 27.5733 184.692 29.72 184.079 32.76ZM197.077 47L202.757 18.52H210.077C212.611 18.52 214.357 19.16 215.317 20.44C216.037 21.4 216.397 22.5867 216.397 24C216.397 24.7467 216.291 25.64 216.077 26.68C215.651 28.8133 214.957 30.3067 213.997 31.16C213.491 31.5867 212.984 31.9067 212.477 32.12C212.931 32.3333 213.304 32.6667 213.597 33.12C214.077 33.7867 214.317 34.6267 214.317 35.64C214.317 36.5733 214.211 37.5733 213.997 38.64C213.357 41.8933 212.371 44.12 211.037 45.32C210.317 45.96 209.504 46.4 208.597 46.64C207.691 46.88 206.464 47 204.917 47H197.077ZM203.397 42.2H205.157C206.277 42.2 207.064 41.9333 207.517 41.4C207.997 40.84 208.384 39.8533 208.677 38.44C208.837 37.6933 208.917 37.0533 208.917 36.52C208.917 35.7733 208.744 35.24 208.397 34.92C208.051 34.5733 207.491 34.4 206.717 34.4H204.957L203.397 42.2ZM205.837 29.84H207.357C208.371 29.84 209.117 29.6 209.597 29.12C210.104 28.6133 210.477 27.8 210.717 26.68C210.851 26.0667 210.917 25.56 210.917 25.16C210.917 24.5467 210.757 24.0933 210.437 23.8C210.144 23.48 209.611 23.32 208.837 23.32H207.157L205.837 29.84Z" fill="black"/>
</g>
<path d="M0.96 46L0.371588 45.8826L0.228521 46.6H0.96V46ZM6.64 17.52V16.92H6.14785L6.05159 17.4026L6.64 17.52ZM20.52 17.52L21.1083 17.6377L21.2519 16.92H20.52V17.52ZM19.56 22.32V22.92H20.0519L20.1483 22.4377L19.56 22.32ZM11.04 22.32V21.72H10.5495L10.452 22.2007L11.04 22.32ZM9.92 27.84L9.33198 27.7207L9.18604 28.44H9.92V27.84ZM18 36.92L17.4117 36.8023L17.4117 36.8023L18 36.92ZM14.84 44.08L15.2428 44.5247L15.2473 44.5206L14.84 44.08ZM7.28 41.2L6.69123 41.0844L6.5508 41.8H7.28V41.2ZM11.44 40.24L10.9531 39.8894L10.9504 39.8932L11.44 40.24ZM12.64 36.92L13.2276 37.0416L13.2283 37.0377L12.64 36.92ZM12.48 33.16L12.0557 33.5843L12.0557 33.5843L12.48 33.16ZM8.96 32.64V32.04H8.46631L8.37123 32.5244L8.96 32.64ZM1.54841 46.1174L7.22841 17.6374L6.05159 17.4026L0.371588 45.8826L1.54841 46.1174ZM6.64 18.12H20.52V16.92H6.64V18.12ZM19.9317 17.4023L18.9717 22.2023L20.1483 22.4377L21.1083 17.6377L19.9317 17.4023ZM19.56 21.72H11.04V22.92H19.56V21.72ZM10.452 22.2007L9.33198 27.7207L10.508 27.9593L11.628 22.4393L10.452 22.2007ZM9.92 28.44H11.8V27.24H9.92V28.44ZM11.8 28.44C14.0105 28.44 15.5193 28.9679 16.4557 29.9043L17.3043 29.0557C16.054 27.8055 14.1761 27.24 11.8 27.24V28.44ZM16.4557 29.9043C17.2743 30.7228 17.72 31.8996 17.72 33.52H18.92C18.92 31.6737 18.4057 30.1572 17.3043 29.0557L16.4557 29.9043ZM17.72 33.52C17.72 34.6845 17.6165 35.7781 17.4117 36.8023L18.5883 37.0377C18.8102 35.9285 18.92 34.7555 18.92 33.52H17.72ZM17.4117 36.8023C16.7251 40.2351 15.703 42.465 14.4327 43.6394L15.2473 44.5206C16.8037 43.0817 17.8882 40.5383 18.5883 37.0377L17.4117 36.8023ZM14.4372 43.6353C13.1663 44.7863 11.3543 45.4 8.92 45.4V46.6C11.5523 46.6 13.687 45.9337 15.2428 44.5247L14.4372 43.6353ZM8.92 45.4H0.96V46.6H8.92V45.4ZM7.28 41.8H9.2V40.6H7.28V41.8ZM9.2 41.8C10.3649 41.8 11.3288 41.435 11.9296 40.5868L10.9504 39.8932C10.6445 40.325 10.1151 40.6 9.2 40.6V41.8ZM11.9269 40.5906C12.4832 39.818 12.9034 38.6085 13.2276 37.0416L12.0524 36.7984C11.7366 38.3248 11.3568 39.3287 10.9531 39.8894L11.9269 40.5906ZM13.2283 37.0377C13.4182 36.0884 13.52 35.2975 13.52 34.68H12.32C12.32 35.1825 12.2351 35.8849 12.0517 36.8023L13.2283 37.0377ZM13.52 34.68C13.52 33.9096 13.3688 33.2003 12.9043 32.7357L12.0557 33.5843C12.1779 33.7064 12.32 34.0104 12.32 34.68H13.52ZM12.9043 32.7357C12.3948 32.2263 11.6435 32.04 10.8 32.04V33.24C11.5032 33.24 11.8718 33.4004 12.0557 33.5843L12.9043 32.7357ZM10.8 32.04H8.96V33.24H10.8V32.04ZM8.37123 32.5244L6.69123 41.0844L7.86877 41.3156L9.54877 32.7556L8.37123 32.5244ZM23.4766 31.76L24.0638 31.8829L24.0645 31.8799L23.4766 31.76ZM25.5566 23.28L24.9921 23.0764L24.9902 23.0818L25.5566 23.28ZM27.8366 19.44L27.4123 19.0157L27.4123 19.0157L27.8366 19.44ZM39.4766 19.96L39.9999 19.6664L39.9989 19.6648L39.4766 19.96ZM39.3166 31.76L38.7293 31.6371L38.7287 31.6401L39.3166 31.76ZM37.1966 40.28L36.6321 40.0764L36.6302 40.0818L37.1966 40.28ZM34.9566 44.08L35.3808 44.5043L35.3808 44.5043L34.9566 44.08ZM23.3166 43.56L22.7933 43.8536L22.7942 43.8552L23.3166 43.56ZM28.8366 31.76L28.2484 31.6413L28.2482 31.6423L28.8366 31.76ZM31.2366 40.76L30.8123 40.3357L31.2366 40.76ZM33.9566 31.76L34.5447 31.8787L34.5449 31.8777L33.9566 31.76ZM31.5566 22.76L31.1323 22.3357L31.1323 22.3357L31.5566 22.76ZM24.0645 31.8799C24.8912 27.8262 25.5778 25.0356 26.1229 23.4782L24.9902 23.0818C24.4153 24.7244 23.7152 27.5872 22.8887 31.6401L24.0645 31.8799ZM26.121 23.4836C26.6866 21.9152 27.4061 20.719 28.2608 19.8643L27.4123 19.0157C26.4004 20.0276 25.5999 21.3914 24.9921 23.0764L26.121 23.4836ZM28.2608 19.8643C29.6221 18.503 31.4458 17.8 33.7966 17.8V16.6C31.1873 16.6 29.0377 17.3904 27.4123 19.0157L28.2608 19.8643ZM33.7966 17.8C36.4017 17.8 38.053 18.6607 38.9542 20.2552L39.9989 19.6648C38.8202 17.5793 36.6848 16.6 33.7966 16.6V17.8ZM38.9533 20.2535C39.5028 21.2331 39.7966 22.4977 39.7966 24.08H40.9966C40.9966 22.3556 40.677 20.8736 39.9998 19.6664L38.9533 20.2535ZM39.7966 24.08C39.7966 25.6945 39.4479 28.2037 38.7293 31.6371L39.9038 31.8829C40.6252 28.4363 40.9966 25.8255 40.9966 24.08H39.7966ZM38.7287 31.6401C37.902 35.6932 37.2025 38.4949 36.6321 40.0764L37.761 40.4836C38.3639 38.8117 39.0778 35.9334 39.9045 31.8799L38.7287 31.6401ZM36.6302 40.0818C36.0918 41.6201 35.3865 42.8016 34.5323 43.6557L35.3808 44.5043C36.3933 43.4918 37.1813 42.1399 37.7629 40.4782L36.6302 40.0818ZM34.5323 43.6557C33.171 45.017 31.3473 45.72 28.9966 45.72V46.92C31.6058 46.92 33.7555 46.1296 35.3808 44.5043L34.5323 43.6557ZM28.9966 45.72C26.3915 45.72 24.7402 44.8593 23.8389 43.2648L22.7942 43.8552C23.973 45.9407 26.1083 46.92 28.9966 46.92V45.72ZM23.8398 43.2664C23.2903 42.2869 22.9966 41.0223 22.9966 39.44H21.7966C21.7966 41.1644 22.1161 42.6464 22.7933 43.8536L23.8398 43.2664ZM22.9966 39.44C22.9966 37.8255 23.3452 35.3163 24.0638 31.8829L22.8893 31.6371C22.1679 35.0837 21.7966 37.6945 21.7966 39.44H22.9966ZM28.2482 31.6423C27.5286 35.2404 27.1566 37.827 27.1566 39.36H28.3566C28.3566 37.9597 28.7045 35.4796 29.4249 31.8777L28.2482 31.6423ZM27.1566 39.36C27.1566 40.1461 27.3142 40.847 27.7314 41.359C28.1678 41.8945 28.8012 42.12 29.5166 42.12V40.92C29.0586 40.92 28.812 40.7855 28.6617 40.601C28.4922 40.393 28.3566 40.0139 28.3566 39.36H27.1566ZM29.5166 42.12C30.3354 42.12 31.0563 41.7887 31.6608 41.1843L30.8123 40.3357C30.4034 40.7446 29.9778 40.92 29.5166 40.92V42.12ZM31.6608 41.1843C32.2264 40.6187 32.6736 39.6403 33.0516 38.3713L31.9015 38.0287C31.5329 39.2664 31.1534 39.9946 30.8123 40.3357L31.6608 41.1843ZM33.0516 38.3713C33.4334 37.0894 33.9313 34.919 34.5447 31.8787L33.3684 31.6413C32.7552 34.681 32.2663 36.804 31.9015 38.0287L33.0516 38.3713ZM34.5449 31.8777C35.2645 28.2796 35.6366 25.693 35.6366 24.16H34.4366C34.4366 25.5603 34.0886 28.0404 33.3682 31.6423L34.5449 31.8777ZM35.6366 24.16C35.6366 23.3739 35.4789 22.673 35.0617 22.161C34.6253 21.6255 33.9919 21.4 33.2766 21.4V22.6C33.7346 22.6 33.9811 22.7345 34.1314 22.919C34.3009 23.127 34.4366 23.5061 34.4366 24.16H35.6366ZM33.2766 21.4C32.4578 21.4 31.7368 21.7313 31.1323 22.3357L31.9808 23.1843C32.3897 22.7754 32.8154 22.6 33.2766 22.6V21.4ZM31.1323 22.3357C30.5667 22.9013 30.1195 23.8797 29.7415 25.1487L30.8916 25.4913C31.2603 24.2536 31.6397 23.5254 31.9808 23.1843L31.1323 22.3357ZM29.7415 25.1487C29.3597 26.4306 28.8618 28.601 28.2484 31.6413L29.4247 31.8787C30.038 28.839 30.5268 26.716 30.8916 25.4913L29.7415 25.1487ZM41.835 46L41.2466 45.8826L41.1035 46.6H41.835V46ZM47.515 17.52V16.92H47.0228L46.9266 17.4026L47.515 17.52ZM59.835 19.16L59.4107 19.5843L59.4107 19.5843L59.835 19.16ZM60.955 26.6L61.5433 26.7177L61.5433 26.7177L60.955 26.6ZM57.795 33.76L58.1978 34.2047L58.2023 34.2006L57.795 33.76ZM49.235 35.68V35.08H48.742L48.6464 35.5636L49.235 35.68ZM47.195 46V46.6H47.688L47.7836 46.1164L47.195 46ZM50.195 30.88L49.6068 30.7618L49.4624 31.48H50.195V30.88ZM54.395 29.92L53.9081 29.5694L53.9054 29.5732L54.395 29.92ZM55.595 26.6L56.1826 26.7216L56.1833 26.7177L55.595 26.6ZM55.395 22.84L54.9541 23.247L54.9623 23.2558L54.9707 23.2643L55.395 22.84ZM51.915 22.32V21.72H51.4236L51.3268 22.2018L51.915 22.32ZM42.4234 46.1174L48.1034 17.6374L46.9266 17.4026L41.2466 45.8826L42.4234 46.1174ZM47.515 18.12H54.755V16.92H47.515V18.12ZM54.755 18.12C56.9655 18.12 58.4743 18.6479 59.4107 19.5843L60.2593 18.7357C59.009 17.4855 57.1311 16.92 54.755 16.92V18.12ZM59.4107 19.5843C60.2293 20.4028 60.675 21.5796 60.675 23.2H61.875C61.875 21.3537 61.3607 19.8372 60.2593 18.7357L59.4107 19.5843ZM60.675 23.2C60.675 24.3645 60.5715 25.4581 60.3667 26.4823L61.5433 26.7177C61.7652 25.6085 61.875 24.4355 61.875 23.2H60.675ZM60.3667 26.4823C59.6801 29.9151 58.658 32.145 57.3877 33.3194L58.2023 34.2006C59.7587 32.7617 60.8432 30.2183 61.5433 26.7177L60.3667 26.4823ZM57.3922 33.3153C56.1213 34.4663 54.3093 35.08 51.875 35.08V36.28C54.5073 36.28 56.642 35.6137 58.1978 34.2047L57.3922 33.3153ZM51.875 35.08H49.235V36.28H51.875V35.08ZM48.6464 35.5636L46.6064 45.8836L47.7836 46.1164L49.8236 35.7964L48.6464 35.5636ZM47.195 45.4H41.835V46.6H47.195V45.4ZM50.195 31.48H52.155V30.28H50.195V31.48ZM52.155 31.48C53.3199 31.48 54.2838 31.115 54.8846 30.2668L53.9054 29.5732C53.5995 30.005 53.0701 30.28 52.155 30.28V31.48ZM54.8819 30.2706C55.4382 29.498 55.8584 28.2885 56.1826 26.7216L55.0074 26.4784C54.6916 28.0048 54.3118 29.0087 53.9081 29.5694L54.8819 30.2706ZM56.1833 26.7177C56.3732 25.7684 56.475 24.9775 56.475 24.36H55.275C55.275 24.8625 55.1901 25.5649 55.0067 26.4823L56.1833 26.7177ZM56.475 24.36C56.475 23.5905 56.2993 22.8958 55.8193 22.4157L54.9707 23.2643C55.1307 23.4242 55.275 23.7428 55.275 24.36H56.475ZM55.8359 22.433C55.3474 21.9038 54.5926 21.72 53.755 21.72V22.92C54.4641 22.92 54.8026 23.0828 54.9541 23.247L55.8359 22.433ZM53.755 21.72H51.915V22.92H53.755V21.72ZM51.3268 22.2018L49.6068 30.7618L50.7832 30.9982L52.5032 22.4382L51.3268 22.2018ZM62.3116 46L61.7232 45.8826L61.5801 46.6H62.3116V46ZM67.9916 17.52V16.92H67.4994L67.4032 17.4026L67.9916 17.52ZM73.3516 17.52L73.9398 17.6383L74.0842 16.92H73.3516V17.52ZM70.4716 31.84L69.8833 31.7217L70.9885 32.1447L70.4716 31.84ZM78.9116 17.52V16.92H78.5687L78.3947 17.2153L78.9116 17.52ZM83.4316 17.52L84.02 17.6374L84.163 16.92H83.4316V17.52ZM77.7516 46V46.6H78.2437L78.34 46.1174L77.7516 46ZM72.3916 46L71.8031 45.883L71.6605 46.6H72.3916V46ZM75.2316 31.72L75.82 31.837L74.7125 31.419L75.2316 31.72ZM66.9516 46V46.6H67.2972L67.4706 46.301L66.9516 46ZM62.9 46.1174L68.58 17.6374L67.4032 17.4026L61.7232 45.8826L62.9 46.1174ZM67.9916 18.12H73.3516V16.92H67.9916V18.12ZM72.7633 17.4017L69.8833 31.7217L71.0598 31.9583L73.9398 17.6383L72.7633 17.4017ZM70.9885 32.1447L79.4285 17.8247L78.3947 17.2153L69.9547 31.5353L70.9885 32.1447ZM78.9116 18.12H83.4316V16.92H78.9116V18.12ZM82.8432 17.4026L77.1632 45.8826L78.34 46.1174L84.02 17.6374L82.8432 17.4026ZM77.7516 45.4H72.3916V46.6H77.7516V45.4ZM72.98 46.117L75.82 31.837L74.6431 31.603L71.8031 45.883L72.98 46.117ZM74.7125 31.419L66.4325 45.699L67.4706 46.301L75.7506 32.021L74.7125 31.419ZM66.9516 45.4H62.3116V46.6H66.9516V45.4ZM85.9609 31.76L86.5482 31.8829L86.5488 31.8799L85.9609 31.76ZM88.0409 23.28L87.4765 23.0764L87.4746 23.0818L88.0409 23.28ZM90.3209 19.44L89.8967 19.0157L89.8967 19.0157L90.3209 19.44ZM101.521 19.28L101.054 19.657L101.055 19.6575L101.521 19.28ZM102.801 25.48V26.08H103.334L103.397 25.5501L102.801 25.48ZM97.4409 25.48L96.8462 25.4007L96.7556 26.08H97.4409V25.48ZM94.0409 22.76L93.6167 22.3357L93.6167 22.3357L94.0409 22.76ZM91.3209 31.76L90.7328 31.6413L90.7326 31.6423L91.3209 31.76ZM94.0009 40.44L94.4916 40.7853L94.4935 40.7826L94.0009 40.44ZM95.0009 38V37.4H94.5264L94.4171 37.8617L95.0009 38ZM100.441 38L101.028 38.1228L101.179 37.4H100.441V38ZM97.1609 44.48L96.7642 44.0299L96.7634 44.0306L97.1609 44.48ZM85.8009 43.56L85.2776 43.8536L85.2786 43.8552L85.8009 43.56ZM85.4809 39.44C85.4809 37.8255 85.8296 35.3163 86.5482 31.8829L85.3737 31.6371C84.6523 35.0837 84.2809 37.6945 84.2809 39.44H85.4809ZM86.5488 31.8799C87.3756 27.8262 88.0622 25.0356 88.6073 23.4782L87.4746 23.0818C86.8997 24.7244 86.1996 27.5872 85.373 31.6401L86.5488 31.8799ZM88.6054 23.4836C89.171 21.9152 89.8904 20.719 90.7452 19.8643L89.8967 19.0157C88.8848 20.0276 88.0842 21.3914 87.4765 23.0764L88.6054 23.4836ZM90.7452 19.8643C92.1078 18.5017 93.9189 17.8 96.2409 17.8V16.6C93.6563 16.6 91.5208 17.3916 89.8967 19.0157L90.7452 19.8643ZM96.2409 17.8C98.5266 17.8 100.084 18.4563 101.054 19.657L101.988 18.903C100.717 17.3303 98.7552 16.6 96.2409 16.6V17.8ZM101.055 19.6575C101.854 20.6455 102.281 21.9678 102.281 23.68H103.481C103.481 21.7655 103.001 20.1545 101.987 18.9025L101.055 19.6575ZM102.281 23.68C102.281 24.4159 102.254 24.9897 102.205 25.4099L103.397 25.5501C103.454 25.0636 103.481 24.4374 103.481 23.68H102.281ZM102.801 24.88H97.4409V26.08H102.801V24.88ZM98.0357 25.5593C98.0937 25.1242 98.1209 24.6024 98.1209 24H96.9209C96.9209 24.5709 96.8948 25.0358 96.8462 25.4007L98.0357 25.5593ZM98.1209 24C98.1209 23.2611 97.964 22.595 97.5458 22.1088C97.1128 21.6052 96.4924 21.4 95.8009 21.4V22.6C96.2562 22.6 96.4958 22.7281 96.636 22.8912C96.7912 23.0716 96.9209 23.4055 96.9209 24H98.1209ZM95.8009 21.4C94.9624 21.4 94.2266 21.7259 93.6167 22.3357L94.4652 23.1843C94.8687 22.7808 95.3061 22.6 95.8009 22.6V21.4ZM93.6167 22.3357C93.0511 22.9013 92.6039 23.8797 92.2259 25.1487L93.376 25.4913C93.7446 24.2536 94.1241 23.5254 94.4652 23.1843L93.6167 22.3357ZM92.2259 25.1487C91.8441 26.4306 91.3462 28.601 90.7328 31.6413L91.9091 31.8787C92.5224 28.839 93.0112 26.716 93.376 25.4913L92.2259 25.1487ZM90.7326 31.6423C90.013 35.2404 89.6409 37.827 89.6409 39.36H90.8409C90.8409 37.9597 91.1889 35.4796 91.9093 31.8777L90.7326 31.6423ZM89.6409 39.36C89.6409 40.1436 89.7943 40.8423 90.2016 41.3538C90.6296 41.8913 91.2542 42.12 91.9609 42.12V40.92C91.521 40.92 91.2856 40.7887 91.1403 40.6062C90.9743 40.3977 90.8409 40.0164 90.8409 39.36H89.6409ZM91.9609 42.12C93.0168 42.12 93.8768 41.659 94.4916 40.7853L93.5103 40.0947C93.1117 40.661 92.6118 40.92 91.9609 40.92V42.12ZM94.4935 40.7826C94.9765 40.0884 95.3338 39.1981 95.5848 38.1383L94.4171 37.8617C94.1881 38.8286 93.8788 39.565 93.5084 40.0974L94.4935 40.7826ZM95.0009 38.6H100.441V37.4H95.0009V38.6ZM99.8536 37.8772C99.2558 40.7364 98.2065 42.7587 96.7642 44.0299L97.5577 44.9301C99.262 43.428 100.399 41.1303 101.028 38.1228L99.8536 37.8772ZM96.7634 44.0306C95.5157 45.1343 93.779 45.72 91.4809 45.72V46.92C93.9829 46.92 96.0329 46.279 97.5585 44.9294L96.7634 44.0306ZM91.4809 45.72C88.8758 45.72 87.2245 44.8593 86.3233 43.2648L85.2786 43.8552C86.4573 45.9407 88.5927 46.92 91.4809 46.92V45.72ZM86.3242 43.2664C85.7747 42.2869 85.4809 41.0223 85.4809 39.44H84.2809C84.2809 41.1644 84.6005 42.6464 85.2777 43.8536L86.3242 43.2664ZM112.374 46L111.786 45.8826L111.643 46.6H112.374V46ZM118.054 17.52V16.92H117.562L117.466 17.4026L118.054 17.52ZM133.334 17.52L133.922 17.6374L134.066 16.92H133.334V17.52ZM127.654 46V46.6H128.146L128.242 46.1174L127.654 46ZM122.294 46L121.706 45.8827L121.563 46.6H122.294V46ZM127.014 22.32L127.602 22.4373L127.745 21.72H127.014V22.32ZM122.454 22.32V21.72H121.962L121.866 22.2027L122.454 22.32ZM117.734 46V46.6H118.226L118.322 46.1173L117.734 46ZM112.962 46.1174L118.642 17.6374L117.466 17.4026L111.786 45.8826L112.962 46.1174ZM118.054 18.12H133.334V16.92H118.054V18.12ZM132.746 17.4026L127.066 45.8826L128.242 46.1174L133.922 17.6374L132.746 17.4026ZM127.654 45.4H122.294V46.6H127.654V45.4ZM122.882 46.1173L127.602 22.4373L126.426 22.2027L121.706 45.8827L122.882 46.1173ZM127.014 21.72H122.454V22.92H127.014V21.72ZM121.866 22.2027L117.146 45.8827L118.322 46.1173L123.042 22.4373L121.866 22.2027ZM117.734 45.4H112.374V46.6H117.734V45.4ZM135.867 31.76L136.454 31.8829L136.455 31.8799L135.867 31.76ZM137.947 23.28L137.383 23.0764L137.381 23.0818L137.947 23.28ZM140.227 19.44L139.803 19.0157L139.803 19.0157L140.227 19.44ZM151.867 19.96L152.39 19.6664L152.39 19.6648L151.867 19.96ZM151.707 31.76L151.12 31.6371L151.119 31.6401L151.707 31.76ZM149.587 40.28L149.023 40.0764L149.021 40.0818L149.587 40.28ZM147.347 44.08L147.771 44.5043L147.771 44.5043L147.347 44.08ZM135.707 43.56L135.184 43.8536L135.185 43.8552L135.707 43.56ZM141.227 31.76L140.639 31.6413L140.639 31.6423L141.227 31.76ZM143.627 40.76L143.203 40.3357L143.627 40.76ZM146.347 31.76L146.935 31.8787L146.936 31.8777L146.347 31.76ZM143.947 22.76L143.523 22.3357L143.523 22.3357L143.947 22.76ZM136.455 31.8799C137.282 27.8262 137.968 25.0356 138.514 23.4782L137.381 23.0818C136.806 24.7244 136.106 27.5872 135.279 31.6401L136.455 31.8799ZM138.512 23.4836C139.077 21.9152 139.797 20.719 140.651 19.8643L139.803 19.0157C138.791 20.0276 137.99 21.3914 137.383 23.0764L138.512 23.4836ZM140.651 19.8643C142.013 18.503 143.836 17.8 146.187 17.8V16.6C143.578 16.6 141.428 17.3904 139.803 19.0157L140.651 19.8643ZM146.187 17.8C148.792 17.8 150.444 18.6607 151.345 20.2552L152.39 19.6648C151.211 17.5793 149.075 16.6 146.187 16.6V17.8ZM151.344 20.2535C151.893 21.2331 152.187 22.4977 152.187 24.08H153.387C153.387 22.3556 153.068 20.8736 152.39 19.6664L151.344 20.2535ZM152.187 24.08C152.187 25.6945 151.839 28.2037 151.12 31.6371L152.294 31.8829C153.016 28.4363 153.387 25.8255 153.387 24.08H152.187ZM151.119 31.6401C150.293 35.6932 149.593 38.4949 149.023 40.0764L150.152 40.4836C150.755 38.8117 151.468 35.9334 152.295 31.8799L151.119 31.6401ZM149.021 40.0818C148.482 41.6201 147.777 42.8016 146.923 43.6557L147.771 44.5043C148.784 43.4918 149.572 42.1399 150.154 40.4782L149.021 40.0818ZM146.923 43.6557C145.562 45.017 143.738 45.72 141.387 45.72V46.92C143.996 46.92 146.146 46.1296 147.771 44.5043L146.923 43.6557ZM141.387 45.72C138.782 45.72 137.131 44.8593 136.23 43.2648L135.185 43.8552C136.364 45.9407 138.499 46.92 141.387 46.92V45.72ZM136.23 43.2664C135.681 42.2869 135.387 41.0223 135.387 39.44H134.187C134.187 41.1644 134.507 42.6464 135.184 43.8536L136.23 43.2664ZM135.387 39.44C135.387 37.8255 135.736 35.3163 136.454 31.8829L135.28 31.6371C134.559 35.0837 134.187 37.6945 134.187 39.44H135.387ZM140.639 31.6423C139.919 35.2404 139.547 37.827 139.547 39.36H140.747C140.747 37.9597 141.095 35.4796 141.816 31.8777L140.639 31.6423ZM139.547 39.36C139.547 40.1461 139.705 40.847 140.122 41.359C140.558 41.8945 141.192 42.12 141.907 42.12V40.92C141.449 40.92 141.203 40.7855 141.052 40.601C140.883 40.393 140.747 40.0139 140.747 39.36H139.547ZM141.907 42.12C142.726 42.12 143.447 41.7887 144.051 41.1843L143.203 40.3357C142.794 40.7446 142.368 40.92 141.907 40.92V42.12ZM144.051 41.1843C144.617 40.6187 145.064 39.6403 145.442 38.3713L144.292 38.0287C143.923 39.2664 143.544 39.9946 143.203 40.3357L144.051 41.1843ZM145.442 38.3713C145.824 37.0894 146.322 34.919 146.935 31.8787L145.759 31.6413C145.146 34.681 144.657 36.804 144.292 38.0287L145.442 38.3713ZM146.936 31.8777C147.655 28.2796 148.027 25.693 148.027 24.16H146.827C146.827 25.5603 146.479 28.0404 145.759 31.6423L146.936 31.8777ZM148.027 24.16C148.027 23.3739 147.87 22.673 147.452 22.161C147.016 21.6255 146.383 21.4 145.667 21.4V22.6C146.125 22.6 146.372 22.7345 146.522 22.919C146.692 23.127 146.827 23.5061 146.827 24.16H148.027ZM145.667 21.4C144.848 21.4 144.127 21.7313 143.523 22.3357L144.371 23.1843C144.78 22.7754 145.206 22.6 145.667 22.6V21.4ZM143.523 22.3357C142.957 22.9013 142.51 23.8797 142.132 25.1487L143.282 25.4913C143.651 24.2536 144.03 23.5254 144.371 23.1843L143.523 22.3357ZM142.132 25.1487C141.75 26.4306 141.252 28.601 140.639 31.6413L141.815 31.8787C142.429 28.839 142.917 26.716 143.282 25.4913L142.132 25.1487ZM154.226 46L153.637 45.8826L153.494 46.6H154.226V46ZM159.906 17.52V16.92H159.413L159.317 17.4026L159.906 17.52ZM175.186 17.52L175.774 17.6374L175.917 16.92H175.186V17.52ZM169.506 46V46.6H169.998L170.094 46.1174L169.506 46ZM164.146 46L163.557 45.8827L163.414 46.6H164.146V46ZM168.866 22.32L169.454 22.4373L169.597 21.72H168.866V22.32ZM164.306 22.32V21.72H163.813L163.717 22.2027L164.306 22.32ZM159.586 46V46.6H160.078L160.174 46.1173L159.586 46ZM154.814 46.1174L160.494 17.6374L159.317 17.4026L153.637 45.8826L154.814 46.1174ZM159.906 18.12H175.186V16.92H159.906V18.12ZM174.597 17.4026L168.917 45.8826L170.094 46.1174L175.774 17.6374L174.597 17.4026ZM169.506 45.4H164.146V46.6H169.506V45.4ZM164.734 46.1173L169.454 22.4373L168.277 22.2027L163.557 45.8827L164.734 46.1173ZM168.866 21.72H164.306V22.92H168.866V21.72ZM163.717 22.2027L158.997 45.8827L160.174 46.1173L164.894 22.4373L163.717 22.2027ZM159.586 45.4H154.226V46.6H159.586V45.4ZM177.719 31.76L178.306 31.8829L178.307 31.8799L177.719 31.76ZM179.799 23.28L179.234 23.0764L179.232 23.0818L179.799 23.28ZM182.079 19.44L181.654 19.0157L181.654 19.0157L182.079 19.44ZM193.719 19.96L194.242 19.6664L194.241 19.6648L193.719 19.96ZM193.559 31.76L192.971 31.6371L192.971 31.6401L193.559 31.76ZM191.439 40.28L190.874 40.0764L190.872 40.0818L191.439 40.28ZM189.199 44.08L189.623 44.5043L189.623 44.5043L189.199 44.08ZM177.559 43.56L177.035 43.8536L177.036 43.8552L177.559 43.56ZM183.079 31.76L182.491 31.6413L182.49 31.6423L183.079 31.76ZM185.479 40.76L185.054 40.3357L185.479 40.76ZM188.199 31.76L188.787 31.8787L188.787 31.8777L188.199 31.76ZM185.799 22.76L185.374 22.3357L185.374 22.3357L185.799 22.76ZM178.307 31.8799C179.133 27.8262 179.82 25.0356 180.365 23.4782L179.232 23.0818C178.658 24.7244 177.957 27.5872 177.131 31.6401L178.307 31.8799ZM180.363 23.4836C180.929 21.9152 181.648 20.719 182.503 19.8643L181.654 19.0157C180.643 20.0276 179.842 21.3914 179.234 23.0764L180.363 23.4836ZM182.503 19.8643C183.864 18.503 185.688 17.8 188.039 17.8V16.6C185.43 16.6 183.28 17.3904 181.654 19.0157L182.503 19.8643ZM188.039 17.8C190.644 17.8 192.295 18.6607 193.196 20.2552L194.241 19.6648C193.062 17.5793 190.927 16.6 188.039 16.6V17.8ZM193.195 20.2535C193.745 21.2331 194.039 22.4977 194.039 24.08H195.239C195.239 22.3556 194.919 20.8736 194.242 19.6664L193.195 20.2535ZM194.039 24.08C194.039 25.6945 193.69 28.2037 192.971 31.6371L194.146 31.8829C194.867 28.4363 195.239 25.8255 195.239 24.08H194.039ZM192.971 31.6401C192.144 35.6932 191.445 38.4949 190.874 40.0764L192.003 40.4836C192.606 38.8117 193.32 35.9334 194.147 31.8799L192.971 31.6401ZM190.872 40.0818C190.334 41.6201 189.629 42.8016 188.774 43.6557L189.623 44.5043C190.636 43.4918 191.423 42.1399 192.005 40.4782L190.872 40.0818ZM188.774 43.6557C187.413 45.017 185.59 45.72 183.239 45.72V46.92C185.848 46.92 187.998 46.1296 189.623 44.5043L188.774 43.6557ZM183.239 45.72C180.634 45.72 178.982 44.8593 178.081 43.2648L177.036 43.8552C178.215 45.9407 180.351 46.92 183.239 46.92V45.72ZM178.082 43.2664C177.533 42.2869 177.239 41.0223 177.239 39.44H176.039C176.039 41.1644 176.358 42.6464 177.035 43.8536L178.082 43.2664ZM177.239 39.44C177.239 37.8255 177.587 35.3163 178.306 31.8829L177.131 31.6371C176.41 35.0837 176.039 37.6945 176.039 39.44H177.239ZM182.49 31.6423C181.771 35.2404 181.399 37.827 181.399 39.36H182.599C182.599 37.9597 182.947 35.4796 183.667 31.8777L182.49 31.6423ZM181.399 39.36C181.399 40.1461 181.556 40.847 181.974 41.359C182.41 41.8945 183.043 42.12 183.759 42.12V40.92C183.301 40.92 183.054 40.7855 182.904 40.601C182.734 40.393 182.599 40.0139 182.599 39.36H181.399ZM183.759 42.12C184.578 42.12 185.299 41.7887 185.903 41.1843L185.054 40.3357C184.646 40.7446 184.22 40.92 183.759 40.92V42.12ZM185.903 41.1843C186.469 40.6187 186.916 39.6403 187.294 38.3713L186.144 38.0287C185.775 39.2664 185.396 39.9946 185.054 40.3357L185.903 41.1843ZM187.294 38.3713C187.676 37.0894 188.173 34.919 188.787 31.8787L187.611 31.6413C186.997 34.681 186.509 36.804 186.144 38.0287L187.294 38.3713ZM188.787 31.8777C189.507 28.2796 189.879 25.693 189.879 24.16H188.679C188.679 25.5603 188.331 28.0404 187.61 31.6423L188.787 31.8777ZM189.879 24.16C189.879 23.3739 189.721 22.673 189.304 22.161C188.868 21.6255 188.234 21.4 187.519 21.4V22.6C187.977 22.6 188.223 22.7345 188.374 22.919C188.543 23.127 188.679 23.5061 188.679 24.16H189.879ZM187.519 21.4C186.7 21.4 185.979 21.7313 185.374 22.3357L186.223 23.1843C186.632 22.7754 187.058 22.6 187.519 22.6V21.4ZM185.374 22.3357C184.809 22.9013 184.362 23.8797 183.984 25.1487L185.134 25.4913C185.502 24.2536 185.882 23.5254 186.223 23.1843L185.374 22.3357ZM183.984 25.1487C183.602 26.4306 183.104 28.601 182.491 31.6413L183.667 31.8787C184.28 28.839 184.769 26.716 185.134 25.4913L183.984 25.1487ZM196.077 46L195.489 45.8826L195.346 46.6H196.077V46ZM201.757 17.52V16.92H201.265L201.169 17.4026L201.757 17.52ZM214.317 19.44L214.797 19.08L214.317 19.44ZM215.077 25.68L214.489 25.5594L214.489 25.5623L215.077 25.68ZM212.997 30.16L213.384 30.6189L213.39 30.6138L213.396 30.6084L212.997 30.16ZM211.477 31.12L211.244 30.567L210.003 31.0895L211.222 31.6629L211.477 31.12ZM212.597 32.12L212.093 32.446L212.102 32.4585L212.11 32.4706L212.597 32.12ZM212.997 37.64L212.409 37.5223L212.408 37.5242L212.997 37.64ZM210.037 44.32L210.436 44.7685L210.439 44.766L210.037 44.32ZM207.597 45.64L207.444 45.06L207.444 45.06L207.597 45.64ZM202.397 41.2L201.809 41.0823L201.665 41.8H202.397V41.2ZM206.517 40.4L206.062 40.0095L206.06 40.0114L206.517 40.4ZM207.677 37.44L207.09 37.3143L207.09 37.3181L207.677 37.44ZM207.397 33.92L206.973 34.3443L206.981 34.3527L206.99 34.3609L207.397 33.92ZM203.957 33.4V32.8H203.465L203.369 33.2823L203.957 33.4ZM204.837 28.84L204.249 28.7209L204.104 29.44H204.837V28.84ZM208.597 28.12L208.173 27.6957L208.173 27.6957L208.597 28.12ZM209.717 25.68L209.131 25.5525L209.131 25.5543L209.717 25.68ZM209.437 22.8L208.995 23.2054L209.013 23.2247L209.032 23.2423L209.437 22.8ZM206.157 22.32V21.72H205.666L205.569 22.2009L206.157 22.32ZM196.666 46.1174L202.346 17.6374L201.169 17.4026L195.489 45.8826L196.666 46.1174ZM201.757 18.12H209.077V16.92H201.757V18.12ZM209.077 18.12C211.533 18.12 213.044 18.7423 213.837 19.8L214.797 19.08C213.67 17.5777 211.688 16.92 209.077 16.92V18.12ZM213.837 19.8C214.466 20.6385 214.797 21.6926 214.797 23H215.997C215.997 21.4807 215.608 20.1615 214.797 19.08L213.837 19.8ZM214.797 23C214.797 23.6932 214.698 24.544 214.489 25.5594L215.665 25.8006C215.883 24.736 215.997 23.8001 215.997 23H214.797ZM214.489 25.5623C214.072 27.648 213.414 28.9869 212.599 29.7116L213.396 30.6084C214.501 29.6264 215.229 27.9787 215.666 25.7977L214.489 25.5623ZM212.611 29.7011C212.141 30.0965 211.685 30.3813 211.244 30.567L211.71 31.673C212.282 31.432 212.84 31.0768 213.384 30.6189L212.611 29.7011ZM211.222 31.6629C211.566 31.8248 211.856 32.0791 212.093 32.446L213.101 31.794C212.752 31.2542 212.295 30.8419 211.733 30.5771L211.222 31.6629ZM212.11 32.4706C212.501 33.0133 212.717 33.7227 212.717 34.64H213.917C213.917 33.5307 213.653 32.56 213.084 31.7694L212.11 32.4706ZM212.717 34.64C212.717 35.528 212.616 36.4882 212.409 37.5223L213.586 37.7577C213.805 36.6585 213.917 35.6187 213.917 34.64H212.717ZM212.408 37.5242C211.775 40.744 210.82 42.8084 209.636 43.874L210.439 44.766C211.921 43.4316 212.939 41.0426 213.586 37.7558L212.408 37.5242ZM209.639 43.8716C208.987 44.4509 208.257 44.8447 207.444 45.06L207.751 46.22C208.751 45.9553 209.648 45.4691 210.436 44.7684L209.639 43.8716ZM207.444 45.06C206.609 45.2809 205.441 45.4 203.917 45.4V46.6C205.487 46.6 206.772 46.4791 207.751 46.22L207.444 45.06ZM203.917 45.4H196.077V46.6H203.917V45.4ZM202.397 41.8H204.157V40.6H202.397V41.8ZM204.157 41.8C205.349 41.8 206.353 41.5191 206.974 40.7886L206.06 40.0114C205.774 40.3476 205.205 40.6 204.157 40.6V41.8ZM206.973 40.7905C207.556 40.1099 207.967 38.9965 208.265 37.5619L207.09 37.3181C206.801 38.7102 206.438 39.5701 206.062 40.0095L206.973 40.7905ZM208.264 37.5657C208.429 36.7938 208.517 36.1094 208.517 35.52H207.317C207.317 35.9973 207.245 36.5928 207.091 37.3143L208.264 37.5657ZM208.517 35.52C208.517 34.7014 208.33 33.9644 207.804 33.4791L206.99 34.3609C207.158 34.5156 207.317 34.8453 207.317 35.52H208.517ZM207.821 33.4957C207.312 32.9863 206.561 32.8 205.717 32.8V34C206.42 34 206.789 34.1604 206.973 34.3443L207.821 33.4957ZM205.717 32.8H203.957V34H205.717V32.8ZM203.369 33.2823L201.809 41.0823L202.986 41.3177L204.546 33.5177L203.369 33.2823ZM204.837 29.44H206.357V28.24H204.837V29.44ZM206.357 29.44C207.452 29.44 208.384 29.1818 209.021 28.5443L208.173 27.6957C207.85 28.0182 207.289 28.24 206.357 28.24V29.44ZM209.021 28.5443C209.645 27.9204 210.053 26.9771 210.304 25.8057L209.131 25.5543C208.902 26.6229 208.562 27.3063 208.173 27.6957L209.021 28.5443ZM210.303 25.8075C210.441 25.173 210.517 24.6199 210.517 24.16H209.317C209.317 24.5001 209.26 24.9603 209.131 25.5525L210.303 25.8075ZM210.517 24.16C210.517 23.4497 210.331 22.8052 209.843 22.3577L209.032 23.2423C209.184 23.3814 209.317 23.6436 209.317 24.16H210.517ZM209.879 22.3946C209.41 21.8826 208.657 21.72 207.837 21.72V22.92C208.565 22.92 208.878 23.0774 208.995 23.2054L209.879 22.3946ZM207.837 21.72H206.157V22.92H207.837V21.72ZM205.569 22.2009L204.249 28.7209L205.425 28.9591L206.745 22.4391L205.569 22.2009Z" fill="black"/>
<mask id="mask1" mask-type="alpha" maskUnits="userSpaceOnUse" x="2" y="11" width="216" height="20">
<rect x="2" y="11" width="216" height="20" fill="#C4C4C4"/>
</mask>
<g mask="url(#mask1)">
<path d="M1.96 47L7.64 18.52H21.52L20.56 23.32H12.04L10.92 28.84H12.8C15.0933 28.84 16.7867 29.3867 17.88 30.48C18.84 31.44 19.32 32.7867 19.32 34.52C19.32 35.72 19.2133 36.8533 19 37.92C18.3067 41.3867 17.2533 43.7733 15.84 45.08C14.4267 46.36 12.4533 47 9.92 47H1.96ZM8.28 42.2H10.2C11.24 42.2 11.9867 41.88 12.44 41.24C12.92 40.5733 13.32 39.4667 13.64 37.92C13.8267 36.9867 13.92 36.24 13.92 35.68C13.92 34.96 13.7733 34.4533 13.48 34.16C13.1333 33.8133 12.5733 33.64 11.8 33.64H9.96L8.28 42.2ZM24.4766 32.76C25.3032 28.7067 25.9966 25.88 26.5566 24.28C27.1432 22.6533 27.9032 21.3733 28.8366 20.44C30.3299 18.9467 32.3166 18.2 34.7966 18.2C37.5432 18.2 39.4366 19.12 40.4766 20.96C41.0899 22.0533 41.3966 23.4267 41.3966 25.08C41.3966 26.76 41.0366 29.32 40.3166 32.76C39.4899 36.8133 38.7832 39.6533 38.1966 41.28C37.6366 42.88 36.8899 44.1467 35.9566 45.08C34.4632 46.5733 32.4766 47.32 29.9966 47.32C27.2499 47.32 25.3566 46.4 24.3166 44.56C23.7032 43.4667 23.3966 42.0933 23.3966 40.44C23.3966 38.76 23.7566 36.2 24.4766 32.76ZM29.8366 32.76C29.1166 36.36 28.7566 38.8933 28.7566 40.36C28.7566 41.8 29.3432 42.52 30.5166 42.52C31.1566 42.52 31.7299 42.2667 32.2366 41.76C32.6899 41.3067 33.1032 40.4533 33.4766 39.2C33.8499 37.9467 34.3432 35.8 34.9566 32.76C35.6766 29.16 36.0366 26.6267 36.0366 25.16C36.0366 23.72 35.4499 23 34.2766 23C33.6366 23 33.0632 23.2533 32.5566 23.76C32.1032 24.2133 31.6899 25.0667 31.3166 26.32C30.9432 27.5733 30.4499 29.72 29.8366 32.76ZM42.835 47L48.515 18.52H55.755C58.0483 18.52 59.7417 19.0667 60.835 20.16C61.795 21.12 62.275 22.4667 62.275 24.2C62.275 25.4 62.1683 26.5333 61.955 27.6C61.2617 31.0667 60.2083 33.4533 58.795 34.76C57.3817 36.04 55.4083 36.68 52.875 36.68H50.235L48.195 47H42.835ZM51.195 31.88H53.155C54.195 31.88 54.9417 31.56 55.395 30.92C55.875 30.2533 56.275 29.1467 56.595 27.6C56.7817 26.6667 56.875 25.92 56.875 25.36C56.875 24.6667 56.715 24.16 56.395 23.84C56.075 23.4933 55.5283 23.32 54.755 23.32H52.915L51.195 31.88ZM63.3116 47L68.9916 18.52H74.3516L71.4716 32.84L79.9116 18.52H84.4316L78.7516 47H73.3916L76.2316 32.72L67.9516 47H63.3116ZM85.8809 40.44C85.8809 38.76 86.2409 36.2 86.9609 32.76C87.7876 28.7067 88.4809 25.88 89.0409 24.28C89.6276 22.6533 90.3876 21.3733 91.3209 20.44C92.8143 18.9467 94.7876 18.2 97.2409 18.2C99.6409 18.2 101.401 18.8933 102.521 20.28C103.428 21.4 103.881 22.8667 103.881 24.68C103.881 25.4267 103.854 26.0267 103.801 26.48H98.4409C98.4943 26.08 98.5209 25.5867 98.5209 25C98.5209 23.6667 97.9476 23 96.8009 23C96.1343 23 95.5476 23.2533 95.0409 23.76C94.5876 24.2133 94.1743 25.0667 93.8009 26.32C93.4276 27.5733 92.9343 29.72 92.3209 32.76C91.6009 36.36 91.2409 38.8933 91.2409 40.36C91.2409 41.8 91.8143 42.52 92.9609 42.52C93.8143 42.52 94.4943 42.16 95.0009 41.44C95.4276 40.8267 95.7609 40.0133 96.0009 39H101.441C100.828 41.9333 99.7343 44.0933 98.1609 45.48C96.7743 46.7067 94.8809 47.32 92.4809 47.32C89.7343 47.32 87.8409 46.4 86.8009 44.56C86.1876 43.4667 85.8809 42.0933 85.8809 40.44ZM113.374 47L119.054 18.52H134.334L128.654 47H123.294L128.014 23.32H123.454L118.734 47H113.374ZM136.867 32.76C137.694 28.7067 138.387 25.88 138.947 24.28C139.534 22.6533 140.294 21.3733 141.227 20.44C142.721 18.9467 144.707 18.2 147.187 18.2C149.934 18.2 151.827 19.12 152.867 20.96C153.481 22.0533 153.787 23.4267 153.787 25.08C153.787 26.76 153.427 29.32 152.707 32.76C151.881 36.8133 151.174 39.6533 150.587 41.28C150.027 42.88 149.281 44.1467 148.347 45.08C146.854 46.5733 144.867 47.32 142.387 47.32C139.641 47.32 137.747 46.4 136.707 44.56C136.094 43.4667 135.787 42.0933 135.787 40.44C135.787 38.76 136.147 36.2 136.867 32.76ZM142.227 32.76C141.507 36.36 141.147 38.8933 141.147 40.36C141.147 41.8 141.734 42.52 142.907 42.52C143.547 42.52 144.121 42.2667 144.627 41.76C145.081 41.3067 145.494 40.4533 145.867 39.2C146.241 37.9467 146.734 35.8 147.347 32.76C148.067 29.16 148.427 26.6267 148.427 25.16C148.427 23.72 147.841 23 146.667 23C146.027 23 145.454 23.2533 144.947 23.76C144.494 24.2133 144.081 25.0667 143.707 26.32C143.334 27.5733 142.841 29.72 142.227 32.76ZM155.226 47L160.906 18.52H176.186L170.506 47H165.146L169.866 23.32H165.306L160.586 47H155.226ZM178.719 32.76C179.545 28.7067 180.239 25.88 180.799 24.28C181.385 22.6533 182.145 21.3733 183.079 20.44C184.572 18.9467 186.559 18.2 189.039 18.2C191.785 18.2 193.679 19.12 194.719 20.96C195.332 22.0533 195.639 23.4267 195.639 25.08C195.639 26.76 195.279 29.32 194.559 32.76C193.732 36.8133 193.025 39.6533 192.439 41.28C191.879 42.88 191.132 44.1467 190.199 45.08C188.705 46.5733 186.719 47.32 184.239 47.32C181.492 47.32 179.599 46.4 178.559 44.56C177.945 43.4667 177.639 42.0933 177.639 40.44C177.639 38.76 177.999 36.2 178.719 32.76ZM184.079 32.76C183.359 36.36 182.999 38.8933 182.999 40.36C182.999 41.8 183.585 42.52 184.759 42.52C185.399 42.52 185.972 42.2667 186.479 41.76C186.932 41.3067 187.345 40.4533 187.719 39.2C188.092 37.9467 188.585 35.8 189.199 32.76C189.919 29.16 190.279 26.6267 190.279 25.16C190.279 23.72 189.692 23 188.519 23C187.879 23 187.305 23.2533 186.799 23.76C186.345 24.2133 185.932 25.0667 185.559 26.32C185.185 27.5733 184.692 29.72 184.079 32.76ZM197.077 47L202.757 18.52H210.077C212.611 18.52 214.357 19.16 215.317 20.44C216.037 21.4 216.397 22.5867 216.397 24C216.397 24.7467 216.291 25.64 216.077 26.68C215.651 28.8133 214.957 30.3067 213.997 31.16C213.491 31.5867 212.984 31.9067 212.477 32.12C212.931 32.3333 213.304 32.6667 213.597 33.12C214.077 33.7867 214.317 34.6267 214.317 35.64C214.317 36.5733 214.211 37.5733 213.997 38.64C213.357 41.8933 212.371 44.12 211.037 45.32C210.317 45.96 209.504 46.4 208.597 46.64C207.691 46.88 206.464 47 204.917 47H197.077ZM203.397 42.2H205.157C206.277 42.2 207.064 41.9333 207.517 41.4C207.997 40.84 208.384 39.8533 208.677 38.44C208.837 37.6933 208.917 37.0533 208.917 36.52C208.917 35.7733 208.744 35.24 208.397 34.92C208.051 34.5733 207.491 34.4 206.717 34.4H204.957L203.397 42.2ZM205.837 29.84H207.357C208.371 29.84 209.117 29.6 209.597 29.12C210.104 28.6133 210.477 27.8 210.717 26.68C210.851 26.0667 210.917 25.56 210.917 25.16C210.917 24.5467 210.757 24.0933 210.437 23.8C210.144 23.48 209.611 23.32 208.837 23.32H207.157L205.837 29.84Z" fill="black"/>
</g>
</svg>
