<svg width="576" height="63" viewBox="0 0 576 63" fill="none" xmlns="http://www.w3.org/2000/svg">
<path d="M4.1 33.048L4.68728 33.1709L4.6879 33.1679L4.1 33.048ZM6.284 24.144L5.71956 23.9404L5.71769 23.9458L6.284 24.144ZM8.678 20.112L8.25374 19.6877H8.25374L8.678 20.112ZM20.438 19.944L19.9712 20.321L19.9717 20.3215L20.438 19.944ZM21.782 26.454V27.054H22.3155L22.3779 26.5241L21.782 26.454ZM16.154 26.454L15.5593 26.3747L15.4687 27.054H16.154V26.454ZM12.584 23.598L12.1597 23.1737H12.1597L12.584 23.598ZM9.728 33.048L9.13985 32.9293L9.13965 32.9303L9.728 33.048ZM12.542 42.162L13.0327 42.5073L13.0345 42.5046L12.542 42.162ZM13.592 39.6V39H13.1175L13.0082 39.4617L13.592 39.6ZM19.304 39.6L19.8913 39.7228L20.0424 39H19.304V39.6ZM15.86 46.404L15.4633 45.9539L15.4625 45.9546L15.86 46.404ZM3.932 45.438L3.40871 45.7316L3.40966 45.7332L3.932 45.438ZM3.566 41.112C3.566 39.4135 3.93265 36.7763 4.68727 33.1709L3.51273 32.9251C2.75535 36.5437 2.366 39.2825 2.366 41.112H3.566ZM4.6879 33.1679C5.55598 28.9115 6.27722 25.9796 6.85032 24.3422L5.71769 23.9458C5.11478 25.6684 4.38002 28.6725 3.5121 32.9281L4.6879 33.1679ZM6.84841 24.3476C7.44338 22.6979 8.20083 21.4377 9.10226 20.5363L8.25374 19.6877C7.19517 20.7463 6.35662 22.1741 5.71959 23.9404L6.84841 24.3476ZM9.10226 20.5363C10.5395 19.099 12.4493 18.36 14.894 18.36V17.16C12.1867 17.16 9.95251 17.989 8.25374 19.6877L9.10226 20.5363ZM14.894 18.36C17.2997 18.36 18.9455 19.051 19.9712 20.321L20.9048 19.567C19.5785 17.925 17.5283 17.16 14.894 17.16V18.36ZM19.9717 20.3215C20.8168 21.3655 21.266 22.7611 21.266 24.564H22.466C22.466 22.5589 21.9632 20.8745 20.9043 19.5665L19.9717 20.3215ZM21.266 24.564C21.266 25.3373 21.2382 25.9411 21.1861 26.3839L22.3779 26.5241C22.4378 26.0149 22.466 25.3587 22.466 24.564H21.266ZM21.782 25.854H16.154V27.054H21.782V25.854ZM16.7487 26.5333C16.8094 26.0782 16.838 25.5318 16.838 24.9H15.638C15.638 25.5002 15.6106 25.9898 15.5593 26.3747L16.7487 26.5333ZM16.838 24.9C16.838 24.1278 16.6739 23.4367 16.2414 22.9338C15.794 22.4135 15.1521 22.2 14.432 22.2V23.4C14.9159 23.4 15.177 23.5364 15.3316 23.7162C15.5011 23.9133 15.638 24.2722 15.638 24.9H16.838ZM14.432 22.2C13.5602 22.2 12.795 22.5385 12.1597 23.1737L13.0083 24.0223C13.4371 23.5935 13.9038 23.4 14.432 23.4V22.2ZM12.1597 23.1737C11.5715 23.762 11.1036 24.7831 10.707 26.1147L11.857 26.4573C12.2444 25.1569 12.6445 24.386 13.0083 24.0223L12.1597 23.1737ZM10.707 26.1147C10.3065 27.4593 9.78392 29.737 9.13985 32.9293L10.3161 33.1667C10.9601 29.975 11.4735 27.7447 11.857 26.4573L10.707 26.1147ZM9.13965 32.9303C8.38403 36.7084 7.994 39.4217 7.994 41.028H9.194C9.194 39.5543 9.55997 36.9476 10.3163 33.1657L9.13965 32.9303ZM7.994 41.028C7.994 41.8476 8.15451 42.5733 8.57613 43.1028C9.01853 43.6583 9.66461 43.896 10.4 43.896V42.696C9.93139 42.696 9.67447 42.5557 9.51487 42.3552C9.33449 42.1287 9.194 41.7204 9.194 41.028H7.994ZM10.4 43.896C11.4985 43.896 12.3925 43.417 13.0327 42.5073L12.0513 41.8167C11.6275 42.419 11.0935 42.696 10.4 42.696V43.896ZM13.0345 42.5046C13.5389 41.7797 13.9128 40.8488 14.1758 39.7383L13.0082 39.4617C12.7672 40.4792 12.4412 41.2563 12.0495 41.8194L13.0345 42.5046ZM13.592 40.2H19.304V39H13.592V40.2ZM18.7167 39.4772C18.0882 42.483 16.9843 44.6133 15.4633 45.9539L16.2567 46.8541C18.0397 45.2826 19.2318 42.877 19.8913 39.7228L18.7167 39.4772ZM15.4625 45.9546C14.1454 47.1197 12.314 47.736 9.896 47.736V48.936C12.518 48.936 14.6626 48.2643 16.2575 46.8534L15.4625 45.9546ZM9.896 47.736C7.15356 47.736 5.4076 46.8293 4.45434 45.1428L3.40966 45.7332C4.6404 47.9107 6.87044 48.936 9.896 48.936V47.736ZM4.45529 45.1444C3.87511 44.1102 3.566 42.7769 3.566 41.112H2.366C2.366 42.9191 2.70089 44.4698 3.40871 45.7316L4.45529 45.1444ZM22.9662 48L22.3778 47.8826L22.2347 48.6H22.9662V48ZM28.9302 18.096V17.496H28.438L28.3418 17.9786L28.9302 18.096ZM42.9162 26.664L42.3284 26.5434L42.3279 26.5463L42.9162 26.664ZM40.7322 31.368L41.1187 31.8269L41.1248 31.8218L41.1308 31.8164L40.7322 31.368ZM39.1362 32.376L38.9034 31.823L37.6624 32.3455L38.8807 32.9189L39.1362 32.376ZM40.3122 33.426L39.8085 33.7519L39.8166 33.7645L39.8253 33.7766L40.3122 33.426ZM40.7322 39.222L40.1439 39.1043L40.1435 39.1062L40.7322 39.222ZM37.6242 46.236L38.0228 46.6845L38.0256 46.682L37.6242 46.236ZM35.0622 47.622L34.9087 47.042L35.0622 47.622ZM29.6022 42.96L29.0139 42.8423L28.8703 43.56H29.6022V42.96ZM33.9282 42.12L33.4726 41.7295L33.471 41.7314L33.9282 42.12ZM35.1462 39.012L34.5595 38.8863L34.5587 38.8901L35.1462 39.012ZM34.8522 35.316L34.4279 35.7403L34.4364 35.7487L34.4452 35.7569L34.8522 35.316ZM31.2402 34.77V34.17H30.7483L30.6519 34.6523L31.2402 34.77ZM32.1642 29.982L31.5761 29.8629L31.4306 30.582H32.1642V29.982ZM36.1122 29.226L35.6879 28.8017L36.1122 29.226ZM37.2882 26.664L36.7019 26.5365L36.7015 26.5383L37.2882 26.664ZM36.9942 23.64L36.5519 24.0454L36.5695 24.0647L36.5888 24.0823L36.9942 23.64ZM33.5502 23.136V22.536H33.0595L32.9621 23.0169L33.5502 23.136ZM23.5546 48.1174L29.5186 18.2134L28.3418 17.9786L22.3778 47.8826L23.5546 48.1174ZM28.9302 18.696H36.6162V17.496H28.9302V18.696ZM36.6162 18.696C39.199 18.696 40.7969 19.3503 41.6382 20.472L42.5982 19.752C41.4235 18.1857 39.3534 17.496 36.6162 17.496V18.696ZM41.6382 20.472C42.3031 21.3585 42.6522 22.4719 42.6522 23.85H43.8522C43.8522 22.26 43.4453 20.8815 42.5982 19.752L41.6382 20.472ZM42.6522 23.85C42.6522 24.5805 42.5474 25.476 42.3284 26.5434L43.504 26.7846C43.733 25.668 43.8522 24.6875 43.8522 23.85H42.6522ZM42.3279 26.5463C41.8894 28.7387 41.1968 30.1523 40.3336 30.9196L41.1308 31.8164C42.2836 30.7917 43.047 29.0693 43.5046 26.7817L42.3279 26.5463ZM40.3457 30.9091C39.8508 31.3258 39.3697 31.6267 38.9034 31.823L39.369 32.929C39.9667 32.6773 40.5496 32.3061 41.1187 31.8269L40.3457 30.9091ZM38.8807 32.9189C39.2474 33.0915 39.5564 33.3624 39.8085 33.7519L40.8159 33.1C40.452 32.5376 39.977 32.1085 39.3917 31.8331L38.8807 32.9189ZM39.8253 33.7766C40.2401 34.3527 40.4682 35.104 40.4682 36.072H41.6682C41.6682 34.912 41.3923 33.8993 40.7991 33.0754L39.8253 33.7766ZM40.4682 36.072C40.4682 37.0066 40.3613 38.0169 40.1439 39.1043L41.3206 39.3397C41.5511 38.1871 41.6682 37.0974 41.6682 36.072H40.4682ZM40.1435 39.1062C39.4781 42.4887 38.4735 44.6644 37.2228 45.79L38.0256 46.682C39.5749 45.2876 40.6423 42.7873 41.3209 39.3378L40.1435 39.1062ZM37.2256 45.7876C36.5379 46.3989 35.7673 46.8147 34.9087 47.042L35.2157 48.202C36.2611 47.9253 37.1985 47.4171 38.0228 46.6844L37.2256 45.7876ZM34.9087 47.042C34.0286 47.2749 32.7992 47.4 31.1982 47.4V48.6C32.8452 48.6 34.1918 48.4731 35.2157 48.202L34.9087 47.042ZM31.1982 47.4H22.9662V48.6H31.1982V47.4ZM29.6022 43.56H31.4502V42.36H29.6022V43.56ZM31.4502 43.56C32.6979 43.56 33.7418 43.2658 34.3854 42.5086L33.471 41.7314C33.1626 42.0942 32.5545 42.36 31.4502 42.36V43.56ZM34.3838 42.5105C34.9911 41.8019 35.4213 40.6391 35.7337 39.1339L34.5587 38.8901C34.2551 40.3529 33.8733 41.2621 33.4727 41.7295L34.3838 42.5105ZM35.7329 39.1377C35.9063 38.3285 35.9982 37.612 35.9982 36.996H34.7982C34.7982 37.5 34.7221 38.1275 34.5595 38.8863L35.7329 39.1377ZM35.9982 36.996C35.9982 36.14 35.8022 35.3764 35.2592 34.8751L34.4452 35.7569C34.6302 35.9276 34.7982 36.284 34.7982 36.996H35.9982ZM35.2765 34.8917C34.7497 34.365 33.9704 34.17 33.0882 34.17V35.37C33.83 35.37 34.2267 35.539 34.4279 35.7403L35.2765 34.8917ZM33.0882 34.17H31.2402V35.37H33.0882V34.17ZM30.6519 34.6523L29.0139 42.8423L30.1906 43.0777L31.8286 34.8877L30.6519 34.6523ZM32.1642 30.582H33.7602V29.382H32.1642V30.582ZM33.7602 30.582C34.9057 30.582 35.8749 30.3118 36.5365 29.6503L35.6879 28.8017C35.3415 29.1482 34.7427 29.382 33.7602 29.382V30.582ZM36.5365 29.6503C37.1857 29.0011 37.6119 28.0171 37.8749 26.7897L36.7015 26.5383C36.4605 27.6629 36.1027 28.3869 35.6879 28.8017L36.5365 29.6503ZM37.8745 26.7915C38.0191 26.1264 38.0982 25.5479 38.0982 25.068H36.8982C36.8982 25.4281 36.8373 25.9136 36.7019 26.5365L37.8745 26.7915ZM38.0982 25.068C38.0982 24.327 37.9038 23.6599 37.3996 23.1977L36.5888 24.0823C36.7566 24.2361 36.8982 24.521 36.8982 25.068H38.0982ZM37.4365 23.2346C36.9525 22.7066 36.1722 22.536 35.3142 22.536V23.736C36.0802 23.736 36.4199 23.9014 36.5519 24.0454L37.4365 23.2346ZM35.3142 22.536H33.5502V23.736H35.3142V22.536ZM32.9621 23.0169L31.5761 29.8629L32.7523 30.1011L34.1383 23.2551L32.9621 23.0169ZM42.7495 48L42.2219 47.7143L41.7424 48.6H42.7495V48ZM49.8895 34.812L50.4171 35.0977L50.6685 34.6335L50.2401 34.3251L49.8895 34.812ZM48.1675 27.21L48.7543 27.3357L48.756 27.3268L48.1675 27.21ZM51.2755 19.902L50.8797 19.451L50.8752 19.4551L51.2755 19.902ZM65.9335 18.096L66.5218 18.2141L66.666 17.496H65.9335V18.096ZM59.9275 48V48.6H60.419L60.5158 48.1181L59.9275 48ZM54.2995 48L53.7113 47.8815L53.5666 48.6H54.2995V48ZM56.6935 36.114L57.2817 36.2325L57.4264 35.514H56.6935V36.114ZM55.0555 36.114V35.514H54.6899L54.5223 35.8389L55.0555 36.114ZM48.9235 48V48.6H49.2891L49.4567 48.2751L48.9235 48ZM53.7955 27.21L53.208 27.0881L53.2072 27.0923L53.7955 27.21ZM54.0475 30.864L53.6233 31.2883L53.6325 31.2975L53.6421 31.3063L54.0475 30.864ZM57.7015 31.326V31.926H58.1959L58.2904 31.4408L57.7015 31.326ZM59.2975 23.136L59.8864 23.2508L60.0257 22.536H59.2975V23.136ZM54.9295 24.06L54.4547 23.6931L54.4494 23.7L54.4443 23.7071L54.9295 24.06ZM43.2771 48.2857L50.4171 35.0977L49.3619 34.5263L42.2219 47.7143L43.2771 48.2857ZM50.2401 34.3251C49.04 33.461 48.3895 32.0614 48.3895 29.982H47.1895C47.1895 32.3266 47.9391 34.147 49.5389 35.2989L50.2401 34.3251ZM48.3895 29.982C48.3895 29.373 48.5053 28.4973 48.7542 27.3357L47.5808 27.0843C47.3257 28.2747 47.1895 29.247 47.1895 29.982H48.3895ZM48.756 27.3268C49.481 23.6739 50.4888 21.4124 51.6759 20.3489L50.8752 19.4551C49.3743 20.7996 48.31 23.4101 47.579 27.0932L48.756 27.3268ZM51.6713 20.353C52.8801 19.2922 54.9267 18.696 57.9535 18.696V17.496C54.8203 17.496 52.415 18.1038 50.8798 19.451L51.6713 20.353ZM57.9535 18.696H65.9335V17.496H57.9535V18.696ZM65.3453 17.9779L59.3393 47.8819L60.5158 48.1181L66.5218 18.2141L65.3453 17.9779ZM59.9275 47.4H54.2995V48.6H59.9275V47.4ZM54.8877 48.1185L57.2817 36.2325L56.1053 35.9955L53.7113 47.8815L54.8877 48.1185ZM56.6935 35.514H55.0555V36.714H56.6935V35.514ZM54.5223 35.8389L48.3903 47.7249L49.4567 48.2751L55.5887 36.3891L54.5223 35.8389ZM48.9235 47.4H42.7495V48.6H48.9235V47.4ZM53.2072 27.0923C53.0365 27.9456 52.9435 28.649 52.9435 29.184H54.1435C54.1435 28.767 54.2185 28.1544 54.3839 27.3277L53.2072 27.0923ZM52.9435 29.184C52.9435 30.0289 53.1204 30.7854 53.6233 31.2883L54.4718 30.4397C54.3026 30.2706 54.1435 29.9071 54.1435 29.184H52.9435ZM53.6421 31.3063C54.145 31.7673 54.8929 31.926 55.7275 31.926V30.726C54.9941 30.726 54.622 30.5767 54.453 30.4217L53.6421 31.3063ZM55.7275 31.926H57.7015V30.726H55.7275V31.926ZM58.2904 31.4408L59.8864 23.2508L58.7086 23.0212L57.1126 31.2112L58.2904 31.4408ZM59.2975 22.536H57.2815V23.736H59.2975V22.536ZM57.2815 22.536C56.0829 22.536 55.0853 22.8771 54.4547 23.6931L55.4043 24.4269C55.7257 24.0109 56.2961 23.736 57.2815 23.736V22.536ZM54.4443 23.7071C53.9176 24.4312 53.5196 25.5871 53.208 27.0881L54.383 27.3319C54.6875 25.8649 55.0454 24.9208 55.4148 24.4129L54.4443 23.7071ZM68.6862 46.614L68.2619 47.0383L68.6862 46.614ZM67.0482 39.642V39.042H66.5563L66.4598 39.5243L67.0482 39.642ZM72.7602 39.642L73.3485 39.7597L73.492 39.042H72.7602V39.642ZM73.1382 42.834L73.5624 42.4097L73.1382 42.834ZM76.3302 42.582L75.894 42.17L75.887 42.1774L75.8803 42.185L76.3302 42.582ZM77.6322 39.012L78.2195 39.1347L78.2213 39.1261L78.2228 39.1175L77.6322 39.012ZM77.4642 35.736L77.9442 35.376L77.9385 35.3685L77.9327 35.3612L77.4642 35.736ZM73.5582 35.106L72.9706 34.9844L72.8213 35.706H73.5582V35.106ZM74.5662 30.234V29.634H74.0776L73.9786 30.1124L74.5662 30.234ZM79.6482 26.748L79.0598 26.6303L79.059 26.6347L79.6482 26.748ZM79.4382 23.304L79.0139 23.7283L79.4382 23.304ZM76.2042 23.598L76.6513 23.9981L76.6573 23.9914L76.6631 23.9845L76.2042 23.598ZM75.0702 26.496V27.096H75.562L75.6585 26.6137L75.0702 26.496ZM69.4842 26.496L68.896 26.3773L68.751 27.096H69.4842V26.496ZM72.6342 19.734L73.0365 20.1791L73.0408 20.1752L72.6342 19.734ZM83.9322 19.44L83.5079 19.8643L83.9322 19.44ZM85.2342 26.622L84.6458 26.5043L84.6453 26.5071L85.2342 26.622ZM84.5202 29.226L83.9687 28.9896L84.5202 29.226ZM83.3862 30.99L82.9306 30.5995L82.9179 30.6144L82.9062 30.63L83.3862 30.99ZM81.2862 32.712L80.9775 32.1975L80.1564 32.6902L80.9578 33.2142L81.2862 32.712ZM83.1342 39.516L82.5458 39.3983L82.5455 39.3999L83.1342 39.516ZM81.9582 43.8L81.4113 43.553L81.408 43.5605L81.4048 43.568L81.9582 43.8ZM80.2362 46.278L80.6604 46.7023L80.2362 46.278ZM69.1104 46.1897C68.0455 45.1248 67.4802 43.6269 67.4802 41.616H66.2802C66.2802 43.8611 66.9188 45.6952 68.2619 47.0383L69.1104 46.1897ZM67.4802 41.616C67.4802 40.8876 67.5343 40.2708 67.6365 39.7597L66.4598 39.5243C66.338 40.1332 66.2802 40.8324 66.2802 41.616H67.4802ZM67.0482 40.242H72.7602V39.042H67.0482V40.242ZM72.1718 39.5243C72.0541 40.1131 71.9922 40.6575 71.9922 41.154H73.1922C73.1922 40.7545 73.2423 40.2909 73.3485 39.7597L72.1718 39.5243ZM71.9922 41.154C71.9922 41.9948 72.1939 42.7383 72.7139 43.2583L73.5624 42.4097C73.3544 42.2017 73.1922 41.8252 73.1922 41.154H71.9922ZM72.7139 43.2583C73.1785 43.7229 73.8387 43.896 74.5662 43.896V42.696C74.0056 42.696 73.7138 42.5611 73.5624 42.4097L72.7139 43.2583ZM74.5662 43.896C75.4583 43.896 76.2243 43.6088 76.7801 42.979L75.8803 42.185C75.596 42.5072 75.186 42.696 74.5662 42.696V43.896ZM76.7664 42.994C77.0893 42.652 77.3507 42.1358 77.5763 41.5171C77.8068 40.8851 78.0202 40.0882 78.2195 39.1347L77.0448 38.8893C76.8521 39.8118 76.6525 40.5479 76.449 41.1059C76.2406 41.6772 76.047 42.008 75.894 42.17L76.7664 42.994ZM78.2228 39.1175C78.3646 38.3237 78.4422 37.68 78.4422 37.206H77.2422C77.2422 37.572 77.1798 38.1323 77.0415 38.9065L78.2228 39.1175ZM78.4422 37.206C78.4422 36.4974 78.3057 35.8581 77.9442 35.376L76.9842 36.096C77.1266 36.2859 77.2422 36.6266 77.2422 37.206H78.4422ZM77.9327 35.3612C77.4418 34.7476 76.6867 34.506 75.8262 34.506V35.706C76.4776 35.706 76.8145 35.8844 76.9956 36.1108L77.9327 35.3612ZM75.8262 34.506H73.5582V35.706H75.8262V34.506ZM74.1457 35.2276L75.1537 30.3556L73.9786 30.1124L72.9706 34.9844L74.1457 35.2276ZM74.5662 30.834H76.7082V29.634H74.5662V30.834ZM76.7082 30.834C77.6323 30.834 78.4326 30.5761 79.0224 29.9863L78.1739 29.1377C77.8678 29.4439 77.408 29.634 76.7082 29.634V30.834ZM79.0224 29.9863C79.3212 29.6875 79.5506 29.2549 79.7378 28.7533C79.9286 28.2419 80.0938 27.6081 80.2374 26.8613L79.059 26.6347C78.9226 27.3439 78.7727 27.9071 78.6135 28.3337C78.4507 28.7701 78.2951 29.0165 78.1739 29.1377L79.0224 29.9863ZM80.2365 26.8657C80.4082 26.0073 80.5002 25.2779 80.5002 24.69H79.3002C79.3002 25.1661 79.2241 25.8087 79.0598 26.6303L80.2365 26.8657ZM80.5002 24.69C80.5002 23.9815 80.3226 23.3399 79.8624 22.8797L79.0139 23.7283C79.1697 23.8841 79.3002 24.1665 79.3002 24.69H80.5002ZM79.8624 22.8797C79.394 22.4113 78.7827 22.2 78.0942 22.2V23.4C78.5256 23.4 78.8103 23.5247 79.0139 23.7283L79.8624 22.8797ZM78.0942 22.2C77.1381 22.2 76.3269 22.5208 75.7452 23.2115L76.6631 23.9845C76.9775 23.6112 77.4262 23.4 78.0942 23.4V22.2ZM75.757 23.1979C75.1678 23.8564 74.7656 24.9591 74.4818 26.3783L75.6585 26.6137C75.9347 25.2329 76.2885 24.4036 76.6513 23.9981L75.757 23.1979ZM75.0702 25.896H69.4842V27.096H75.0702V25.896ZM70.0723 26.6147C70.7062 23.473 71.7204 21.3687 73.0365 20.1791L72.2318 19.2889C70.636 20.7313 69.5502 23.135 68.896 26.3773L70.0723 26.6147ZM73.0408 20.1752C74.3258 18.9909 76.1645 18.36 78.6402 18.36V17.16C75.9638 17.16 73.7985 17.8451 72.2276 19.2928L73.0408 20.1752ZM78.6402 18.36C80.9704 18.36 82.5472 18.9036 83.5079 19.8643L84.3564 19.0157C83.0771 17.7364 81.1259 17.16 78.6402 17.16V18.36ZM83.5079 19.8643C84.4832 20.8396 84.9702 22.0292 84.9702 23.472H86.1702C86.1702 21.7228 85.5651 20.2244 84.3564 19.0157L83.5079 19.8643ZM84.9702 23.472C84.9702 24.4066 84.8633 25.4169 84.6458 26.5043L85.8225 26.7397C86.053 25.5871 86.1702 24.4974 86.1702 23.472H84.9702ZM84.6453 26.5071C84.4239 27.6416 84.1955 28.4604 83.9687 28.9896L85.0716 29.4624C85.3488 28.8156 85.5964 27.8984 85.8231 26.7369L84.6453 26.5071ZM83.9687 28.9896C83.7451 29.5114 83.403 30.0484 82.9306 30.5995L83.8417 31.3805C84.3773 30.7556 84.7912 30.1166 85.0716 29.4624L83.9687 28.9896ZM82.9062 30.63C82.553 31.1009 81.9277 31.6273 80.9775 32.1975L81.5949 33.2265C82.6046 32.6207 83.3793 31.9991 83.8662 31.35L82.9062 30.63ZM80.9578 33.2142C82.2291 34.0454 82.8702 35.2616 82.8702 36.954H84.0702C84.0702 34.8944 83.2552 33.2826 81.6145 32.2098L80.9578 33.2142ZM82.8702 36.954C82.8702 37.4811 82.7679 38.2881 82.5458 39.3983L83.7225 39.6337C83.9485 38.5039 84.0702 37.6029 84.0702 36.954H82.8702ZM82.5455 39.3999C82.1548 41.3816 81.7731 42.7519 81.4113 43.553L82.505 44.047C82.9272 43.1121 83.3296 41.6264 83.7228 39.6321L82.5455 39.3999ZM81.4048 43.568C81.0758 44.3525 80.5504 45.1152 79.8119 45.8537L80.6604 46.7023C81.4899 45.8728 82.1125 44.9835 82.5115 44.032L81.4048 43.568ZM79.8119 45.8537C78.5867 47.0789 76.7731 47.736 74.2722 47.736V48.936C76.9792 48.936 79.1416 48.2211 80.6604 46.7023L79.8119 45.8537ZM74.2722 47.736C71.7651 47.736 70.0951 47.1744 69.1104 46.1897L68.2619 47.0383C69.5732 48.3496 71.6272 48.936 74.2722 48.936V47.736ZM105.613 48V48.6H106.241L106.213 47.9731L105.613 48ZM99.9433 48L99.3434 47.9948L99.3381 48.6H99.9433V48ZM99.9853 43.17L100.585 43.1752L100.591 42.57H99.9853V43.17ZM93.4333 43.17V42.57H93.0271L92.8763 42.9472L93.4333 43.17ZM91.5013 48V48.6H91.9076L92.0584 48.2228L91.5013 48ZM85.4533 48L84.9049 47.7566L84.5306 48.6H85.4533V48ZM98.7253 18.096V17.496H98.3352L98.1769 17.8526L98.7253 18.096ZM104.269 18.096L104.869 18.0691L104.843 17.496H104.269V18.096ZM99.9013 38.13V38.73H100.499L100.501 38.1321L99.9013 38.13ZM99.9433 26.412L100.543 26.4142L99.3831 26.1972L99.9433 26.412ZM95.4493 38.13L94.8891 37.9151L94.5766 38.73H95.4493V38.13ZM105.613 47.4H99.9433V48.6H105.613V47.4ZM100.543 48.0052L100.585 43.1752L99.3854 43.1648L99.3434 47.9948L100.543 48.0052ZM99.9853 42.57H93.4333V43.77H99.9853V42.57ZM92.8763 42.9472L90.9443 47.7772L92.0584 48.2228L93.9904 43.3928L92.8763 42.9472ZM91.5013 47.4H85.4533V48.6H91.5013V47.4ZM86.0018 48.2434L99.2738 18.3394L98.1769 17.8526L84.9049 47.7566L86.0018 48.2434ZM98.7253 18.696H104.269V17.496H98.7253V18.696ZM103.67 18.1229L105.014 48.0269L106.213 47.9731L104.869 18.0691L103.67 18.1229ZM100.501 38.1321L100.543 26.4142L99.3433 26.4098L99.3014 38.1278L100.501 38.1321ZM99.3831 26.1972L94.8891 37.9151L96.0096 38.3448L100.504 26.6269L99.3831 26.1972ZM95.4493 38.73H99.9013V37.53H95.4493V38.73ZM111.467 48L110.879 47.8827L110.736 48.6H111.467V48ZM116.423 23.136L117.012 23.2533L117.155 22.536H116.423V23.136ZM111.635 23.136L111.047 23.0183L110.904 23.736H111.635V23.136ZM112.643 18.096V17.496H112.152L112.055 17.9783L112.643 18.096ZM127.847 18.096L128.436 18.2137L128.579 17.496H127.847V18.096ZM126.839 23.136V23.736H127.331L127.428 23.2537L126.839 23.136ZM122.051 23.136V22.536H121.559L121.463 23.0187L122.051 23.136ZM117.095 48V48.6H117.588L117.684 48.1173L117.095 48ZM112.056 48.1173L117.012 23.2533L115.835 23.0187L110.879 47.8827L112.056 48.1173ZM116.423 22.536H111.635V23.736H116.423V22.536ZM112.224 23.2537L113.232 18.2137L112.055 17.9783L111.047 23.0183L112.224 23.2537ZM112.643 18.696H127.847V17.496H112.643V18.696ZM127.259 17.9783L126.251 23.0183L127.428 23.2537L128.436 18.2137L127.259 17.9783ZM126.839 22.536H122.051V23.736H126.839V22.536ZM121.463 23.0187L116.507 47.8827L117.684 48.1173L122.64 23.2533L121.463 23.0187ZM117.095 47.4H111.467V48.6H117.095V47.4ZM126.982 48L126.393 47.8826L126.25 48.6H126.982V48ZM132.946 18.096V17.496H132.454L132.357 17.9786L132.946 18.096ZM138.574 18.096L139.162 18.2145L139.307 17.496H138.574V18.096ZM136.39 28.932L135.802 28.8135L135.657 29.532H136.39V28.932ZM144.874 38.466L144.285 38.3483L144.874 38.466ZM141.556 45.984L141.959 46.4287L141.963 46.4246L141.556 45.984ZM133.618 42.96L133.029 42.8444L132.889 43.56H133.618V42.96ZM137.986 41.952L137.499 41.6014L137.496 41.6052L137.986 41.952ZM139.246 38.466L139.833 38.5876L139.834 38.5837L139.246 38.466ZM139.036 34.518L138.595 34.925L138.603 34.9338L138.612 34.9423L139.036 34.518ZM135.382 33.972V33.372H134.888L134.793 33.8564L135.382 33.972ZM127.57 48.1174L133.534 18.2134L132.357 17.9786L126.393 47.8826L127.57 48.1174ZM132.946 18.696H138.574V17.496H132.946V18.696ZM137.986 17.9775L135.802 28.8135L136.978 29.0505L139.162 18.2145L137.986 17.9775ZM136.39 29.532H138.364V28.332H136.39V29.532ZM138.364 29.532C140.689 29.532 142.283 30.0872 143.274 31.0783L144.122 30.2297C142.817 28.9248 140.855 28.332 138.364 28.332V29.532ZM143.274 31.0783C144.14 31.9448 144.61 33.1889 144.61 34.896H145.81C145.81 32.9631 145.272 31.3792 144.122 30.2297L143.274 31.0783ZM144.61 34.896C144.61 36.1205 144.501 37.2708 144.285 38.3483L145.462 38.5837C145.695 37.4212 145.81 36.1915 145.81 34.896H144.61ZM144.285 38.3483C143.564 41.9544 142.49 44.3037 141.149 45.5434L141.963 46.4246C143.59 44.9203 144.727 42.2576 145.462 38.5837L144.285 38.3483ZM141.153 45.5393C139.811 46.7543 137.901 47.4 135.34 47.4V48.6C138.099 48.6 140.332 47.9017 141.959 46.4287L141.153 45.5393ZM135.34 47.4H126.982V48.6H135.34V47.4ZM133.618 43.56H135.634V42.36H133.618V43.56ZM135.634 43.56C136.851 43.56 137.852 43.179 138.475 42.2988L137.496 41.6052C137.168 42.069 136.601 42.36 135.634 42.36V43.56ZM138.473 42.3026C139.053 41.4966 139.493 40.2319 139.833 38.5876L138.658 38.3444C138.326 39.9481 137.927 41.0074 137.499 41.6014L138.473 42.3026ZM139.834 38.5837C140.033 37.5878 140.14 36.7595 140.14 36.114H138.94C138.94 36.6445 138.85 37.3842 138.657 38.3483L139.834 38.5837ZM140.14 36.114C140.14 35.3098 139.956 34.5898 139.46 34.0937L138.612 34.9423C138.788 35.1182 138.94 35.4622 138.94 36.114H140.14ZM139.477 34.111C138.972 33.5645 138.19 33.372 137.314 33.372V34.572C138.062 34.572 138.427 34.7435 138.595 34.925L139.477 34.111ZM137.314 33.372H135.382V34.572H137.314V33.372ZM134.793 33.8564L133.029 42.8444L134.207 43.0756L135.971 34.0876L134.793 33.8564ZM150.706 33.048L151.294 33.1709L151.294 33.1679L150.706 33.048ZM152.89 24.144L152.326 23.9404L152.324 23.9458L152.89 24.144ZM155.284 20.112L154.86 19.6877L155.284 20.112ZM167.044 19.944L166.577 20.321L166.578 20.3215L167.044 19.944ZM168.388 26.454V27.054H168.922L168.984 26.5241L168.388 26.454ZM162.76 26.454L162.166 26.3747L162.075 27.054H162.76V26.454ZM159.19 23.598L158.766 23.1737L159.19 23.598ZM156.334 33.048L155.746 32.9293L155.746 32.9303L156.334 33.048ZM159.148 42.162L159.639 42.5073L159.641 42.5046L159.148 42.162ZM160.198 39.6V39H159.724L159.614 39.4617L160.198 39.6ZM165.91 39.6L166.498 39.7228L166.649 39H165.91V39.6ZM162.466 46.404L162.07 45.9539L162.069 45.9546L162.466 46.404ZM150.538 45.438L150.015 45.7316L150.016 45.7332L150.538 45.438ZM150.172 41.112C150.172 39.4135 150.539 36.7763 151.294 33.1709L150.119 32.9251C149.362 36.5437 148.972 39.2825 148.972 41.112H150.172ZM151.294 33.1679C152.162 28.9115 152.883 25.9796 153.457 24.3422L152.324 23.9458C151.721 25.6684 150.986 28.6725 150.118 32.9281L151.294 33.1679ZM153.455 24.3476C154.05 22.6979 154.807 21.4377 155.709 20.5363L154.86 19.6877C153.801 20.7463 152.963 22.1741 152.326 23.9404L153.455 24.3476ZM155.709 20.5363C157.146 19.099 159.056 18.36 161.5 18.36V17.16C158.793 17.16 156.559 17.989 154.86 19.6877L155.709 20.5363ZM161.5 18.36C163.906 18.36 165.552 19.051 166.577 20.321L167.511 19.567C166.185 17.925 164.135 17.16 161.5 17.16V18.36ZM166.578 20.3215C167.423 21.3655 167.872 22.7611 167.872 24.564H169.072C169.072 22.5589 168.569 20.8745 167.511 19.5665L166.578 20.3215ZM167.872 24.564C167.872 25.3373 167.844 25.9411 167.792 26.3839L168.984 26.5241C169.044 26.0149 169.072 25.3587 169.072 24.564H167.872ZM168.388 25.854H162.76V27.054H168.388V25.854ZM163.355 26.5333C163.416 26.0782 163.444 25.5318 163.444 24.9H162.244C162.244 25.5002 162.217 25.9898 162.166 26.3747L163.355 26.5333ZM163.444 24.9C163.444 24.1278 163.28 23.4367 162.848 22.9338C162.4 22.4135 161.758 22.2 161.038 22.2V23.4C161.522 23.4 161.783 23.5364 161.938 23.7162C162.107 23.9133 162.244 24.2722 162.244 24.9H163.444ZM161.038 22.2C160.166 22.2 159.401 22.5385 158.766 23.1737L159.615 24.0223C160.043 23.5935 160.51 23.4 161.038 23.4V22.2ZM158.766 23.1737C158.178 23.762 157.71 24.7831 157.313 26.1147L158.463 26.4573C158.851 25.1569 159.251 24.386 159.615 24.0223L158.766 23.1737ZM157.313 26.1147C156.913 27.4593 156.39 29.737 155.746 32.9293L156.922 33.1667C157.566 29.975 158.08 27.7447 158.463 26.4573L157.313 26.1147ZM155.746 32.9303C154.99 36.7084 154.6 39.4217 154.6 41.028H155.8C155.8 39.5543 156.166 36.9476 156.923 33.1657L155.746 32.9303ZM154.6 41.028C154.6 41.8476 154.761 42.5733 155.182 43.1028C155.625 43.6583 156.271 43.896 157.006 43.896V42.696C156.538 42.696 156.281 42.5557 156.121 42.3552C155.941 42.1287 155.8 41.7204 155.8 41.028H154.6ZM157.006 43.896C158.105 43.896 158.999 43.417 159.639 42.5073L158.658 41.8167C158.234 42.419 157.7 42.696 157.006 42.696V43.896ZM159.641 42.5046C160.145 41.7797 160.519 40.8488 160.782 39.7383L159.614 39.4617C159.373 40.4792 159.047 41.2563 158.656 41.8194L159.641 42.5046ZM160.198 40.2H165.91V39H160.198V40.2ZM165.323 39.4772C164.694 42.483 163.59 44.6133 162.07 45.9539L162.863 46.8541C164.646 45.2826 165.838 42.877 166.498 39.7228L165.323 39.4772ZM162.069 45.9546C160.752 47.1197 158.92 47.736 156.502 47.736V48.936C159.124 48.936 161.269 48.2643 162.864 46.8534L162.069 45.9546ZM156.502 47.736C153.76 47.736 152.014 46.8293 151.061 45.1428L150.016 45.7332C151.247 47.9107 153.477 48.936 156.502 48.936V47.736ZM151.062 45.1444C150.481 44.1102 150.172 42.7769 150.172 41.112H148.972C148.972 42.9191 149.307 44.4698 150.015 45.7316L151.062 45.1444ZM167.855 48L167.328 47.7143L166.848 48.6H167.855V48ZM174.995 34.812L175.523 35.0977L175.774 34.6335L175.346 34.3251L174.995 34.812ZM173.273 27.21L173.86 27.3357L173.862 27.3268L173.273 27.21ZM176.381 19.902L175.986 19.451L175.981 19.4551L176.381 19.902ZM191.039 18.096L191.628 18.2141L191.772 17.496H191.039V18.096ZM185.033 48V48.6H185.525L185.622 48.1181L185.033 48ZM179.405 48L178.817 47.8815L178.672 48.6H179.405V48ZM181.799 36.114L182.388 36.2325L182.532 35.514H181.799V36.114ZM180.161 36.114V35.514H179.796L179.628 35.8389L180.161 36.114ZM174.029 48V48.6H174.395L174.563 48.2751L174.029 48ZM178.901 27.21L178.314 27.0881L178.313 27.0923L178.901 27.21ZM179.153 30.864L178.729 31.2883L178.738 31.2975L178.748 31.3063L179.153 30.864ZM182.807 31.326V31.926H183.302L183.396 31.4408L182.807 31.326ZM184.403 23.136L184.992 23.2508L185.132 22.536H184.403V23.136ZM180.035 24.06L179.561 23.6931L179.555 23.7L179.55 23.7071L180.035 24.06ZM168.383 48.2857L175.523 35.0977L174.468 34.5263L167.328 47.7143L168.383 48.2857ZM175.346 34.3251C174.146 33.461 173.495 32.0614 173.495 29.982H172.295C172.295 32.3266 173.045 34.147 174.645 35.2989L175.346 34.3251ZM173.495 29.982C173.495 29.373 173.611 28.4973 173.86 27.3357L172.687 27.0843C172.432 28.2747 172.295 29.247 172.295 29.982H173.495ZM173.862 27.3268C174.587 23.6739 175.595 21.4124 176.782 20.3489L175.981 19.4551C174.48 20.7996 173.416 23.4101 172.685 27.0932L173.862 27.3268ZM176.777 20.353C177.986 19.2922 180.033 18.696 183.059 18.696V17.496C179.926 17.496 177.521 18.1038 175.986 19.451L176.777 20.353ZM183.059 18.696H191.039V17.496H183.059V18.696ZM190.451 17.9779L184.445 47.8819L185.622 48.1181L191.628 18.2141L190.451 17.9779ZM185.033 47.4H179.405V48.6H185.033V47.4ZM179.994 48.1185L182.388 36.2325L181.211 35.9955L178.817 47.8815L179.994 48.1185ZM181.799 35.514H180.161V36.714H181.799V35.514ZM179.628 35.8389L173.496 47.7249L174.563 48.2751L180.695 36.3891L179.628 35.8389ZM174.029 47.4H167.855V48.6H174.029V47.4ZM178.313 27.0923C178.142 27.9456 178.049 28.649 178.049 29.184H179.249C179.249 28.767 179.324 28.1544 179.49 27.3277L178.313 27.0923ZM178.049 29.184C178.049 30.0289 178.226 30.7854 178.729 31.2883L179.578 30.4397C179.408 30.2706 179.249 29.9071 179.249 29.184H178.049ZM178.748 31.3063C179.251 31.7673 179.999 31.926 180.833 31.926V30.726C180.1 30.726 179.728 30.5767 179.559 30.4217L178.748 31.3063ZM180.833 31.926H182.807V30.726H180.833V31.926ZM183.396 31.4408L184.992 23.2508L183.814 23.0212L182.218 31.2112L183.396 31.4408ZM184.403 22.536H182.387V23.736H184.403V22.536ZM182.387 22.536C181.189 22.536 180.191 22.8771 179.561 23.6931L180.51 24.4269C180.832 24.0109 181.402 23.736 182.387 23.736V22.536ZM179.55 23.7071C179.023 24.4312 178.625 25.5871 178.314 27.0881L179.489 27.3319C179.793 25.8649 180.151 24.9208 180.521 24.4129L179.55 23.7071ZM202.534 33.048L203.121 33.1709L203.121 33.1679L202.534 33.048ZM204.718 24.144L204.153 23.9404L204.151 23.9458L204.718 24.144ZM207.112 20.112L206.687 19.6877L207.112 20.112ZM218.872 19.944L218.405 20.321L218.405 20.3215L218.872 19.944ZM220.216 26.454V27.054H220.749L220.811 26.5241L220.216 26.454ZM214.588 26.454L213.993 26.3747L213.902 27.054H214.588V26.454ZM211.018 23.598L210.593 23.1737L211.018 23.598ZM208.162 33.048L207.573 32.9293L207.573 32.9303L208.162 33.048ZM210.976 42.162L211.466 42.5073L211.468 42.5046L210.976 42.162ZM212.026 39.6V39H211.551L211.442 39.4617L212.026 39.6ZM217.738 39.6L218.325 39.7228L218.476 39H217.738V39.6ZM214.294 46.404L213.897 45.9539L213.896 45.9546L214.294 46.404ZM202.366 45.438L201.842 45.7316L201.843 45.7332L202.366 45.438ZM202 41.112C202 39.4135 202.366 36.7763 203.121 33.1709L201.946 32.9251C201.189 36.5437 200.8 39.2825 200.8 41.112H202ZM203.121 33.1679C203.99 28.9115 204.711 25.9796 205.284 24.3422L204.151 23.9458C203.548 25.6684 202.814 28.6725 201.946 32.9281L203.121 33.1679ZM205.282 24.3476C205.877 22.6979 206.634 21.4377 207.536 20.5363L206.687 19.6877C205.629 20.7463 204.79 22.1741 204.153 23.9404L205.282 24.3476ZM207.536 20.5363C208.973 19.099 210.883 18.36 213.328 18.36V17.16C210.62 17.16 208.386 17.989 206.687 19.6877L207.536 20.5363ZM213.328 18.36C215.733 18.36 217.379 19.051 218.405 20.321L219.338 19.567C218.012 17.925 215.962 17.16 213.328 17.16V18.36ZM218.405 20.3215C219.25 21.3655 219.7 22.7611 219.7 24.564H220.9C220.9 22.5589 220.397 20.8745 219.338 19.5665L218.405 20.3215ZM219.7 24.564C219.7 25.3373 219.672 25.9411 219.62 26.3839L220.811 26.5241C220.871 26.0149 220.9 25.3587 220.9 24.564H219.7ZM220.216 25.854H214.588V27.054H220.216V25.854ZM215.182 26.5333C215.243 26.0782 215.272 25.5318 215.272 24.9H214.072C214.072 25.5002 214.044 25.9898 213.993 26.3747L215.182 26.5333ZM215.272 24.9C215.272 24.1278 215.108 23.4367 214.675 22.9338C214.228 22.4135 213.586 22.2 212.866 22.2V23.4C213.35 23.4 213.611 23.5364 213.765 23.7162C213.935 23.9133 214.072 24.2722 214.072 24.9H215.272ZM212.866 22.2C211.994 22.2 211.229 22.5385 210.593 23.1737L211.442 24.0223C211.871 23.5935 212.337 23.4 212.866 23.4V22.2ZM210.593 23.1737C210.005 23.762 209.537 24.7831 209.141 26.1147L210.291 26.4573C210.678 25.1569 211.078 24.386 211.442 24.0223L210.593 23.1737ZM209.141 26.1147C208.74 27.4593 208.218 29.737 207.573 32.9293L208.75 33.1667C209.394 29.975 209.907 27.7447 210.291 26.4573L209.141 26.1147ZM207.573 32.9303C206.818 36.7084 206.428 39.4217 206.428 41.028H207.628C207.628 39.5543 207.994 36.9476 208.75 33.1657L207.573 32.9303ZM206.428 41.028C206.428 41.8476 206.588 42.5733 207.01 43.1028C207.452 43.6583 208.098 43.896 208.834 43.896V42.696C208.365 42.696 208.108 42.5557 207.948 42.3552C207.768 42.1287 207.628 41.7204 207.628 41.028H206.428ZM208.834 43.896C209.932 43.896 210.826 43.417 211.466 42.5073L210.485 41.8167C210.061 42.419 209.527 42.696 208.834 42.696V43.896ZM211.468 42.5046C211.972 41.7797 212.346 40.8488 212.609 39.7383L211.442 39.4617C211.201 40.4792 210.875 41.2563 210.483 41.8194L211.468 42.5046ZM212.026 40.2H217.738V39H212.026V40.2ZM217.15 39.4772C216.522 42.483 215.418 44.6133 213.897 45.9539L214.69 46.8541C216.473 45.2826 217.665 42.877 218.325 39.7228L217.15 39.4772ZM213.896 45.9546C212.579 47.1197 210.748 47.736 208.33 47.736V48.936C210.952 48.936 213.096 48.2643 214.691 46.8534L213.896 45.9546ZM208.33 47.736C205.587 47.736 203.841 46.8293 202.888 45.1428L201.843 45.7332C203.074 47.9107 205.304 48.936 208.33 48.936V47.736ZM202.889 45.1444C202.309 44.1102 202 42.7769 202 41.112H200.8C200.8 42.9191 201.134 44.4698 201.842 45.7316L202.889 45.1444ZM248.495 48V48.6H249.123L249.095 47.9731L248.495 48ZM242.825 48L242.225 47.9948L242.22 48.6H242.825V48ZM242.867 43.17L243.467 43.1752L243.473 42.57H242.867V43.17ZM236.315 43.17V42.57H235.909L235.758 42.9472L236.315 43.17ZM234.383 48V48.6H234.79L234.94 48.2228L234.383 48ZM228.335 48L227.787 47.7566L227.413 48.6H228.335V48ZM241.607 18.096V17.496H241.217L241.059 17.8526L241.607 18.096ZM247.151 18.096L247.751 18.0691L247.725 17.496H247.151V18.096ZM242.783 38.13V38.73H243.381L243.383 38.1321L242.783 38.13ZM242.825 26.412L243.425 26.4142L242.265 26.1972L242.825 26.412ZM238.331 38.13L237.771 37.9151L237.459 38.73H238.331V38.13ZM248.495 47.4H242.825V48.6H248.495V47.4ZM243.425 48.0052L243.467 43.1752L242.267 43.1648L242.225 47.9948L243.425 48.0052ZM242.867 42.57H236.315V43.77H242.867V42.57ZM235.758 42.9472L233.826 47.7772L234.94 48.2228L236.872 43.3928L235.758 42.9472ZM234.383 47.4H228.335V48.6H234.383V47.4ZM228.884 48.2434L242.156 18.3394L241.059 17.8526L227.787 47.7566L228.884 48.2434ZM241.607 18.696H247.151V17.496H241.607V18.696ZM246.552 18.1229L247.896 48.0269L249.095 47.9731L247.751 18.0691L246.552 18.1229ZM243.383 38.1321L243.425 26.4142L242.225 26.4098L242.183 38.1278L243.383 38.1321ZM242.265 26.1972L237.771 37.9151L238.892 38.3448L243.386 26.6269L242.265 26.1972ZM238.331 38.73H242.783V37.53H238.331V38.73ZM253.039 48L252.451 47.8826L252.308 48.6H253.039V48ZM259.003 18.096V17.496H258.511L258.415 17.9786L259.003 18.096ZM272.989 26.664L272.401 26.5434L272.401 26.5463L272.989 26.664ZM270.805 31.368L271.192 31.8269L271.198 31.8218L271.204 31.8164L270.805 31.368ZM269.209 32.376L268.976 31.823L267.735 32.3455L268.954 32.9189L269.209 32.376ZM270.385 33.426L269.882 33.7519L269.89 33.7645L269.898 33.7766L270.385 33.426ZM270.805 39.222L270.217 39.1043L270.217 39.1062L270.805 39.222ZM267.697 46.236L268.096 46.6845L268.099 46.682L267.697 46.236ZM265.135 47.622L264.982 47.042L265.135 47.622ZM259.675 42.96L259.087 42.8423L258.943 43.56H259.675V42.96ZM264.001 42.12L263.546 41.7295L263.544 41.7314L264.001 42.12ZM265.219 39.012L264.633 38.8863L264.632 38.8901L265.219 39.012ZM264.925 35.316L264.501 35.7403L264.509 35.7487L264.518 35.7569L264.925 35.316ZM261.313 34.77V34.17H260.821L260.725 34.6523L261.313 34.77ZM262.237 29.982L261.649 29.8629L261.504 30.582H262.237V29.982ZM266.185 29.226L265.761 28.8017L266.185 29.226ZM267.361 26.664L266.775 26.5365L266.775 26.5383L267.361 26.664ZM267.067 23.64L266.625 24.0454L266.643 24.0647L266.662 24.0823L267.067 23.64ZM263.623 23.136V22.536H263.133L263.035 23.0169L263.623 23.136ZM253.628 48.1174L259.592 18.2134L258.415 17.9786L252.451 47.8826L253.628 48.1174ZM259.003 18.696H266.689V17.496H259.003V18.696ZM266.689 18.696C269.272 18.696 270.87 19.3503 271.711 20.472L272.671 19.752C271.497 18.1857 269.426 17.496 266.689 17.496V18.696ZM271.711 20.472C272.376 21.3585 272.725 22.4719 272.725 23.85H273.925C273.925 22.26 273.518 20.8815 272.671 19.752L271.711 20.472ZM272.725 23.85C272.725 24.5805 272.62 25.476 272.401 26.5434L273.577 26.7846C273.806 25.668 273.925 24.6875 273.925 23.85H272.725ZM272.401 26.5463C271.962 28.7387 271.27 30.1523 270.407 30.9196L271.204 31.8164C272.357 30.7917 273.12 29.0693 273.578 26.7817L272.401 26.5463ZM270.419 30.9091C269.924 31.3258 269.443 31.6267 268.976 31.823L269.442 32.929C270.04 32.6773 270.623 32.3061 271.192 31.8269L270.419 30.9091ZM268.954 32.9189C269.32 33.0915 269.629 33.3624 269.882 33.7519L270.889 33.1C270.525 32.5376 270.05 32.1085 269.465 31.8331L268.954 32.9189ZM269.898 33.7766C270.313 34.3527 270.541 35.104 270.541 36.072H271.741C271.741 34.912 271.465 33.8993 270.872 33.0754L269.898 33.7766ZM270.541 36.072C270.541 37.0066 270.434 38.0169 270.217 39.1043L271.394 39.3397C271.624 38.1871 271.741 37.0974 271.741 36.072H270.541ZM270.217 39.1062C269.551 42.4887 268.547 44.6644 267.296 45.79L268.099 46.682C269.648 45.2876 270.715 42.7873 271.394 39.3378L270.217 39.1062ZM267.299 45.7876C266.611 46.3989 265.84 46.8147 264.982 47.042L265.289 48.202C266.334 47.9253 267.272 47.4171 268.096 46.6844L267.299 45.7876ZM264.982 47.042C264.102 47.2749 262.872 47.4 261.271 47.4V48.6C262.918 48.6 264.265 48.4731 265.289 48.202L264.982 47.042ZM261.271 47.4H253.039V48.6H261.271V47.4ZM259.675 43.56H261.523V42.36H259.675V43.56ZM261.523 43.56C262.771 43.56 263.815 43.2658 264.458 42.5086L263.544 41.7314C263.236 42.0942 262.628 42.36 261.523 42.36V43.56ZM264.457 42.5105C265.064 41.8019 265.494 40.6391 265.807 39.1339L264.632 38.8901C264.328 40.3529 263.946 41.2621 263.546 41.7295L264.457 42.5105ZM265.806 39.1377C265.979 38.3285 266.071 37.612 266.071 36.996H264.871C264.871 37.5 264.795 38.1275 264.633 38.8863L265.806 39.1377ZM266.071 36.996C266.071 36.14 265.875 35.3764 265.332 34.8751L264.518 35.7569C264.703 35.9276 264.871 36.284 264.871 36.996H266.071ZM265.35 34.8917C264.823 34.365 264.043 34.17 263.161 34.17V35.37C263.903 35.37 264.3 35.539 264.501 35.7403L265.35 34.8917ZM263.161 34.17H261.313V35.37H263.161V34.17ZM260.725 34.6523L259.087 42.8423L260.264 43.0777L261.902 34.8877L260.725 34.6523ZM262.237 30.582H263.833V29.382H262.237V30.582ZM263.833 30.582C264.979 30.582 265.948 30.3118 266.61 29.6503L265.761 28.8017C265.415 29.1482 264.816 29.382 263.833 29.382V30.582ZM266.61 29.6503C267.259 29.0011 267.685 28.0171 267.948 26.7897L266.775 26.5383C266.534 27.6629 266.176 28.3869 265.761 28.8017L266.61 29.6503ZM267.948 26.7915C268.092 26.1264 268.171 25.5479 268.171 25.068H266.971C266.971 25.4281 266.91 25.9136 266.775 26.5365L267.948 26.7915ZM268.171 25.068C268.171 24.327 267.977 23.6599 267.473 23.1977L266.662 24.0823C266.83 24.2361 266.971 24.521 266.971 25.068H268.171ZM267.51 23.2346C267.026 22.7066 266.245 22.536 265.387 22.536V23.736C266.153 23.736 266.493 23.9014 266.625 24.0454L267.51 23.2346ZM265.387 22.536H263.623V23.736H265.387V22.536ZM263.035 23.0169L261.649 29.8629L262.825 30.1011L264.211 23.2551L263.035 23.0169ZM277.942 48L277.353 47.8827L277.21 48.6H277.942V48ZM282.898 23.136L283.486 23.2533L283.629 22.536H282.898V23.136ZM278.11 23.136L277.521 23.0183L277.378 23.736H278.11V23.136ZM279.118 18.096V17.496H278.626L278.529 17.9783L279.118 18.096ZM294.322 18.096L294.91 18.2137L295.054 17.496H294.322V18.096ZM293.314 23.136V23.736H293.806L293.902 23.2537L293.314 23.136ZM288.526 23.136V22.536H288.033L287.937 23.0187L288.526 23.136ZM283.57 48V48.6H284.062L284.158 48.1173L283.57 48ZM278.53 48.1173L283.486 23.2533L282.309 23.0187L277.353 47.8827L278.53 48.1173ZM282.898 22.536H278.11V23.736H282.898V22.536ZM278.698 23.2537L279.706 18.2137L278.529 17.9783L277.521 23.0183L278.698 23.2537ZM279.118 18.696H294.322V17.496H279.118V18.696ZM293.733 17.9783L292.725 23.0183L293.902 23.2537L294.91 18.2137L293.733 17.9783ZM293.314 22.536H288.526V23.736H293.314V22.536ZM287.937 23.0187L282.981 47.8827L284.158 48.1173L289.114 23.2533L287.937 23.0187ZM283.57 47.4H277.942V48.6H283.57V47.4ZM294.983 33.048L295.57 33.1709L295.571 33.1679L294.983 33.048ZM297.167 24.144L296.602 23.9404L296.6 23.9458L297.167 24.144ZM299.561 20.112L299.137 19.6877L299.561 20.112ZM311.783 20.658L312.306 20.3644L312.305 20.3628L311.783 20.658ZM311.615 33.048L311.028 32.9251L311.027 32.9281L311.615 33.048ZM309.389 41.994L308.824 41.7904L308.823 41.7958L309.389 41.994ZM307.037 45.984L307.461 46.4083L307.037 45.984ZM294.815 45.438L294.292 45.7316L294.292 45.7332L294.815 45.438ZM300.611 33.048L300.023 32.9293L300.022 32.9303L300.611 33.048ZM305.987 33.048L306.575 33.1667L306.575 33.1657L305.987 33.048ZM303.467 23.598L303.043 23.1737L303.467 23.598ZM295.571 33.1679C296.439 28.9115 297.16 25.9796 297.733 24.3422L296.6 23.9458C295.998 25.6684 295.263 28.6725 294.395 32.9281L295.571 33.1679ZM297.731 24.3476C298.326 22.6979 299.084 21.4377 299.985 20.5363L299.137 19.6877C298.078 20.7463 297.239 22.1741 296.602 23.9404L297.731 24.3476ZM299.985 20.5363C301.421 19.1003 303.344 18.36 305.819 18.36V17.16C303.086 17.16 300.837 17.9877 299.137 19.6877L299.985 20.5363ZM305.819 18.36C308.561 18.36 310.307 19.2667 311.26 20.9532L312.305 20.3628C311.074 18.1853 308.844 17.16 305.819 17.16V18.36ZM311.26 20.9515C311.84 21.9858 312.149 23.3191 312.149 24.984H313.349C313.349 23.1769 313.014 21.6262 312.306 20.3644L311.26 20.9515ZM312.149 24.984C312.149 26.6825 311.782 29.3197 311.028 32.9251L312.202 33.1709C312.959 29.5523 313.349 26.8135 313.349 24.984H312.149ZM311.027 32.9281C310.159 37.1839 309.424 40.1276 308.824 41.7904L309.953 42.1976C310.586 40.4444 311.335 37.4241 312.203 33.1679L311.027 32.9281ZM308.823 41.7958C308.256 43.4141 307.513 44.6589 306.613 45.5597L307.461 46.4083C308.52 45.3491 309.346 43.9339 309.955 42.1922L308.823 41.7958ZM306.613 45.5597C305.177 46.9957 303.254 47.736 300.779 47.736V48.936C303.512 48.936 305.761 48.1083 307.461 46.4083L306.613 45.5597ZM300.779 47.736C298.036 47.736 296.29 46.8293 295.337 45.1428L294.292 45.7332C295.523 47.9107 297.753 48.936 300.779 48.936V47.736ZM295.338 45.1444C294.758 44.1102 294.449 42.7769 294.449 41.112H293.249C293.249 42.9191 293.584 44.4698 294.292 45.7316L295.338 45.1444ZM294.449 41.112C294.449 39.4135 294.815 36.7763 295.57 33.1709L294.396 32.9251C293.638 36.5437 293.249 39.2825 293.249 41.112H294.449ZM300.022 32.9303C299.267 36.7084 298.877 39.4217 298.877 41.028H300.077C300.077 39.5543 300.443 36.9476 301.199 33.1657L300.022 32.9303ZM298.877 41.028C298.877 41.8501 299.042 42.578 299.474 43.108C299.925 43.6615 300.58 43.896 301.325 43.896V42.696C300.837 42.696 300.569 42.5525 300.404 42.35C300.22 42.124 300.077 41.7179 300.077 41.028H298.877ZM301.325 43.896C302.176 43.896 302.925 43.5521 303.555 42.9223L302.707 42.0737C302.272 42.5079 301.818 42.696 301.325 42.696V43.896ZM303.555 42.9223C304.143 42.334 304.611 41.3129 305.008 39.9813L303.858 39.6387C303.47 40.9391 303.07 41.71 302.707 42.0737L303.555 42.9223ZM305.008 39.9813C305.408 38.6367 305.931 36.359 306.575 33.1667L305.399 32.9293C304.755 36.121 304.241 38.3513 303.858 39.6387L305.008 39.9813ZM306.575 33.1657C307.331 29.3876 307.721 26.6743 307.721 25.068H306.521C306.521 26.5417 306.155 29.1484 305.398 32.9303L306.575 33.1657ZM307.721 25.068C307.721 24.2459 307.556 23.518 307.124 22.988C306.673 22.4345 306.017 22.2 305.273 22.2V23.4C305.76 23.4 306.029 23.5435 306.194 23.746C306.378 23.972 306.521 24.3781 306.521 25.068H307.721ZM305.273 22.2C304.422 22.2 303.672 22.5439 303.043 23.1737L303.891 24.0223C304.325 23.5881 304.78 23.4 305.273 23.4V22.2ZM303.043 23.1737C302.454 23.762 301.986 24.7831 301.59 26.1147L302.74 26.4573C303.127 25.1569 303.527 24.386 303.891 24.0223L303.043 23.1737ZM301.59 26.1147C301.189 27.4593 300.667 29.737 300.023 32.9293L301.199 33.1667C301.843 29.975 302.356 27.7447 302.74 26.4573L301.59 26.1147ZM314.259 48L313.671 47.8826L313.528 48.6H314.259V48ZM320.223 18.096V17.496H319.731L319.635 17.9786L320.223 18.096ZM333.159 19.818L332.735 20.2423L333.159 19.818ZM334.335 27.63L334.924 27.7477L334.335 27.63ZM331.017 35.148L331.42 35.5927L331.424 35.5886L331.017 35.148ZM322.029 37.164V36.564H321.536L321.441 37.0476L322.029 37.164ZM319.887 48V48.6H320.38L320.476 48.1164L319.887 48ZM323.037 32.124L322.449 32.0058L322.305 32.724H323.037V32.124ZM327.447 31.116L326.96 30.7654L326.958 30.7692L327.447 31.116ZM328.707 27.63L329.295 27.7516L329.296 27.7477L328.707 27.63ZM328.497 23.682L328.056 24.089L328.064 24.0978L328.073 24.1063L328.497 23.682ZM324.843 23.136V22.536H324.352L324.255 23.0178L324.843 23.136ZM314.848 48.1174L320.812 18.2134L319.635 17.9786L313.671 47.8826L314.848 48.1174ZM320.223 18.696H327.825V17.496H320.223V18.696ZM327.825 18.696C330.15 18.696 331.744 19.2512 332.735 20.2423L333.583 19.3937C332.279 18.0888 330.316 17.496 327.825 17.496V18.696ZM332.735 20.2423C333.601 21.1088 334.071 22.3529 334.071 24.06H335.271C335.271 22.1271 334.733 20.5432 333.583 19.3937L332.735 20.2423ZM334.071 24.06C334.071 25.2845 333.962 26.4348 333.747 27.5123L334.924 27.7477C335.156 26.5852 335.271 25.3555 335.271 24.06H334.071ZM333.747 27.5123C333.026 31.1184 331.951 33.4677 330.61 34.7074L331.424 35.5886C333.052 34.0843 334.189 31.4216 334.924 27.7477L333.747 27.5123ZM330.614 34.7033C329.273 35.9183 327.362 36.564 324.801 36.564V37.764C327.56 37.764 329.794 37.0657 331.42 35.5927L330.614 34.7033ZM324.801 36.564H322.029V37.764H324.801V36.564ZM321.441 37.0476L319.299 47.8836L320.476 48.1164L322.618 37.2804L321.441 37.0476ZM319.887 47.4H314.259V48.6H319.887V47.4ZM323.037 32.724H325.095V31.524H323.037V32.724ZM325.095 32.724C326.312 32.724 327.313 32.343 327.937 31.4628L326.958 30.7692C326.629 31.233 326.062 31.524 325.095 31.524V32.724ZM327.934 31.4666C328.514 30.6606 328.955 29.3959 329.295 27.7516L328.12 27.5084C327.788 29.1121 327.388 30.1714 326.96 30.7654L327.934 31.4666ZM329.296 27.7477C329.495 26.7518 329.601 25.9235 329.601 25.278H328.401C328.401 25.8085 328.312 26.5482 328.119 27.5123L329.296 27.7477ZM329.601 25.278C329.601 24.4738 329.417 23.7538 328.921 23.2577L328.073 24.1063C328.249 24.2822 328.401 24.6262 328.401 25.278H329.601ZM328.938 23.275C328.434 22.7285 327.651 22.536 326.775 22.536V23.736C327.523 23.736 327.889 23.9075 328.056 24.089L328.938 23.275ZM326.775 22.536H324.843V23.736H326.775V22.536ZM324.255 23.0178L322.449 32.0058L323.625 32.2422L325.431 23.2542L324.255 23.0178ZM337.902 33.048L338.489 33.1709L338.489 33.1679L337.902 33.048ZM340.086 24.144L339.521 23.9404L339.519 23.9458L340.086 24.144ZM342.48 20.112L342.055 19.6877L342.48 20.112ZM354.702 20.658L355.225 20.3644L355.224 20.3628L354.702 20.658ZM354.534 33.048L353.946 32.9251L353.946 32.9281L354.534 33.048ZM352.308 41.994L351.743 41.7904L351.741 41.7958L352.308 41.994ZM349.956 45.984L350.38 46.4083L349.956 45.984ZM337.734 45.438L337.21 45.7316L337.211 45.7332L337.734 45.438ZM343.53 33.048L342.941 32.9293L342.941 32.9303L343.53 33.048ZM348.906 33.048L349.494 33.1667L349.494 33.1657L348.906 33.048ZM346.386 23.598L345.961 23.1737L346.386 23.598ZM338.489 33.1679C339.358 28.9115 340.079 25.9796 340.652 24.3422L339.519 23.9458C338.916 25.6684 338.182 28.6725 337.314 32.9281L338.489 33.1679ZM340.65 24.3476C341.245 22.6979 342.002 21.4377 342.904 20.5363L342.055 19.6877C340.997 20.7463 340.158 22.1741 339.521 23.9404L340.65 24.3476ZM342.904 20.5363C344.34 19.1003 346.263 18.36 348.738 18.36V17.16C346.004 17.16 343.755 17.9877 342.055 19.6877L342.904 20.5363ZM348.738 18.36C351.48 18.36 353.226 19.2667 354.179 20.9532L355.224 20.3628C353.993 18.1853 351.763 17.16 348.738 17.16V18.36ZM354.178 20.9515C354.758 21.9858 355.068 23.3191 355.068 24.984H356.268C356.268 23.1769 355.933 21.6262 355.225 20.3644L354.178 20.9515ZM355.068 24.984C355.068 26.6825 354.701 29.3197 353.946 32.9251L355.121 33.1709C355.878 29.5523 356.268 26.8135 356.268 24.984H355.068ZM353.946 32.9281C353.078 37.1839 352.343 40.1276 351.743 41.7904L352.872 42.1976C353.504 40.4444 354.253 37.4241 355.121 33.1679L353.946 32.9281ZM351.741 41.7958C351.175 43.4141 350.432 44.6589 349.531 45.5597L350.38 46.4083C351.439 45.3491 352.264 43.9339 352.874 42.1922L351.741 41.7958ZM349.531 45.5597C348.095 46.9957 346.172 47.736 343.698 47.736V48.936C346.431 48.936 348.68 48.1083 350.38 46.4083L349.531 45.5597ZM343.698 47.736C340.955 47.736 339.209 46.8293 338.256 45.1428L337.211 45.7332C338.442 47.9107 340.672 48.936 343.698 48.936V47.736ZM338.257 45.1444C337.677 44.1102 337.368 42.7769 337.368 41.112H336.168C336.168 42.9191 336.502 44.4698 337.21 45.7316L338.257 45.1444ZM337.368 41.112C337.368 39.4135 337.734 36.7763 338.489 33.1709L337.314 32.9251C336.557 36.5437 336.168 39.2825 336.168 41.112H337.368ZM342.941 32.9303C342.186 36.7084 341.796 39.4217 341.796 41.028H342.996C342.996 39.5543 343.362 36.9476 344.118 33.1657L342.941 32.9303ZM341.796 41.028C341.796 41.8501 341.961 42.578 342.392 43.108C342.843 43.6615 343.499 43.896 344.244 43.896V42.696C343.756 42.696 343.488 42.5525 343.323 42.35C343.139 42.124 342.996 41.7179 342.996 41.028H341.796ZM344.244 43.896C345.094 43.896 345.844 43.5521 346.474 42.9223L345.625 42.0737C345.191 42.5079 344.737 42.696 344.244 42.696V43.896ZM346.474 42.9223C347.062 42.334 347.53 41.3129 347.927 39.9813L346.777 39.6387C346.389 40.9391 345.989 41.71 345.625 42.0737L346.474 42.9223ZM347.927 39.9813C348.327 38.6367 348.85 36.359 349.494 33.1667L348.317 32.9293C347.673 36.121 347.16 38.3513 346.777 39.6387L347.927 39.9813ZM349.494 33.1657C350.25 29.3876 350.64 26.6743 350.64 25.068H349.44C349.44 26.5417 349.074 29.1484 348.317 32.9303L349.494 33.1657ZM350.64 25.068C350.64 24.2459 350.475 23.518 350.043 22.988C349.592 22.4345 348.936 22.2 348.192 22.2V23.4C348.679 23.4 348.947 23.5435 349.112 23.746C349.297 23.972 349.44 24.3781 349.44 25.068H350.64ZM348.192 22.2C347.341 22.2 346.591 22.5439 345.961 23.1737L346.81 24.0223C347.244 23.5881 347.698 23.4 348.192 23.4V22.2ZM345.961 23.1737C345.373 23.762 344.905 24.7831 344.509 26.1147L345.659 26.4573C346.046 25.1569 346.446 24.386 346.81 24.0223L345.961 23.1737ZM344.509 26.1147C344.108 27.4593 343.586 29.737 342.941 32.9293L344.118 33.1667C344.762 29.975 345.275 27.7447 345.659 26.4573L344.509 26.1147ZM357.178 48L356.59 47.8826L356.446 48.6H357.178V48ZM363.142 18.096V17.496H362.65L362.553 17.9786L363.142 18.096ZM368.098 18.096L368.691 18.003L368.611 17.496H368.098V18.096ZM370.366 32.544L369.773 32.637L370.042 34.348L370.889 32.8376L370.366 32.544ZM378.472 18.096V17.496H378.121L377.949 17.8024L378.472 18.096ZM383.428 18.096L384.016 18.2134L384.159 17.496H383.428V18.096ZM377.464 48V48.6H377.956L378.052 48.1174L377.464 48ZM371.836 48L371.248 47.8823L371.104 48.6H371.836V48ZM374.986 32.25L375.574 32.3677L374.451 31.979L374.986 32.25ZM369.82 42.456V43.056H370.189L370.355 42.727L369.82 42.456ZM366.922 42.456L366.325 42.5125L366.376 43.056H366.922V42.456ZM365.956 32.25L366.553 32.1935L365.368 32.1323L365.956 32.25ZM362.806 48V48.6H363.298L363.394 48.1177L362.806 48ZM357.766 48.1174L363.73 18.2134L362.553 17.9786L356.59 47.8826L357.766 48.1174ZM363.142 18.696H368.098V17.496H363.142V18.696ZM367.505 18.189L369.773 32.637L370.959 32.451L368.691 18.003L367.505 18.189ZM370.889 32.8376L378.995 18.3896L377.949 17.8024L369.843 32.2504L370.889 32.8376ZM378.472 18.696H383.428V17.496H378.472V18.696ZM382.84 17.9786L376.875 47.8826L378.052 48.1174L384.016 18.2134L382.84 17.9786ZM377.464 47.4H371.836V48.6H377.464V47.4ZM372.424 48.1177L375.574 32.3677L374.398 32.1323L371.248 47.8823L372.424 48.1177ZM374.451 31.979L369.285 42.185L370.355 42.727L375.521 32.521L374.451 31.979ZM369.82 41.856H366.922V43.056H369.82V41.856ZM367.519 42.3995L366.553 32.1935L365.359 32.3065L366.325 42.5125L367.519 42.3995ZM365.368 32.1323L362.218 47.8823L363.394 48.1177L366.544 32.3677L365.368 32.1323ZM362.806 47.4H357.178V48.6H362.806V47.4Z" fill="white"/>
<mask id="mask0" mask-type="alpha" maskUnits="userSpaceOnUse" x="3" y="11" width="416" height="19">
<rect x="3" y="11" width="416" height="19" fill="#C4C4C4"/>
</mask>
<g mask="url(#mask0)">
<path d="M3.966 42.112C3.966 40.348 4.344 37.66 5.1 34.048C5.968 29.792 6.696 26.824 7.284 25.144C7.9 23.436 8.698 22.092 9.678 21.112C11.246 19.544 13.318 18.76 15.894 18.76C18.414 18.76 20.262 19.488 21.438 20.944C22.39 22.12 22.866 23.66 22.866 25.564C22.866 26.348 22.838 26.978 22.782 27.454H17.154C17.21 27.034 17.238 26.516 17.238 25.9C17.238 24.5 16.636 23.8 15.432 23.8C14.732 23.8 14.116 24.066 13.584 24.598C13.108 25.074 12.674 25.97 12.282 27.286C11.89 28.602 11.372 30.856 10.728 34.048C9.972 37.828 9.594 40.488 9.594 42.028C9.594 43.54 10.196 44.296 11.4 44.296C12.296 44.296 13.01 43.918 13.542 43.162C13.99 42.518 14.34 41.664 14.592 40.6H20.304C19.66 43.68 18.512 45.948 16.86 47.404C15.404 48.692 13.416 49.336 10.896 49.336C8.012 49.336 6.024 48.37 4.932 46.438C4.288 45.29 3.966 43.848 3.966 42.112ZM23.9662 49L29.9302 19.096H37.6162C40.2762 19.096 42.1102 19.768 43.1182 21.112C43.8742 22.12 44.2522 23.366 44.2522 24.85C44.2522 25.634 44.1402 26.572 43.9162 27.664C43.4682 29.904 42.7402 31.472 41.7322 32.368C41.2002 32.816 40.6682 33.152 40.1362 33.376C40.6122 33.6 41.0042 33.95 41.3122 34.426C41.8162 35.126 42.0682 36.008 42.0682 37.072C42.0682 38.052 41.9562 39.102 41.7322 40.222C41.0602 43.638 40.0242 45.976 38.6242 47.236C37.8682 47.908 37.0142 48.37 36.0622 48.622C35.1102 48.874 33.8222 49 32.1982 49H23.9662ZM30.6022 43.96H32.4502C33.6262 43.96 34.4522 43.68 34.9282 43.12C35.4322 42.532 35.8382 41.496 36.1462 40.012C36.3142 39.228 36.3982 38.556 36.3982 37.996C36.3982 37.212 36.2162 36.652 35.8522 36.316C35.4882 35.952 34.9002 35.77 34.0882 35.77H32.2402L30.6022 43.96ZM33.1642 30.982H34.7602C35.8242 30.982 36.6082 30.73 37.1122 30.226C37.6442 29.694 38.0362 28.84 38.2882 27.664C38.4282 27.02 38.4982 26.488 38.4982 26.068C38.4982 25.424 38.3302 24.948 37.9942 24.64C37.6862 24.304 37.1262 24.136 36.3142 24.136H34.5502L33.1642 30.982ZM43.7495 49L50.8895 35.812C49.4895 34.804 48.7895 33.194 48.7895 30.982C48.7895 30.31 48.9155 29.386 49.1675 28.21C49.8955 24.542 50.9315 22.106 52.2755 20.902C53.6475 19.698 55.8735 19.096 58.9535 19.096H66.9335L60.9275 49H55.2995L57.6935 37.114H56.0555L49.9235 49H43.7495ZM54.7955 28.21C54.6275 29.05 54.5435 29.708 54.5435 30.184C54.5435 30.968 54.7115 31.528 55.0475 31.864C55.3835 32.172 55.9435 32.326 56.7275 32.326H58.7015L60.2975 24.136H58.2815C57.1895 24.136 56.4055 24.444 55.9295 25.06C55.4815 25.676 55.1035 26.726 54.7955 28.21ZM69.6862 47.614C68.4822 46.41 67.8802 44.744 67.8802 42.616C67.8802 41.86 67.9362 41.202 68.0482 40.642H73.7602C73.6482 41.202 73.5922 41.706 73.5922 42.154C73.5922 42.91 73.7742 43.47 74.1382 43.834C74.4462 44.142 74.9222 44.296 75.5662 44.296C76.3222 44.296 76.9102 44.058 77.3302 43.582C77.8062 43.078 78.2402 41.888 78.6322 40.012C78.7722 39.228 78.8422 38.626 78.8422 38.206C78.8422 37.562 78.7162 37.072 78.4642 36.736C78.1282 36.316 77.5822 36.106 76.8262 36.106H74.5582L75.5662 31.234H77.7082C78.5202 31.234 79.1502 31.01 79.5982 30.562C80.0182 30.142 80.3682 29.204 80.6482 27.748C80.8162 26.908 80.9002 26.222 80.9002 25.69C80.9002 25.074 80.7462 24.612 80.4382 24.304C80.1022 23.968 79.6542 23.8 79.0942 23.8C78.2822 23.8 77.6522 24.066 77.2042 24.598C76.7282 25.13 76.3502 26.096 76.0702 27.496H70.4842C71.1282 24.304 72.1782 22.05 73.6342 20.734C75.0622 19.418 77.0642 18.76 79.6402 18.76C82.0482 18.76 83.8122 19.32 84.9322 20.44C86.0242 21.532 86.5702 22.876 86.5702 24.472C86.5702 25.452 86.4582 26.502 86.2342 27.622C86.0102 28.77 85.7722 29.638 85.5202 30.226C85.2682 30.814 84.8902 31.402 84.3862 31.99C83.9662 32.55 83.2662 33.124 82.2862 33.712C83.7422 34.664 84.4702 36.078 84.4702 37.954C84.4702 38.542 84.3582 39.396 84.1342 40.516C83.7422 42.504 83.3502 43.932 82.9582 44.8C82.5942 45.668 82.0202 46.494 81.2362 47.278C79.8642 48.65 77.8762 49.336 75.2722 49.336C72.6962 49.336 70.8342 48.762 69.6862 47.614ZM106.613 49H100.943L100.985 44.17H94.4333L92.5013 49H86.4533L99.7253 19.096H105.269L106.613 49ZM100.901 39.13L100.943 27.412L96.4493 39.13H100.901ZM112.467 49L117.423 24.136H112.635L113.643 19.096H128.847L127.839 24.136H123.051L118.095 49H112.467ZM127.982 49L133.946 19.096H139.574L137.39 29.932H139.364C141.772 29.932 143.55 30.506 144.698 31.654C145.706 32.662 146.21 34.076 146.21 35.896C146.21 37.156 146.098 38.346 145.874 39.466C145.146 43.106 144.04 45.612 142.556 46.984C141.072 48.328 139 49 136.34 49H127.982ZM134.618 43.96H136.634C137.726 43.96 138.51 43.624 138.986 42.952C139.49 42.252 139.91 41.09 140.246 39.466C140.442 38.486 140.54 37.702 140.54 37.114C140.54 36.386 140.372 35.854 140.036 35.518C139.7 35.154 139.126 34.972 138.314 34.972H136.382L134.618 43.96ZM150.572 42.112C150.572 40.348 150.95 37.66 151.706 34.048C152.574 29.792 153.302 26.824 153.89 25.144C154.506 23.436 155.304 22.092 156.284 21.112C157.852 19.544 159.924 18.76 162.5 18.76C165.02 18.76 166.868 19.488 168.044 20.944C168.996 22.12 169.472 23.66 169.472 25.564C169.472 26.348 169.444 26.978 169.388 27.454H163.76C163.816 27.034 163.844 26.516 163.844 25.9C163.844 24.5 163.242 23.8 162.038 23.8C161.338 23.8 160.722 24.066 160.19 24.598C159.714 25.074 159.28 25.97 158.888 27.286C158.496 28.602 157.978 30.856 157.334 34.048C156.578 37.828 156.2 40.488 156.2 42.028C156.2 43.54 156.802 44.296 158.006 44.296C158.902 44.296 159.616 43.918 160.148 43.162C160.596 42.518 160.946 41.664 161.198 40.6H166.91C166.266 43.68 165.118 45.948 163.466 47.404C162.01 48.692 160.022 49.336 157.502 49.336C154.618 49.336 152.63 48.37 151.538 46.438C150.894 45.29 150.572 43.848 150.572 42.112ZM168.855 49L175.995 35.812C174.595 34.804 173.895 33.194 173.895 30.982C173.895 30.31 174.021 29.386 174.273 28.21C175.001 24.542 176.037 22.106 177.381 20.902C178.753 19.698 180.979 19.096 184.059 19.096H192.039L186.033 49H180.405L182.799 37.114H181.161L175.029 49H168.855ZM179.901 28.21C179.733 29.05 179.649 29.708 179.649 30.184C179.649 30.968 179.817 31.528 180.153 31.864C180.489 32.172 181.049 32.326 181.833 32.326H183.807L185.403 24.136H183.387C182.295 24.136 181.511 24.444 181.035 25.06C180.587 25.676 180.209 26.726 179.901 28.21ZM202.4 42.112C202.4 40.348 202.778 37.66 203.534 34.048C204.402 29.792 205.13 26.824 205.718 25.144C206.334 23.436 207.132 22.092 208.112 21.112C209.68 19.544 211.752 18.76 214.328 18.76C216.848 18.76 218.696 19.488 219.872 20.944C220.824 22.12 221.3 23.66 221.3 25.564C221.3 26.348 221.272 26.978 221.216 27.454H215.588C215.644 27.034 215.672 26.516 215.672 25.9C215.672 24.5 215.07 23.8 213.866 23.8C213.166 23.8 212.55 24.066 212.018 24.598C211.542 25.074 211.108 25.97 210.716 27.286C210.324 28.602 209.806 30.856 209.162 34.048C208.406 37.828 208.028 40.488 208.028 42.028C208.028 43.54 208.63 44.296 209.834 44.296C210.73 44.296 211.444 43.918 211.976 43.162C212.424 42.518 212.774 41.664 213.026 40.6H218.738C218.094 43.68 216.946 45.948 215.294 47.404C213.838 48.692 211.85 49.336 209.33 49.336C206.446 49.336 204.458 48.37 203.366 46.438C202.722 45.29 202.4 43.848 202.4 42.112ZM249.495 49H243.825L243.867 44.17H237.315L235.383 49H229.335L242.607 19.096H248.151L249.495 49ZM243.783 39.13L243.825 27.412L239.331 39.13H243.783ZM254.039 49L260.003 19.096H267.689C270.349 19.096 272.183 19.768 273.191 21.112C273.947 22.12 274.325 23.366 274.325 24.85C274.325 25.634 274.213 26.572 273.989 27.664C273.541 29.904 272.813 31.472 271.805 32.368C271.273 32.816 270.741 33.152 270.209 33.376C270.685 33.6 271.077 33.95 271.385 34.426C271.889 35.126 272.141 36.008 272.141 37.072C272.141 38.052 272.029 39.102 271.805 40.222C271.133 43.638 270.097 45.976 268.697 47.236C267.941 47.908 267.087 48.37 266.135 48.622C265.183 48.874 263.895 49 262.271 49H254.039ZM260.675 43.96H262.523C263.699 43.96 264.525 43.68 265.001 43.12C265.505 42.532 265.911 41.496 266.219 40.012C266.387 39.228 266.471 38.556 266.471 37.996C266.471 37.212 266.289 36.652 265.925 36.316C265.561 35.952 264.973 35.77 264.161 35.77H262.313L260.675 43.96ZM263.237 30.982H264.833C265.897 30.982 266.681 30.73 267.185 30.226C267.717 29.694 268.109 28.84 268.361 27.664C268.501 27.02 268.571 26.488 268.571 26.068C268.571 25.424 268.403 24.948 268.067 24.64C267.759 24.304 267.199 24.136 266.387 24.136H264.623L263.237 30.982ZM278.942 49L283.898 24.136H279.11L280.118 19.096H295.322L294.314 24.136H289.526L284.57 49H278.942ZM295.983 34.048C296.851 29.792 297.579 26.824 298.167 25.144C298.783 23.436 299.581 22.092 300.561 21.112C302.129 19.544 304.215 18.76 306.819 18.76C309.703 18.76 311.691 19.726 312.783 21.658C313.427 22.806 313.749 24.248 313.749 25.984C313.749 27.748 313.371 30.436 312.615 34.048C311.747 38.304 311.005 41.286 310.389 42.994C309.801 44.674 309.017 46.004 308.037 46.984C306.469 48.552 304.383 49.336 301.779 49.336C298.895 49.336 296.907 48.37 295.815 46.438C295.171 45.29 294.849 43.848 294.849 42.112C294.849 40.348 295.227 37.66 295.983 34.048ZM301.611 34.048C300.855 37.828 300.477 40.488 300.477 42.028C300.477 43.54 301.093 44.296 302.325 44.296C302.997 44.296 303.599 44.03 304.131 43.498C304.607 43.022 305.041 42.126 305.433 40.81C305.825 39.494 306.343 37.24 306.987 34.048C307.743 30.268 308.121 27.608 308.121 26.068C308.121 24.556 307.505 23.8 306.273 23.8C305.601 23.8 304.999 24.066 304.467 24.598C303.991 25.074 303.557 25.97 303.165 27.286C302.773 28.602 302.255 30.856 301.611 34.048ZM315.259 49L321.223 19.096H328.825C331.233 19.096 333.011 19.67 334.159 20.818C335.167 21.826 335.671 23.24 335.671 25.06C335.671 26.32 335.559 27.51 335.335 28.63C334.607 32.27 333.501 34.776 332.017 36.148C330.533 37.492 328.461 38.164 325.801 38.164H323.029L320.887 49H315.259ZM324.037 33.124H326.095C327.187 33.124 327.971 32.788 328.447 32.116C328.951 31.416 329.371 30.254 329.707 28.63C329.903 27.65 330.001 26.866 330.001 26.278C330.001 25.55 329.833 25.018 329.497 24.682C329.161 24.318 328.587 24.136 327.775 24.136H325.843L324.037 33.124ZM338.902 34.048C339.77 29.792 340.498 26.824 341.086 25.144C341.702 23.436 342.5 22.092 343.48 21.112C345.048 19.544 347.134 18.76 349.738 18.76C352.622 18.76 354.61 19.726 355.702 21.658C356.346 22.806 356.668 24.248 356.668 25.984C356.668 27.748 356.29 30.436 355.534 34.048C354.666 38.304 353.924 41.286 353.308 42.994C352.72 44.674 351.936 46.004 350.956 46.984C349.388 48.552 347.302 49.336 344.698 49.336C341.814 49.336 339.826 48.37 338.734 46.438C338.09 45.29 337.768 43.848 337.768 42.112C337.768 40.348 338.146 37.66 338.902 34.048ZM344.53 34.048C343.774 37.828 343.396 40.488 343.396 42.028C343.396 43.54 344.012 44.296 345.244 44.296C345.916 44.296 346.518 44.03 347.05 43.498C347.526 43.022 347.96 42.126 348.352 40.81C348.744 39.494 349.262 37.24 349.906 34.048C350.662 30.268 351.04 27.608 351.04 26.068C351.04 24.556 350.424 23.8 349.192 23.8C348.52 23.8 347.918 24.066 347.386 24.598C346.91 25.074 346.476 25.97 346.084 27.286C345.692 28.602 345.174 30.856 344.53 34.048ZM358.178 49L364.142 19.096H369.098L371.366 33.544L379.472 19.096H384.428L378.464 49H372.836L375.986 33.25L370.82 43.456H367.922L366.956 33.25L363.806 49H358.178Z" fill="white"/>
</g>
<mask id="mask1" mask-type="alpha" maskUnits="userSpaceOnUse" x="0" y="33" width="467" height="30">
<rect y="33" width="467" height="30" fill="#C4C4C4"/>
</mask>
<g mask="url(#mask1)">
<path d="M3.966 42.112C3.966 40.348 4.344 37.66 5.1 34.048C5.968 29.792 6.696 26.824 7.284 25.144C7.9 23.436 8.698 22.092 9.678 21.112C11.246 19.544 13.318 18.76 15.894 18.76C18.414 18.76 20.262 19.488 21.438 20.944C22.39 22.12 22.866 23.66 22.866 25.564C22.866 26.348 22.838 26.978 22.782 27.454H17.154C17.21 27.034 17.238 26.516 17.238 25.9C17.238 24.5 16.636 23.8 15.432 23.8C14.732 23.8 14.116 24.066 13.584 24.598C13.108 25.074 12.674 25.97 12.282 27.286C11.89 28.602 11.372 30.856 10.728 34.048C9.972 37.828 9.594 40.488 9.594 42.028C9.594 43.54 10.196 44.296 11.4 44.296C12.296 44.296 13.01 43.918 13.542 43.162C13.99 42.518 14.34 41.664 14.592 40.6H20.304C19.66 43.68 18.512 45.948 16.86 47.404C15.404 48.692 13.416 49.336 10.896 49.336C8.012 49.336 6.024 48.37 4.932 46.438C4.288 45.29 3.966 43.848 3.966 42.112ZM23.9662 49L29.9302 19.096H37.6162C40.2762 19.096 42.1102 19.768 43.1182 21.112C43.8742 22.12 44.2522 23.366 44.2522 24.85C44.2522 25.634 44.1402 26.572 43.9162 27.664C43.4682 29.904 42.7402 31.472 41.7322 32.368C41.2002 32.816 40.6682 33.152 40.1362 33.376C40.6122 33.6 41.0042 33.95 41.3122 34.426C41.8162 35.126 42.0682 36.008 42.0682 37.072C42.0682 38.052 41.9562 39.102 41.7322 40.222C41.0602 43.638 40.0242 45.976 38.6242 47.236C37.8682 47.908 37.0142 48.37 36.0622 48.622C35.1102 48.874 33.8222 49 32.1982 49H23.9662ZM30.6022 43.96H32.4502C33.6262 43.96 34.4522 43.68 34.9282 43.12C35.4322 42.532 35.8382 41.496 36.1462 40.012C36.3142 39.228 36.3982 38.556 36.3982 37.996C36.3982 37.212 36.2162 36.652 35.8522 36.316C35.4882 35.952 34.9002 35.77 34.0882 35.77H32.2402L30.6022 43.96ZM33.1642 30.982H34.7602C35.8242 30.982 36.6082 30.73 37.1122 30.226C37.6442 29.694 38.0362 28.84 38.2882 27.664C38.4282 27.02 38.4982 26.488 38.4982 26.068C38.4982 25.424 38.3302 24.948 37.9942 24.64C37.6862 24.304 37.1262 24.136 36.3142 24.136H34.5502L33.1642 30.982ZM43.7495 49L50.8895 35.812C49.4895 34.804 48.7895 33.194 48.7895 30.982C48.7895 30.31 48.9155 29.386 49.1675 28.21C49.8955 24.542 50.9315 22.106 52.2755 20.902C53.6475 19.698 55.8735 19.096 58.9535 19.096H66.9335L60.9275 49H55.2995L57.6935 37.114H56.0555L49.9235 49H43.7495ZM54.7955 28.21C54.6275 29.05 54.5435 29.708 54.5435 30.184C54.5435 30.968 54.7115 31.528 55.0475 31.864C55.3835 32.172 55.9435 32.326 56.7275 32.326H58.7015L60.2975 24.136H58.2815C57.1895 24.136 56.4055 24.444 55.9295 25.06C55.4815 25.676 55.1035 26.726 54.7955 28.21ZM69.6862 47.614C68.4822 46.41 67.8802 44.744 67.8802 42.616C67.8802 41.86 67.9362 41.202 68.0482 40.642H73.7602C73.6482 41.202 73.5922 41.706 73.5922 42.154C73.5922 42.91 73.7742 43.47 74.1382 43.834C74.4462 44.142 74.9222 44.296 75.5662 44.296C76.3222 44.296 76.9102 44.058 77.3302 43.582C77.8062 43.078 78.2402 41.888 78.6322 40.012C78.7722 39.228 78.8422 38.626 78.8422 38.206C78.8422 37.562 78.7162 37.072 78.4642 36.736C78.1282 36.316 77.5822 36.106 76.8262 36.106H74.5582L75.5662 31.234H77.7082C78.5202 31.234 79.1502 31.01 79.5982 30.562C80.0182 30.142 80.3682 29.204 80.6482 27.748C80.8162 26.908 80.9002 26.222 80.9002 25.69C80.9002 25.074 80.7462 24.612 80.4382 24.304C80.1022 23.968 79.6542 23.8 79.0942 23.8C78.2822 23.8 77.6522 24.066 77.2042 24.598C76.7282 25.13 76.3502 26.096 76.0702 27.496H70.4842C71.1282 24.304 72.1782 22.05 73.6342 20.734C75.0622 19.418 77.0642 18.76 79.6402 18.76C82.0482 18.76 83.8122 19.32 84.9322 20.44C86.0242 21.532 86.5702 22.876 86.5702 24.472C86.5702 25.452 86.4582 26.502 86.2342 27.622C86.0102 28.77 85.7722 29.638 85.5202 30.226C85.2682 30.814 84.8902 31.402 84.3862 31.99C83.9662 32.55 83.2662 33.124 82.2862 33.712C83.7422 34.664 84.4702 36.078 84.4702 37.954C84.4702 38.542 84.3582 39.396 84.1342 40.516C83.7422 42.504 83.3502 43.932 82.9582 44.8C82.5942 45.668 82.0202 46.494 81.2362 47.278C79.8642 48.65 77.8762 49.336 75.2722 49.336C72.6962 49.336 70.8342 48.762 69.6862 47.614ZM106.613 49H100.943L100.985 44.17H94.4333L92.5013 49H86.4533L99.7253 19.096H105.269L106.613 49ZM100.901 39.13L100.943 27.412L96.4493 39.13H100.901ZM112.467 49L117.423 24.136H112.635L113.643 19.096H128.847L127.839 24.136H123.051L118.095 49H112.467ZM127.982 49L133.946 19.096H139.574L137.39 29.932H139.364C141.772 29.932 143.55 30.506 144.698 31.654C145.706 32.662 146.21 34.076 146.21 35.896C146.21 37.156 146.098 38.346 145.874 39.466C145.146 43.106 144.04 45.612 142.556 46.984C141.072 48.328 139 49 136.34 49H127.982ZM134.618 43.96H136.634C137.726 43.96 138.51 43.624 138.986 42.952C139.49 42.252 139.91 41.09 140.246 39.466C140.442 38.486 140.54 37.702 140.54 37.114C140.54 36.386 140.372 35.854 140.036 35.518C139.7 35.154 139.126 34.972 138.314 34.972H136.382L134.618 43.96ZM150.572 42.112C150.572 40.348 150.95 37.66 151.706 34.048C152.574 29.792 153.302 26.824 153.89 25.144C154.506 23.436 155.304 22.092 156.284 21.112C157.852 19.544 159.924 18.76 162.5 18.76C165.02 18.76 166.868 19.488 168.044 20.944C168.996 22.12 169.472 23.66 169.472 25.564C169.472 26.348 169.444 26.978 169.388 27.454H163.76C163.816 27.034 163.844 26.516 163.844 25.9C163.844 24.5 163.242 23.8 162.038 23.8C161.338 23.8 160.722 24.066 160.19 24.598C159.714 25.074 159.28 25.97 158.888 27.286C158.496 28.602 157.978 30.856 157.334 34.048C156.578 37.828 156.2 40.488 156.2 42.028C156.2 43.54 156.802 44.296 158.006 44.296C158.902 44.296 159.616 43.918 160.148 43.162C160.596 42.518 160.946 41.664 161.198 40.6H166.91C166.266 43.68 165.118 45.948 163.466 47.404C162.01 48.692 160.022 49.336 157.502 49.336C154.618 49.336 152.63 48.37 151.538 46.438C150.894 45.29 150.572 43.848 150.572 42.112ZM168.855 49L175.995 35.812C174.595 34.804 173.895 33.194 173.895 30.982C173.895 30.31 174.021 29.386 174.273 28.21C175.001 24.542 176.037 22.106 177.381 20.902C178.753 19.698 180.979 19.096 184.059 19.096H192.039L186.033 49H180.405L182.799 37.114H181.161L175.029 49H168.855ZM179.901 28.21C179.733 29.05 179.649 29.708 179.649 30.184C179.649 30.968 179.817 31.528 180.153 31.864C180.489 32.172 181.049 32.326 181.833 32.326H183.807L185.403 24.136H183.387C182.295 24.136 181.511 24.444 181.035 25.06C180.587 25.676 180.209 26.726 179.901 28.21ZM202.4 42.112C202.4 40.348 202.778 37.66 203.534 34.048C204.402 29.792 205.13 26.824 205.718 25.144C206.334 23.436 207.132 22.092 208.112 21.112C209.68 19.544 211.752 18.76 214.328 18.76C216.848 18.76 218.696 19.488 219.872 20.944C220.824 22.12 221.3 23.66 221.3 25.564C221.3 26.348 221.272 26.978 221.216 27.454H215.588C215.644 27.034 215.672 26.516 215.672 25.9C215.672 24.5 215.07 23.8 213.866 23.8C213.166 23.8 212.55 24.066 212.018 24.598C211.542 25.074 211.108 25.97 210.716 27.286C210.324 28.602 209.806 30.856 209.162 34.048C208.406 37.828 208.028 40.488 208.028 42.028C208.028 43.54 208.63 44.296 209.834 44.296C210.73 44.296 211.444 43.918 211.976 43.162C212.424 42.518 212.774 41.664 213.026 40.6H218.738C218.094 43.68 216.946 45.948 215.294 47.404C213.838 48.692 211.85 49.336 209.33 49.336C206.446 49.336 204.458 48.37 203.366 46.438C202.722 45.29 202.4 43.848 202.4 42.112ZM249.495 49H243.825L243.867 44.17H237.315L235.383 49H229.335L242.607 19.096H248.151L249.495 49ZM243.783 39.13L243.825 27.412L239.331 39.13H243.783ZM254.039 49L260.003 19.096H267.689C270.349 19.096 272.183 19.768 273.191 21.112C273.947 22.12 274.325 23.366 274.325 24.85C274.325 25.634 274.213 26.572 273.989 27.664C273.541 29.904 272.813 31.472 271.805 32.368C271.273 32.816 270.741 33.152 270.209 33.376C270.685 33.6 271.077 33.95 271.385 34.426C271.889 35.126 272.141 36.008 272.141 37.072C272.141 38.052 272.029 39.102 271.805 40.222C271.133 43.638 270.097 45.976 268.697 47.236C267.941 47.908 267.087 48.37 266.135 48.622C265.183 48.874 263.895 49 262.271 49H254.039ZM260.675 43.96H262.523C263.699 43.96 264.525 43.68 265.001 43.12C265.505 42.532 265.911 41.496 266.219 40.012C266.387 39.228 266.471 38.556 266.471 37.996C266.471 37.212 266.289 36.652 265.925 36.316C265.561 35.952 264.973 35.77 264.161 35.77H262.313L260.675 43.96ZM263.237 30.982H264.833C265.897 30.982 266.681 30.73 267.185 30.226C267.717 29.694 268.109 28.84 268.361 27.664C268.501 27.02 268.571 26.488 268.571 26.068C268.571 25.424 268.403 24.948 268.067 24.64C267.759 24.304 267.199 24.136 266.387 24.136H264.623L263.237 30.982ZM278.942 49L283.898 24.136H279.11L280.118 19.096H295.322L294.314 24.136H289.526L284.57 49H278.942ZM295.983 34.048C296.851 29.792 297.579 26.824 298.167 25.144C298.783 23.436 299.581 22.092 300.561 21.112C302.129 19.544 304.215 18.76 306.819 18.76C309.703 18.76 311.691 19.726 312.783 21.658C313.427 22.806 313.749 24.248 313.749 25.984C313.749 27.748 313.371 30.436 312.615 34.048C311.747 38.304 311.005 41.286 310.389 42.994C309.801 44.674 309.017 46.004 308.037 46.984C306.469 48.552 304.383 49.336 301.779 49.336C298.895 49.336 296.907 48.37 295.815 46.438C295.171 45.29 294.849 43.848 294.849 42.112C294.849 40.348 295.227 37.66 295.983 34.048ZM301.611 34.048C300.855 37.828 300.477 40.488 300.477 42.028C300.477 43.54 301.093 44.296 302.325 44.296C302.997 44.296 303.599 44.03 304.131 43.498C304.607 43.022 305.041 42.126 305.433 40.81C305.825 39.494 306.343 37.24 306.987 34.048C307.743 30.268 308.121 27.608 308.121 26.068C308.121 24.556 307.505 23.8 306.273 23.8C305.601 23.8 304.999 24.066 304.467 24.598C303.991 25.074 303.557 25.97 303.165 27.286C302.773 28.602 302.255 30.856 301.611 34.048ZM315.259 49L321.223 19.096H328.825C331.233 19.096 333.011 19.67 334.159 20.818C335.167 21.826 335.671 23.24 335.671 25.06C335.671 26.32 335.559 27.51 335.335 28.63C334.607 32.27 333.501 34.776 332.017 36.148C330.533 37.492 328.461 38.164 325.801 38.164H323.029L320.887 49H315.259ZM324.037 33.124H326.095C327.187 33.124 327.971 32.788 328.447 32.116C328.951 31.416 329.371 30.254 329.707 28.63C329.903 27.65 330.001 26.866 330.001 26.278C330.001 25.55 329.833 25.018 329.497 24.682C329.161 24.318 328.587 24.136 327.775 24.136H325.843L324.037 33.124ZM338.902 34.048C339.77 29.792 340.498 26.824 341.086 25.144C341.702 23.436 342.5 22.092 343.48 21.112C345.048 19.544 347.134 18.76 349.738 18.76C352.622 18.76 354.61 19.726 355.702 21.658C356.346 22.806 356.668 24.248 356.668 25.984C356.668 27.748 356.29 30.436 355.534 34.048C354.666 38.304 353.924 41.286 353.308 42.994C352.72 44.674 351.936 46.004 350.956 46.984C349.388 48.552 347.302 49.336 344.698 49.336C341.814 49.336 339.826 48.37 338.734 46.438C338.09 45.29 337.768 43.848 337.768 42.112C337.768 40.348 338.146 37.66 338.902 34.048ZM344.53 34.048C343.774 37.828 343.396 40.488 343.396 42.028C343.396 43.54 344.012 44.296 345.244 44.296C345.916 44.296 346.518 44.03 347.05 43.498C347.526 43.022 347.96 42.126 348.352 40.81C348.744 39.494 349.262 37.24 349.906 34.048C350.662 30.268 351.04 27.608 351.04 26.068C351.04 24.556 350.424 23.8 349.192 23.8C348.52 23.8 347.918 24.066 347.386 24.598C346.91 25.074 346.476 25.97 346.084 27.286C345.692 28.602 345.174 30.856 344.53 34.048ZM358.178 49L364.142 19.096H369.098L371.366 33.544L379.472 19.096H384.428L378.464 49H372.836L375.986 33.25L370.82 43.456H367.922L366.956 33.25L363.806 49H358.178Z" fill="white"/>
</g>
</svg>
