<svg width="392" height="63" viewBox="0 0 392 63" fill="none" xmlns="http://www.w3.org/2000/svg">
<path d="M1.954 53L1.36559 52.8826L1.22252 53.6H1.954V53ZM8.486 20.248V19.648H7.99385L7.89759 20.1306L8.486 20.248ZM26.058 20.248L26.6464 20.3654L26.7895 19.648H26.058V20.248ZM19.526 53V53.6H20.0182L20.1144 53.1174L19.526 53ZM13.362 53L12.7736 52.8827L12.6306 53.6H13.362V53ZM18.79 25.768L19.3784 25.8853L19.5214 25.168H18.79V25.768ZM13.546 25.768V25.168H13.0538L12.9576 25.6507L13.546 25.768ZM8.118 53V53.6H8.61021L8.70642 53.1173L8.118 53ZM2.54241 53.1174L9.07441 20.3654L7.89759 20.1306L1.36559 52.8826L2.54241 53.1174ZM8.486 20.848H26.058V19.648H8.486V20.848ZM25.4696 20.1306L18.9376 52.8826L20.1144 53.1174L26.6464 20.3654L25.4696 20.1306ZM19.526 52.4H13.362V53.6H19.526V52.4ZM13.9504 53.1173L19.3784 25.8853L18.2016 25.6507L12.7736 52.8827L13.9504 53.1173ZM18.79 25.168H13.546V26.368H18.79V25.168ZM12.9576 25.6507L7.52958 52.8827L8.70642 53.1173L14.1344 25.8853L12.9576 25.6507ZM8.118 52.4H1.954V53.6H8.118V52.4ZM28.9711 36.624L29.5584 36.7469L29.559 36.7439L28.9711 36.624ZM31.3631 26.872L30.7987 26.6684L30.7968 26.6738L31.3631 26.872ZM33.9851 22.456L33.5608 22.0317L33.5608 22.0317L33.9851 22.456ZM47.3711 23.054L47.8944 22.7604L47.8934 22.7588L47.3711 23.054ZM47.1871 36.624L46.5998 36.5011L46.5992 36.5041L47.1871 36.624ZM44.7491 46.422L44.1847 46.2184L44.1828 46.2238L44.7491 46.422ZM42.1731 50.792L42.5974 51.2163L42.5974 51.2163L42.1731 50.792ZM28.7871 50.194L28.2638 50.4876L28.2648 50.4892L28.7871 50.194ZM35.1351 36.624L34.5469 36.5053L34.5467 36.5063L35.1351 36.624ZM37.8951 46.974L37.4708 46.5497L37.8951 46.974ZM41.0231 36.624L41.6112 36.7427L41.6114 36.7417L41.0231 36.624ZM38.2631 26.274L37.8388 25.8497L37.8388 25.8497L38.2631 26.274ZM29.559 36.7439C30.5097 32.0822 31.3003 28.8676 31.9294 27.0702L30.7968 26.6738C30.1379 28.5564 29.3338 31.8432 28.3832 36.5041L29.559 36.7439ZM31.9275 27.0756C32.5811 25.2632 33.4146 23.875 34.4094 22.8803L33.5608 22.0317C32.4089 23.1836 31.4944 24.7394 30.7987 26.6684L31.9275 27.0756ZM34.4094 22.8803C35.9947 21.295 38.1163 20.48 40.8391 20.48V19.28C37.8579 19.28 35.4102 20.1824 33.5608 22.0317L34.4094 22.8803ZM40.8391 20.48C43.8562 20.48 45.7915 21.4787 46.8488 23.3492L47.8934 22.7588C46.5587 20.3973 44.1393 19.28 40.8391 19.28V20.48ZM46.8478 23.3475C47.4893 24.4911 47.8291 25.9617 47.8291 27.792H49.0291C49.0291 25.8196 48.6635 24.1316 47.8944 22.7604L46.8478 23.3475ZM47.8291 27.792C47.8291 29.6585 47.4264 32.5517 46.5998 36.5011L47.7744 36.7469C48.6037 32.7843 49.0291 29.7895 49.0291 27.792H47.8291ZM46.5992 36.5041C45.6486 41.1652 44.8431 44.3929 44.1847 46.2184L45.3135 46.6256C46.0045 44.7097 46.8243 41.4054 47.775 36.7439L46.5992 36.5041ZM44.1828 46.2238C43.5604 48.0021 42.743 49.3736 41.7488 50.3677L42.5974 51.2163C43.7499 50.0638 44.6498 48.5219 45.3154 46.6202L44.1828 46.2238ZM41.7488 50.3677C40.1635 51.953 38.0419 52.768 35.3191 52.768V53.968C38.3003 53.968 40.748 53.0656 42.5974 51.2163L41.7488 50.3677ZM35.3191 52.768C32.302 52.768 30.3667 51.7693 29.3094 49.8988L28.2648 50.4892C29.5995 52.8507 32.0189 53.968 35.3191 53.968V52.768ZM29.3104 49.9004C28.6689 48.7569 28.3291 47.2863 28.3291 45.456H27.1291C27.1291 47.4284 27.4946 49.1164 28.2638 50.4876L29.3104 49.9004ZM28.3291 45.456C28.3291 43.5895 28.7317 40.6963 29.5584 36.7469L28.3838 36.5011C27.5544 40.4637 27.1291 43.4585 27.1291 45.456H28.3291ZM34.5467 36.5063C33.7191 40.6444 33.2931 43.611 33.2931 45.364H34.4931C34.4931 43.7437 34.8951 40.8836 35.7234 36.7417L34.5467 36.5063ZM33.2931 45.364C33.2931 46.2581 33.4727 47.04 33.934 47.606C34.4143 48.1955 35.1138 48.448 35.9171 48.448V47.248C35.3711 47.248 35.0585 47.0865 34.8642 46.848C34.6508 46.586 34.4931 46.1259 34.4931 45.364H33.2931ZM35.9171 48.448C36.8319 48.448 37.6389 48.0787 38.3194 47.3983L37.4708 46.5497C36.986 47.0346 36.4743 47.248 35.9171 47.248V48.448ZM38.3194 47.3983C38.9529 46.7647 39.4621 45.6583 39.8961 44.2013L38.7461 43.8587C38.3214 45.2844 37.8799 46.1406 37.4708 46.5497L38.3194 47.3983ZM39.8961 44.2013C40.334 42.7314 40.9058 40.239 41.6112 36.7427L40.4349 36.5053C39.7297 40.001 39.1669 42.446 38.7461 43.8587L39.8961 44.2013ZM41.6114 36.7417C42.4391 32.6036 42.8651 29.637 42.8651 27.884H41.6651C41.6651 29.5043 41.2631 32.3644 40.4347 36.5063L41.6114 36.7417ZM42.8651 27.884C42.8651 26.9899 42.6854 26.208 42.2242 25.642C41.7439 25.0525 41.0444 24.8 40.2411 24.8V26C40.7871 26 41.0996 26.1615 41.294 26.4C41.5074 26.662 41.6651 27.1221 41.6651 27.884H42.8651ZM40.2411 24.8C39.3263 24.8 38.5193 25.1693 37.8388 25.8497L38.6874 26.6983C39.1722 26.2134 39.6839 26 40.2411 26V24.8ZM37.8388 25.8497C37.2053 26.4833 36.6961 27.5897 36.2621 29.0467L37.4121 29.3893C37.8368 27.9636 38.2783 27.1074 38.6874 26.6983L37.8388 25.8497ZM36.2621 29.0467C35.8242 30.5166 35.2523 33.009 34.5469 36.5053L35.7232 36.7427C36.4285 33.247 36.9913 30.802 37.4121 29.3893L36.2621 29.0467ZM48.4029 47.48V46.88H47.9095L47.8142 47.364L48.4029 47.48ZM50.5649 47.48V48.08H50.9188L51.09 47.7703L50.5649 47.48ZM56.4989 30.69L55.9103 30.5733L55.9101 30.5746L56.4989 30.69ZM58.5689 20.248V19.648H58.0761L57.9803 20.1313L58.5689 20.248ZM75.1289 20.248L75.7173 20.3653L75.8603 19.648H75.1289V20.248ZM69.7009 47.48L69.1124 47.3627L68.9695 48.08H69.7009V47.48ZM72.4609 47.48L73.0491 47.5981L73.1933 46.88H72.4609V47.48ZM70.0229 59.624V60.224H70.5144L70.6111 59.7421L70.0229 59.624ZM64.1809 59.624L63.5927 59.5055L63.448 60.224H64.1809V59.624ZM65.5149 53L66.103 53.1185L66.2477 52.4H65.5149V53ZM53.1409 53V52.4H52.6496L52.5527 52.8815L53.1409 53ZM51.8069 59.624V60.224H52.2981L52.395 59.7425L51.8069 59.624ZM46.0109 59.624L45.4222 59.508L45.2811 60.224H46.0109V59.624ZM56.8669 47.48L56.3376 47.1973L55.8661 48.08H56.8669V47.48ZM63.5369 47.48V48.08H64.0292L64.1253 47.5972L63.5369 47.48ZM67.8609 25.768L68.4493 25.8852L68.5921 25.168H67.8609V25.768ZM63.4449 25.768V25.168H62.9524L62.8564 25.651L63.4449 25.768ZM61.9729 33.174L62.5612 33.2917L62.5613 33.291L61.9729 33.174ZM48.4029 48.08H50.5649V46.88H48.4029V48.08ZM51.09 47.7703C53.8531 42.7717 55.8505 37.1148 57.0876 30.8054L55.9101 30.5746C54.6939 36.7772 52.7353 42.3136 50.0397 47.1897L51.09 47.7703ZM57.0874 30.8067L59.1574 20.3647L57.9803 20.1313L55.9103 30.5733L57.0874 30.8067ZM58.5689 20.848H75.1289V19.648H58.5689V20.848ZM74.5404 20.1307L69.1124 47.3627L70.2893 47.5973L75.7173 20.3653L74.5404 20.1307ZM69.7009 48.08H72.4609V46.88H69.7009V48.08ZM71.8726 47.3619L69.4346 59.5059L70.6111 59.7421L73.0491 47.5981L71.8726 47.3619ZM70.0229 59.024H64.1809V60.224H70.0229V59.024ZM64.769 59.7425L66.103 53.1185L64.9267 52.8815L63.5927 59.5055L64.769 59.7425ZM65.5149 52.4H53.1409V53.6H65.5149V52.4ZM52.5527 52.8815L51.2187 59.5055L52.395 59.7425L53.729 53.1185L52.5527 52.8815ZM51.8069 59.024H46.0109V60.224H51.8069V59.024ZM46.5995 59.74L48.9915 47.596L47.8142 47.364L45.4222 59.508L46.5995 59.74ZM56.8669 48.08H63.5369V46.88H56.8669V48.08ZM64.1253 47.5972L68.4493 25.8852L67.2724 25.6508L62.9484 47.3628L64.1253 47.5972ZM67.8609 25.168H63.4449V26.368H67.8609V25.168ZM62.8564 25.651L61.3844 33.057L62.5613 33.291L64.0333 25.885L62.8564 25.651ZM61.3845 33.0563C60.3838 38.0597 58.7015 42.7726 56.3376 47.1973L57.3961 47.7627C59.8162 43.2327 61.5379 38.4083 62.5612 33.2917L61.3845 33.0563ZM76.3083 47.48V46.88H75.815L75.7196 47.364L76.3083 47.48ZM78.4703 47.48V48.08H78.8242L78.9954 47.7703L78.4703 47.48ZM84.4043 30.69L83.8158 30.5733L83.8155 30.5746L84.4043 30.69ZM86.4743 20.248V19.648H85.9816L85.8858 20.1313L86.4743 20.248ZM103.034 20.248L103.623 20.3653L103.766 19.648H103.034V20.248ZM97.6063 47.48L97.0179 47.3627L96.8749 48.08H97.6063V47.48ZM100.366 47.48L100.955 47.5981L101.099 46.88H100.366V47.48ZM97.9283 59.624V60.224H98.4198L98.5166 59.7421L97.9283 59.624ZM92.0863 59.624L91.4981 59.5055L91.3535 60.224H92.0863V59.624ZM93.4203 53L94.0085 53.1185L94.1532 52.4H93.4203V53ZM81.0463 53V52.4H80.5551L80.4581 52.8815L81.0463 53ZM79.7123 59.624V60.224H80.2035L80.3005 59.7425L79.7123 59.624ZM73.9163 59.624L73.3276 59.508L73.1866 60.224H73.9163V59.624ZM84.7723 47.48L84.2431 47.1973L83.7715 48.08H84.7723V47.48ZM91.4423 47.48V48.08H91.9346L92.0308 47.5972L91.4423 47.48ZM95.7663 25.768L96.3548 25.8852L96.4976 25.168H95.7663V25.768ZM91.3503 25.768V25.168H90.8578L90.7618 25.651L91.3503 25.768ZM89.8783 33.174L90.4667 33.2917L90.4668 33.291L89.8783 33.174ZM76.3083 48.08H78.4703V46.88H76.3083V48.08ZM78.9954 47.7703C81.7586 42.7717 83.756 37.1148 84.9931 30.8054L83.8155 30.5746C82.5993 36.7772 80.6407 42.3136 77.9452 47.1897L78.9954 47.7703ZM84.9929 30.8067L87.0629 20.3647L85.8858 20.1313L83.8158 30.5733L84.9929 30.8067ZM86.4743 20.848H103.034V19.648H86.4743V20.848ZM102.446 20.1307L97.0179 47.3627L98.1948 47.5973L103.623 20.3653L102.446 20.1307ZM97.6063 48.08H100.366V46.88H97.6063V48.08ZM99.7781 47.3619L97.3401 59.5059L98.5166 59.7421L100.955 47.5981L99.7781 47.3619ZM97.9283 59.024H92.0863V60.224H97.9283V59.024ZM92.6745 59.7425L94.0085 53.1185L92.8321 52.8815L91.4981 59.5055L92.6745 59.7425ZM93.4203 52.4H81.0463V53.6H93.4203V52.4ZM80.4581 52.8815L79.1241 59.5055L80.3005 59.7425L81.6345 53.1185L80.4581 52.8815ZM79.7123 59.024H73.9163V60.224H79.7123V59.024ZM74.505 59.74L76.897 47.596L75.7196 47.364L73.3276 59.508L74.505 59.74ZM84.7723 48.08H91.4423V46.88H84.7723V48.08ZM92.0308 47.5972L96.3548 25.8852L95.1779 25.6508L90.8539 47.3628L92.0308 47.5972ZM95.7663 25.168H91.3503V26.368H95.7663V25.168ZM90.7618 25.651L89.2898 33.057L90.4668 33.291L91.9388 25.885L90.7618 25.651ZM89.29 33.0563C88.2893 38.0597 86.607 42.7726 84.2431 47.1973L85.3015 47.7627C87.7217 43.2327 89.4433 38.4083 90.4667 33.2917L89.29 33.0563ZM104.996 53L104.407 52.8826L104.264 53.6H104.996V53ZM111.528 20.248V19.648H111.036L110.939 20.1306L111.528 20.248ZM125.88 20.248L126.468 20.3657L126.612 19.648H125.88V20.248ZM124.776 25.768V26.368H125.268L125.364 25.8857L124.776 25.768ZM116.588 25.768V25.168H116.097L116 25.649L116.588 25.768ZM114.978 33.726L114.39 33.607L114.244 34.326H114.978V33.726ZM122.016 33.726L122.604 33.8437L122.748 33.126H122.016V33.726ZM120.912 39.246V39.846H121.404L121.5 39.3637L120.912 39.246ZM113.874 39.246V38.646H113.38L113.285 39.1309L113.874 39.246ZM112.264 47.48L111.675 47.3649L111.535 48.08H112.264V47.48ZM120.452 47.48L121.04 47.5977L121.184 46.88H120.452V47.48ZM119.348 53V53.6H119.84L119.936 53.1177L119.348 53ZM105.584 53.1174L112.116 20.3654L110.939 20.1306L104.407 52.8826L105.584 53.1174ZM111.528 20.848H125.88V19.648H111.528V20.848ZM125.291 20.1303L124.187 25.6503L125.364 25.8857L126.468 20.3657L125.291 20.1303ZM124.776 25.168H116.588V26.368H124.776V25.168ZM116 25.649L114.39 33.607L115.566 33.845L117.176 25.887L116 25.649ZM114.978 34.326H122.016V33.126H114.978V34.326ZM121.427 33.6083L120.323 39.1283L121.5 39.3637L122.604 33.8437L121.427 33.6083ZM120.912 38.646H113.874V39.846H120.912V38.646ZM113.285 39.1309L111.675 47.3649L112.853 47.5951L114.463 39.3611L113.285 39.1309ZM112.264 48.08H120.452V46.88H112.264V48.08ZM119.863 47.3623L118.759 52.8823L119.936 53.1177L121.04 47.5977L119.863 47.3623ZM119.348 52.4H104.996V53.6H119.348V52.4ZM125.399 53L124.811 52.8826L124.668 53.6H125.399V53ZM131.931 20.248V19.648H131.439L131.343 20.1306L131.931 20.248ZM146.099 22.134L145.675 22.5583L145.675 22.5583L146.099 22.134ZM147.387 30.69L147.976 30.8077L147.976 30.8077L147.387 30.69ZM143.753 38.924L144.156 39.3687L144.161 39.3646L143.753 38.924ZM133.909 41.132V40.532H133.416L133.321 41.0156L133.909 41.132ZM131.563 53V53.6H132.056L132.152 53.1164L131.563 53ZM135.013 35.612L134.425 35.4938L134.281 36.212H135.013V35.612ZM139.843 34.508L139.356 34.1574L139.354 34.1612L139.843 34.508ZM141.223 30.69L141.811 30.8116L141.812 30.8077L141.223 30.69ZM140.993 26.366L140.552 26.773L140.561 26.7818L140.569 26.7903L140.993 26.366ZM136.991 25.768V25.168H136.5L136.403 25.6498L136.991 25.768ZM125.988 53.1174L132.52 20.3654L131.343 20.1306L124.811 52.8826L125.988 53.1174ZM131.931 20.848H140.257V19.648H131.931V20.848ZM140.257 20.848C142.812 20.848 144.575 21.4579 145.675 22.5583L146.524 21.7097C145.109 20.2955 142.977 19.648 140.257 19.648V20.848ZM145.675 22.5583C146.638 23.5208 147.155 24.8996 147.155 26.78H148.355C148.355 24.6737 147.769 22.9552 146.524 21.7097L145.675 22.5583ZM147.155 26.78C147.155 28.1245 147.036 29.3881 146.799 30.5723L147.976 30.8077C148.229 29.5385 148.355 28.1955 148.355 26.78H147.155ZM146.799 30.5723C146.008 34.5251 144.828 37.113 143.346 38.4834L144.161 39.3646C145.929 37.7297 147.172 34.8283 147.976 30.8077L146.799 30.5723ZM143.351 38.4793C141.868 39.8223 139.76 40.532 136.945 40.532V41.732C139.958 41.732 142.388 40.9697 144.156 39.3687L143.351 38.4793ZM136.945 40.532H133.909V41.732H136.945V40.532ZM133.321 41.0156L130.975 52.8836L132.152 53.1164L134.498 41.2484L133.321 41.0156ZM131.563 52.4H125.399V53.6H131.563V52.4ZM135.013 36.212H137.267V35.012H135.013V36.212ZM137.267 36.212C138.588 36.212 139.664 35.799 140.333 34.8548L139.354 34.1612C138.98 34.689 138.338 35.012 137.267 35.012V36.212ZM140.33 34.8586C140.959 33.986 141.439 32.6105 141.811 30.8116L140.636 30.5684C140.272 32.3268 139.832 33.4967 139.356 34.1574L140.33 34.8586ZM141.812 30.8077C142.03 29.7184 142.145 28.8155 142.145 28.114H140.945C140.945 28.7005 140.846 29.5149 140.635 30.5723L141.812 30.8077ZM142.145 28.114C142.145 27.2405 141.946 26.4698 141.418 25.9417L140.569 26.7903C140.777 26.9982 140.945 27.3928 140.945 28.114H142.145ZM141.434 25.959C140.898 25.3778 140.061 25.168 139.107 25.168V26.368C139.932 26.368 140.353 26.5568 140.552 26.773L141.434 25.959ZM139.107 25.168H136.991V26.368H139.107V25.168ZM136.403 25.6498L134.425 35.4938L135.602 35.7302L137.58 25.8862L136.403 25.6498ZM145.157 53L144.644 52.689L144.092 53.6H145.157V53ZM156.059 35.014L156.572 35.325L156.693 35.1264L156.648 34.8984L156.059 35.014ZM153.161 20.248V19.648H152.432L152.573 20.3636L153.161 20.248ZM159.417 20.248L160.008 20.1423L159.92 19.648H159.417V20.248ZM162.223 35.934L162.742 36.2359L162.853 36.0454L162.814 35.8283L162.223 35.934ZM152.287 53V53.6H152.632L152.806 53.3019L152.287 53ZM171.699 53L171.109 53.1087L171.2 53.6H171.699V53ZM168.571 36.026L168.051 35.7272L167.941 35.9181L167.981 36.1347L168.571 36.026ZM177.633 20.248V19.648H177.286L177.113 19.9492L177.633 20.248ZM184.579 20.248L185.093 20.5578L185.642 19.648H184.579V20.248ZM174.873 36.348L174.36 36.0382L174.239 36.238L174.285 36.4666L174.873 36.348ZM178.231 53V53.6H178.964L178.82 52.8814L178.231 53ZM158.911 53L158.323 52.8826L158.18 53.6H158.911V53ZM165.443 20.248V19.648H164.951L164.855 20.1306L165.443 20.248ZM171.607 20.248L172.196 20.3654L172.339 19.648H171.607V20.248ZM165.075 53V53.6H165.568L165.664 53.1174L165.075 53ZM145.67 53.311L156.572 35.325L155.546 34.703L144.644 52.689L145.67 53.311ZM156.648 34.8984L153.75 20.1324L152.573 20.3636L155.471 35.1296L156.648 34.8984ZM153.161 20.848H159.417V19.648H153.161V20.848ZM158.827 20.3537L161.633 36.0397L162.814 35.8283L160.008 20.1423L158.827 20.3537ZM161.705 35.6321L151.769 52.6981L152.806 53.3019L162.742 36.2359L161.705 35.6321ZM152.287 52.4H145.157V53.6H152.287V52.4ZM172.289 52.8913L169.161 35.9173L167.981 36.1347L171.109 53.1087L172.289 52.8913ZM169.092 36.3248L178.154 20.5468L177.113 19.9492L168.051 35.7272L169.092 36.3248ZM177.633 20.848H184.579V19.648H177.633V20.848ZM184.066 19.9382L174.36 36.0382L175.387 36.6578L185.093 20.5578L184.066 19.9382ZM174.285 36.4666L177.643 53.1186L178.82 52.8814L175.462 36.2294L174.285 36.4666ZM178.231 52.4H171.699V53.6H178.231V52.4ZM159.5 53.1174L166.032 20.3654L164.855 20.1306L158.323 52.8826L159.5 53.1174ZM165.443 20.848H171.607V19.648H165.443V20.848ZM171.019 20.1306L164.487 52.8826L165.664 53.1174L172.196 20.3654L171.019 20.1306ZM165.075 52.4H158.911V53.6H165.075V52.4ZM203.69 53V53.6H204.317L204.289 52.9731L203.69 53ZM197.48 53L196.88 52.9948L196.875 53.6H197.48V53ZM197.526 47.71L198.126 47.7152L198.131 47.11H197.526V47.71ZM190.35 47.71V47.11H189.944L189.793 47.4872L190.35 47.71ZM188.234 53V53.6H188.64L188.791 53.2228L188.234 53ZM181.61 53L181.061 52.7566L180.687 53.6H181.61V53ZM196.146 20.248V19.648H195.756L195.597 20.0046L196.146 20.248ZM202.218 20.248L202.817 20.2211L202.792 19.648H202.218V20.248ZM197.434 42.19V42.79H198.032L198.034 42.1921L197.434 42.19ZM197.48 29.356L198.08 29.3582L196.92 29.1412L197.48 29.356ZM192.558 42.19L191.998 41.9752L191.685 42.79H192.558V42.19ZM203.69 52.4H197.48V53.6H203.69V52.4ZM198.08 53.0052L198.126 47.7152L196.926 47.7048L196.88 52.9948L198.08 53.0052ZM197.526 47.11H190.35V48.31H197.526V47.11ZM189.793 47.4872L187.677 52.7772L188.791 53.2228L190.907 47.9328L189.793 47.4872ZM188.234 52.4H181.61V53.6H188.234V52.4ZM182.158 53.2434L196.694 20.4914L195.597 20.0046L181.061 52.7566L182.158 53.2434ZM196.146 20.848H202.218V19.648H196.146V20.848ZM201.618 20.2749L203.09 53.0269L204.289 52.9731L202.817 20.2211L201.618 20.2749ZM198.034 42.1921L198.08 29.3582L196.88 29.3538L196.834 42.1878L198.034 42.1921ZM196.92 29.1412L191.998 41.9752L193.118 42.4048L198.04 29.5708L196.92 29.1412ZM192.558 42.79H197.434V41.59H192.558V42.79ZM210.101 53L209.513 52.8827L209.37 53.6H210.101V53ZM215.529 25.768L216.118 25.8853L216.261 25.168H215.529V25.768ZM210.285 25.768L209.697 25.6503L209.554 26.368H210.285V25.768ZM211.389 20.248V19.648H210.898L210.801 20.1303L211.389 20.248ZM228.041 20.248L228.63 20.3657L228.773 19.648H228.041V20.248ZM226.937 25.768V26.368H227.429L227.526 25.8857L226.937 25.768ZM221.693 25.768V25.168H221.201L221.105 25.6507L221.693 25.768ZM216.265 53V53.6H216.758L216.854 53.1173L216.265 53ZM210.69 53.1173L216.118 25.8853L214.941 25.6507L209.513 52.8827L210.69 53.1173ZM215.529 25.168H210.285V26.368H215.529V25.168ZM210.874 25.8857L211.978 20.3657L210.801 20.1303L209.697 25.6503L210.874 25.8857ZM211.389 20.848H228.041V19.648H211.389V20.848ZM227.453 20.1303L226.349 25.6503L227.526 25.8857L228.63 20.3657L227.453 20.1303ZM226.937 25.168H221.693V26.368H226.937V25.168ZM221.105 25.6507L215.677 52.8827L216.854 53.1173L222.282 25.8853L221.105 25.6507ZM216.265 52.4H210.101V53.6H216.265V52.4ZM227.093 53L226.505 52.8826L226.362 53.6H227.093V53ZM233.625 20.248V19.648H233.133L233.037 20.1306L233.625 20.248ZM239.789 20.248L240.378 20.3665L240.522 19.648H239.789V20.248ZM237.397 32.116L236.809 31.9975L236.664 32.716H237.397V32.116ZM246.689 42.558L246.101 42.4403L246.101 42.4403L246.689 42.558ZM243.055 50.792L243.458 51.2367L243.463 51.2326L243.055 50.792ZM234.361 47.48L233.773 47.3644L233.632 48.08H234.361V47.48ZM239.145 46.376L238.659 46.0254L238.656 46.0292L239.145 46.376ZM240.525 42.558L241.113 42.6796L241.114 42.6757L240.525 42.558ZM240.295 38.234L239.855 38.641L239.863 38.6498L239.871 38.6583L240.295 38.234ZM236.293 37.636V37.036H235.8L235.705 37.5204L236.293 37.636ZM227.682 53.1174L234.214 20.3654L233.037 20.1306L226.505 52.8826L227.682 53.1174ZM233.625 20.848H239.789V19.648H233.625V20.848ZM239.201 20.1295L236.809 31.9975L237.986 32.2345L240.378 20.3665L239.201 20.1295ZM237.397 32.716H239.559V31.516H237.397V32.716ZM239.559 32.716C242.114 32.716 243.877 33.3259 244.977 34.4263L245.826 33.5777C244.411 32.1635 242.28 31.516 239.559 31.516V32.716ZM244.977 34.4263C245.94 35.3888 246.457 36.7676 246.457 38.648H247.657C247.657 36.5417 247.071 34.8232 245.826 33.5777L244.977 34.4263ZM246.457 38.648C246.457 39.9925 246.338 41.2561 246.101 42.4403L247.278 42.6757C247.532 41.4065 247.657 40.0635 247.657 38.648H246.457ZM246.101 42.4403C245.311 46.3931 244.13 48.981 242.648 50.3514L243.463 51.2326C245.231 49.5977 246.474 46.6963 247.278 42.6757L246.101 42.4403ZM242.653 50.3473C241.17 51.6903 239.062 52.4 236.247 52.4V53.6C239.26 53.6 241.69 52.8377 243.458 51.2367L242.653 50.3473ZM236.247 52.4H227.093V53.6H236.247V52.4ZM234.361 48.08H236.569V46.88H234.361V48.08ZM236.569 48.08C237.89 48.08 238.966 47.667 239.635 46.7228L238.656 46.0292C238.282 46.557 237.641 46.88 236.569 46.88V48.08ZM239.632 46.7266C240.261 45.854 240.741 44.4785 241.113 42.6796L239.938 42.4364C239.574 44.1948 239.134 45.3647 238.659 46.0254L239.632 46.7266ZM241.114 42.6757C241.332 41.5864 241.447 40.6835 241.447 39.982H240.247C240.247 40.5685 240.149 41.3829 239.937 42.4403L241.114 42.6757ZM241.447 39.982C241.447 39.1085 241.248 38.3378 240.72 37.8097L239.871 38.6583C240.079 38.8662 240.247 39.2608 240.247 39.982H241.447ZM240.736 37.827C240.2 37.2458 239.363 37.036 238.409 37.036V38.236C239.235 38.236 239.655 38.4248 239.855 38.641L240.736 37.827ZM238.409 37.036H236.293V38.236H238.409V37.036ZM235.705 37.5204L233.773 47.3644L234.95 47.5956L236.882 37.7516L235.705 37.5204ZM280.407 53V53.6H281.035L281.007 52.9731L280.407 53ZM274.197 53L273.597 52.9948L273.592 53.6H274.197V53ZM274.243 47.71L274.843 47.7152L274.849 47.11H274.243V47.71ZM267.067 47.71V47.11H266.661L266.51 47.4872L267.067 47.71ZM264.951 53V53.6H265.358L265.509 53.2228L264.951 53ZM258.327 53L257.779 52.7566L257.405 53.6H258.327V53ZM272.863 20.248V19.648H272.473L272.315 20.0046L272.863 20.248ZM278.935 20.248L279.535 20.2211L279.509 19.648H278.935V20.248ZM274.151 42.19V42.79H274.749L274.751 42.1921L274.151 42.19ZM274.197 29.356L274.797 29.3582L273.637 29.1412L274.197 29.356ZM269.275 42.19L268.715 41.9752L268.403 42.79H269.275V42.19ZM280.407 52.4H274.197V53.6H280.407V52.4ZM274.797 53.0052L274.843 47.7152L273.643 47.7048L273.597 52.9948L274.797 53.0052ZM274.243 47.11H267.067V48.31H274.243V47.11ZM266.51 47.4872L264.394 52.7772L265.509 53.2228L267.625 47.9328L266.51 47.4872ZM264.951 52.4H258.327V53.6H264.951V52.4ZM258.876 53.2434L273.412 20.4914L272.315 20.0046L257.779 52.7566L258.876 53.2434ZM272.863 20.848H278.935V19.648H272.863V20.848ZM278.336 20.2749L279.808 53.0269L281.007 52.9731L279.535 20.2211L278.336 20.2749ZM274.751 42.1921L274.797 29.3582L273.597 29.3538L273.551 42.1878L274.751 42.1921ZM273.637 29.1412L268.715 41.9752L269.836 42.4048L274.758 29.5708L273.637 29.1412ZM269.275 42.79H274.151V41.59H269.275V42.79ZM285.384 53L284.796 52.8826L284.653 53.6H285.384V53ZM291.916 20.248V19.648H291.424L291.328 20.1306L291.916 20.248ZM306.36 22.456L306.84 22.096L306.36 22.456ZM307.234 29.632L306.646 29.5114L306.646 29.5143L307.234 29.632ZM304.842 34.784L305.229 35.2429L305.235 35.2378L305.241 35.2324L304.842 34.784ZM303.094 35.888L302.861 35.335L301.62 35.8575L302.839 36.4309L303.094 35.888ZM304.382 37.038L303.878 37.364L303.886 37.3765L303.895 37.3886L304.382 37.038ZM304.842 43.386L304.254 43.2683L304.253 43.2702L304.842 43.386ZM301.438 51.068L301.837 51.5165L301.839 51.514L301.438 51.068ZM298.632 52.586L298.479 52.006L298.479 52.006L298.632 52.586ZM292.652 47.48L292.064 47.3623L291.92 48.08H292.652V47.48ZM297.39 46.56L296.935 46.1695L296.933 46.1714L297.39 46.56ZM298.724 43.156L298.137 43.0303L298.137 43.0341L298.724 43.156ZM298.402 39.108L297.978 39.5323L297.986 39.5407L297.995 39.5489L298.402 39.108ZM294.446 38.51V37.91H293.954L293.858 38.3923L294.446 38.51ZM295.458 33.266L294.87 33.1469L294.724 33.866H295.458V33.266ZM299.782 32.438L299.358 32.0137L299.358 32.0137L299.782 32.438ZM301.07 29.632L300.484 29.5045L300.483 29.5063L301.07 29.632ZM300.748 26.32L300.306 26.7254L300.323 26.7447L300.343 26.7623L300.748 26.32ZM296.976 25.768V25.168H296.485L296.388 25.6489L296.976 25.768ZM285.972 53.1174L292.504 20.3654L291.328 20.1306L284.796 52.8826L285.972 53.1174ZM291.916 20.848H300.334V19.648H291.916V20.848ZM300.334 20.848C303.17 20.848 304.943 21.5663 305.88 22.816L306.84 22.096C305.569 20.4017 303.325 19.648 300.334 19.648V20.848ZM305.88 22.816C306.617 23.7985 307.002 25.0306 307.002 26.55H308.202C308.202 24.8187 307.759 23.3215 306.84 22.096L305.88 22.816ZM307.002 26.55C307.002 27.3552 306.887 28.34 306.646 29.5114L307.822 29.7526C308.072 28.532 308.202 27.4621 308.202 26.55H307.002ZM306.646 29.5143C306.165 31.92 305.403 33.4829 304.443 34.3356L305.241 35.2324C306.489 34.1224 307.322 32.2507 307.822 29.7497L306.646 29.5143ZM304.456 34.3251C303.91 34.7845 303.378 35.1173 302.861 35.335L303.327 36.441C303.975 36.168 304.609 35.7648 305.229 35.2429L304.456 34.3251ZM302.839 36.4309C303.251 36.6248 303.597 36.9291 303.878 37.364L304.886 36.712C304.493 36.1042 303.98 35.6419 303.35 35.3451L302.839 36.4309ZM303.895 37.3886C304.358 38.0313 304.61 38.8667 304.61 39.936H305.81C305.81 38.6747 305.51 37.578 304.869 36.6874L303.895 37.3886ZM304.61 39.936C304.61 40.964 304.493 42.0742 304.254 43.2683L305.43 43.5037C305.682 42.2445 305.81 41.0547 305.81 39.936H304.61ZM304.253 43.2702C303.524 46.978 302.421 49.3764 301.037 50.622L301.839 51.514C303.522 49.9996 304.688 47.2766 305.431 43.5018L304.253 43.2702ZM301.039 50.6196C300.28 51.2949 299.428 51.7547 298.479 52.006L298.786 53.166C299.922 52.8653 300.94 52.3131 301.837 51.5164L301.039 50.6196ZM298.479 52.006C297.508 52.2629 296.156 52.4 294.4 52.4V53.6C296.202 53.6 297.671 53.4611 298.786 53.166L298.479 52.006ZM294.4 52.4H285.384V53.6H294.4V52.4ZM292.652 48.08H294.676V46.88H292.652V48.08ZM294.676 48.08C296.036 48.08 297.158 47.7591 297.847 46.9486L296.933 46.1714C296.579 46.5876 295.892 46.88 294.676 46.88V48.08ZM297.846 46.9505C298.501 46.1859 298.97 44.9245 299.312 43.2779L298.137 43.0341C297.804 44.6382 297.383 45.6461 296.935 46.1695L297.846 46.9505ZM299.311 43.2817C299.5 42.3978 299.6 41.6174 299.6 40.948H298.4C298.4 41.5053 298.316 42.1968 298.137 43.0303L299.311 43.2817ZM299.6 40.948C299.6 40.0174 299.387 39.2004 298.809 38.6671L297.995 39.5489C298.215 39.7516 298.4 40.1613 298.4 40.948H299.6ZM298.826 38.6837C298.265 38.1223 297.43 37.91 296.47 37.91V39.11C297.289 39.11 297.742 39.2964 297.978 39.5323L298.826 38.6837ZM296.47 37.91H294.446V39.11H296.47V37.91ZM293.858 38.3923L292.064 47.3623L293.24 47.5977L295.034 38.6277L293.858 38.3923ZM295.458 33.866H297.206V32.666H295.458V33.866ZM297.206 33.866C298.453 33.866 299.497 33.5718 300.206 32.8623L299.358 32.0137C298.963 32.4082 298.29 32.666 297.206 32.666V33.866ZM300.206 32.8623C300.906 32.1624 301.37 31.0971 301.657 29.7577L300.483 29.5063C300.218 30.7429 299.823 31.5483 299.358 32.0137L300.206 32.8623ZM301.656 29.7595C301.814 29.033 301.9 28.4039 301.9 27.884H300.7C300.7 28.2841 300.633 28.8203 300.484 29.5045L301.656 29.7595ZM301.9 27.884C301.9 27.0817 301.69 26.3692 301.154 25.8777L300.343 26.7623C300.542 26.9454 300.7 27.2756 300.7 27.884H301.9ZM301.19 25.9146C300.677 25.3546 299.843 25.168 298.908 25.168V26.368C299.751 26.368 300.144 26.5494 300.306 26.7254L301.19 25.9146ZM298.908 25.168H296.976V26.368H298.908V25.168ZM296.388 25.6489L294.87 33.1469L296.046 33.3851L297.564 25.8871L296.388 25.6489ZM312.658 53L312.07 52.8827L311.927 53.6H312.658V53ZM318.086 25.768L318.675 25.8853L318.818 25.168H318.086V25.768ZM312.842 25.768L312.254 25.6503L312.11 26.368H312.842V25.768ZM313.946 20.248V19.648H313.454L313.358 20.1303L313.946 20.248ZM330.598 20.248L331.186 20.3657L331.33 19.648H330.598V20.248ZM329.494 25.768V26.368H329.986L330.082 25.8857L329.494 25.768ZM324.25 25.768V25.168H323.758L323.662 25.6507L324.25 25.768ZM318.822 53V53.6H319.314L319.411 53.1173L318.822 53ZM313.247 53.1173L318.675 25.8853L317.498 25.6507L312.07 52.8827L313.247 53.1173ZM318.086 25.168H312.842V26.368H318.086V25.168ZM313.43 25.8857L314.534 20.3657L313.358 20.1303L312.254 25.6503L313.43 25.8857ZM313.946 20.848H330.598V19.648H313.946V20.848ZM330.01 20.1303L328.906 25.6503L330.082 25.8857L331.186 20.3657L330.01 20.1303ZM329.494 25.168H324.25V26.368H329.494V25.168ZM323.662 25.6507L318.234 52.8827L319.411 53.1173L324.839 25.8853L323.662 25.6507ZM318.822 52.4H312.658V53.6H318.822V52.4ZM331.322 36.624L331.91 36.7469L331.91 36.7439L331.322 36.624ZM333.714 26.872L333.15 26.6684L333.148 26.6738L333.714 26.872ZM336.336 22.456L335.912 22.0317L335.912 22.0317L336.336 22.456ZM349.722 23.054L350.246 22.7604L350.245 22.7588L349.722 23.054ZM349.538 36.624L348.951 36.5011L348.95 36.5041L349.538 36.624ZM347.1 46.422L346.536 46.2184L346.534 46.2238L347.1 46.422ZM344.524 50.792L344.949 51.2163L344.949 51.2163L344.524 50.792ZM331.138 50.194L330.615 50.4876L330.616 50.4892L331.138 50.194ZM337.486 36.624L336.898 36.5053L336.898 36.5063L337.486 36.624ZM340.246 46.974L339.822 46.5497L340.246 46.974ZM343.374 36.624L343.962 36.7427L343.963 36.7417L343.374 36.624ZM340.614 26.274L340.19 25.8497L340.19 25.8497L340.614 26.274ZM331.91 36.7439C332.861 32.0822 333.651 28.8676 334.281 27.0702L333.148 26.6738C332.489 28.5564 331.685 31.8432 330.734 36.5041L331.91 36.7439ZM334.279 27.0756C334.932 25.2632 335.766 23.875 336.761 22.8803L335.912 22.0317C334.76 23.1836 333.846 24.7394 333.15 26.6684L334.279 27.0756ZM336.761 22.8803C338.346 21.295 340.468 20.48 343.19 20.48V19.28C340.209 19.28 337.761 20.1824 335.912 22.0317L336.761 22.8803ZM343.19 20.48C346.207 20.48 348.143 21.4787 349.2 23.3492L350.245 22.7588C348.91 20.3973 346.491 19.28 343.19 19.28V20.48ZM349.199 23.3475C349.84 24.4911 350.18 25.9617 350.18 27.792H351.38C351.38 25.8196 351.015 24.1316 350.246 22.7604L349.199 23.3475ZM350.18 27.792C350.18 29.6585 349.778 32.5517 348.951 36.5011L350.126 36.7469C350.955 32.7843 351.38 29.7895 351.38 27.792H350.18ZM348.95 36.5041C348 41.1652 347.194 44.3929 346.536 46.2184L347.665 46.6256C348.356 44.7097 349.175 41.4054 350.126 36.7439L348.95 36.5041ZM346.534 46.2238C345.912 48.0021 345.094 49.3736 344.1 50.3677L344.949 51.2163C346.101 50.0638 347.001 48.5219 347.667 46.6202L346.534 46.2238ZM344.1 50.3677C342.515 51.953 340.393 52.768 337.67 52.768V53.968C340.652 53.968 343.099 53.0656 344.949 51.2163L344.1 50.3677ZM337.67 52.768C334.653 52.768 332.718 51.7693 331.661 49.8988L330.616 50.4892C331.951 52.8507 334.37 53.968 337.67 53.968V52.768ZM331.662 49.9004C331.02 48.7569 330.68 47.2863 330.68 45.456H329.48C329.48 47.4284 329.846 49.1164 330.615 50.4876L331.662 49.9004ZM330.68 45.456C330.68 43.5895 331.083 40.6963 331.91 36.7469L330.735 36.5011C329.906 40.4637 329.48 43.4585 329.48 45.456H330.68ZM336.898 36.5063C336.07 40.6444 335.644 43.611 335.644 45.364H336.844C336.844 43.7437 337.246 40.8836 338.075 36.7417L336.898 36.5063ZM335.644 45.364C335.644 46.2581 335.824 47.04 336.285 47.606C336.766 48.1955 337.465 48.448 338.268 48.448V47.248C337.722 47.248 337.41 47.0865 337.215 46.848C337.002 46.586 336.844 46.1259 336.844 45.364H335.644ZM338.268 48.448C339.183 48.448 339.99 48.0787 340.671 47.3983L339.822 46.5497C339.337 47.0346 338.825 47.248 338.268 47.248V48.448ZM340.671 47.3983C341.304 46.7647 341.813 45.6583 342.247 44.2013L341.097 43.8587C340.673 45.2844 340.231 46.1406 339.822 46.5497L340.671 47.3983ZM342.247 44.2013C342.685 42.7314 343.257 40.239 343.962 36.7427L342.786 36.5053C342.081 40.001 341.518 42.446 341.097 43.8587L342.247 44.2013ZM343.963 36.7417C344.79 32.6036 345.216 29.637 345.216 27.884H344.016C344.016 29.5043 343.614 32.3644 342.786 36.5063L343.963 36.7417ZM345.216 27.884C345.216 26.9899 345.037 26.208 344.575 25.642C344.095 25.0525 343.396 24.8 342.592 24.8V26C343.138 26 343.451 26.1615 343.645 26.4C343.859 26.662 344.016 27.1221 344.016 27.884H345.216ZM342.592 24.8C341.677 24.8 340.87 25.1693 340.19 25.8497L341.039 26.6983C341.523 26.2134 342.035 26 342.592 26V24.8ZM340.19 25.8497C339.556 26.4833 339.047 27.5897 338.613 29.0467L339.763 29.3893C340.188 27.9636 340.629 27.1074 341.039 26.6983L340.19 25.8497ZM338.613 29.0467C338.175 30.5166 337.604 33.009 336.898 36.5053L338.074 36.7427C338.78 33.247 339.342 30.802 339.763 29.3893L338.613 29.0467ZM352.434 53L351.846 52.8826L351.703 53.6H352.434V53ZM358.966 20.248V19.648H358.474L358.378 20.1306L358.966 20.248ZM373.134 22.134L372.71 22.5583L372.71 22.5583L373.134 22.134ZM374.422 30.69L375.011 30.8077L375.011 30.8077L374.422 30.69ZM370.788 38.924L371.191 39.3687L371.196 39.3646L370.788 38.924ZM360.944 41.132V40.532H360.451L360.356 41.0156L360.944 41.132ZM358.598 53V53.6H359.091L359.187 53.1164L358.598 53ZM362.048 35.612L361.46 35.4938L361.316 36.212H362.048V35.612ZM366.878 34.508L366.392 34.1574L366.389 34.1612L366.878 34.508ZM368.258 30.69L368.846 30.8116L368.847 30.8077L368.258 30.69ZM368.028 26.366L367.588 26.773L367.596 26.7818L367.604 26.7903L368.028 26.366ZM364.026 25.768V25.168H363.535L363.438 25.6498L364.026 25.768ZM353.023 53.1174L359.555 20.3654L358.378 20.1306L351.846 52.8826L353.023 53.1174ZM358.966 20.848H367.292V19.648H358.966V20.848ZM367.292 20.848C369.847 20.848 371.61 21.4579 372.71 22.5583L373.559 21.7097C372.144 20.2955 370.013 19.648 367.292 19.648V20.848ZM372.71 22.5583C373.673 23.5208 374.19 24.8996 374.19 26.78H375.39C375.39 24.6737 374.804 22.9552 373.559 21.7097L372.71 22.5583ZM374.19 26.78C374.19 28.1245 374.071 29.3881 373.834 30.5723L375.011 30.8077C375.265 29.5385 375.39 28.1955 375.39 26.78H374.19ZM373.834 30.5723C373.044 34.5251 371.863 37.113 370.381 38.4834L371.196 39.3646C372.964 37.7297 374.207 34.8283 375.011 30.8077L373.834 30.5723ZM370.386 38.4793C368.903 39.8223 366.795 40.532 363.98 40.532V41.732C366.993 41.732 369.423 40.9697 371.191 39.3687L370.386 38.4793ZM363.98 40.532H360.944V41.732H363.98V40.532ZM360.356 41.0156L358.01 52.8836L359.187 53.1164L361.533 41.2484L360.356 41.0156ZM358.598 52.4H352.434V53.6H358.598V52.4ZM362.048 36.212H364.302V35.012H362.048V36.212ZM364.302 36.212C365.623 36.212 366.699 35.799 367.368 34.8548L366.389 34.1612C366.015 34.689 365.374 35.012 364.302 35.012V36.212ZM367.365 34.8586C367.994 33.986 368.474 32.6105 368.846 30.8116L367.671 30.5684C367.307 32.3268 366.867 33.4967 366.392 34.1574L367.365 34.8586ZM368.847 30.8077C369.065 29.7184 369.18 28.8155 369.18 28.114H367.98C367.98 28.7005 367.882 29.5149 367.67 30.5723L368.847 30.8077ZM369.18 28.114C369.18 27.2405 368.981 26.4698 368.453 25.9417L367.604 26.7903C367.812 26.9982 367.98 27.3928 367.98 28.114H369.18ZM368.469 25.959C367.933 25.3778 367.096 25.168 366.142 25.168V26.368C366.968 26.368 367.388 26.5568 367.588 26.773L368.469 25.959ZM366.142 25.168H364.026V26.368H366.142V25.168ZM363.438 25.6498L361.46 35.4938L362.637 35.7302L364.615 25.8862L363.438 25.6498ZM392.712 53V53.6H393.34L393.312 52.9731L392.712 53ZM386.502 53L385.902 52.9948L385.897 53.6H386.502V53ZM386.548 47.71L387.148 47.7152L387.153 47.11H386.548V47.71ZM379.372 47.71V47.11H378.966L378.815 47.4872L379.372 47.71ZM377.256 53V53.6H377.662L377.813 53.2228L377.256 53ZM370.632 53L370.084 52.7566L369.709 53.6H370.632V53ZM385.168 20.248V19.648H384.778L384.62 20.0046L385.168 20.248ZM391.24 20.248L391.84 20.2211L391.814 19.648H391.24V20.248ZM386.456 42.19V42.79H387.054L387.056 42.1921L386.456 42.19ZM386.502 29.356L387.102 29.3582L385.942 29.1412L386.502 29.356ZM381.58 42.19L381.02 41.9752L380.707 42.79H381.58V42.19ZM392.712 52.4H386.502V53.6H392.712V52.4ZM387.102 53.0052L387.148 47.7152L385.948 47.7048L385.902 52.9948L387.102 53.0052ZM386.548 47.11H379.372V48.31H386.548V47.11ZM378.815 47.4872L376.699 52.7772L377.813 53.2228L379.929 47.9328L378.815 47.4872ZM377.256 52.4H370.632V53.6H377.256V52.4ZM371.181 53.2434L385.717 20.4914L384.62 20.0046L370.084 52.7566L371.181 53.2434ZM385.168 20.848H391.24V19.648H385.168V20.848ZM390.641 20.2749L392.113 53.0269L393.312 52.9731L391.84 20.2211L390.641 20.2749ZM387.056 42.1921L387.102 29.3582L385.902 29.3538L385.856 42.1878L387.056 42.1921ZM385.942 29.1412L381.02 41.9752L382.14 42.4048L387.062 29.5708L385.942 29.1412ZM381.58 42.79H386.456V41.59H381.58V42.79Z" fill="#4BC050"/>
<mask id="mask0" mask-type="alpha" maskUnits="userSpaceOnUse" x="3" y="11" width="416" height="22">
<rect x="3" y="11" width="416" height="22" fill="#C4C4C4"/>
</mask>
<g mask="url(#mask0)">
<path d="M2.954 54L9.486 21.248H27.058L20.526 54H14.362L19.79 26.768H14.546L9.118 54H2.954ZM29.9711 37.624C30.9218 32.9627 31.7191 29.712 32.3631 27.872C33.0378 26.0013 33.9118 24.5293 34.9851 23.456C36.7024 21.7387 38.9871 20.88 41.8391 20.88C44.9978 20.88 47.1751 21.938 48.3711 24.054C49.0764 25.3113 49.4291 26.8907 49.4291 28.792C49.4291 30.724 49.0151 33.668 48.1871 37.624C47.2364 42.2853 46.4238 45.5513 45.7491 47.422C45.1051 49.262 44.2464 50.7187 43.1731 51.792C41.4558 53.5093 39.1711 54.368 36.3191 54.368C33.1604 54.368 30.9831 53.31 29.7871 51.194C29.0818 49.9367 28.7291 48.3573 28.7291 46.456C28.7291 44.524 29.1431 41.58 29.9711 37.624ZM36.1351 37.624C35.3071 41.764 34.8931 44.6773 34.8931 46.364C34.8931 48.02 35.5678 48.848 36.9171 48.848C37.6531 48.848 38.3124 48.5567 38.8951 47.974C39.4164 47.4527 39.8918 46.4713 40.3211 45.03C40.7504 43.5887 41.3178 41.12 42.0231 37.624C42.8511 33.484 43.2651 30.5707 43.2651 28.884C43.2651 27.228 42.5904 26.4 41.2411 26.4C40.5051 26.4 39.8458 26.6913 39.2631 27.274C38.7418 27.7953 38.2664 28.7767 37.8371 30.218C37.4078 31.6593 36.8404 34.128 36.1351 37.624ZM49.4029 48.48H51.5649C54.2942 43.5427 56.2722 37.946 57.4989 31.69L59.5689 21.248H76.1289L70.7009 48.48H73.4609L71.0229 60.624H65.1809L66.5149 54H54.1409L52.8069 60.624H47.0109L49.4029 48.48ZM57.8669 48.48H64.5369L68.8609 26.768H64.4449L62.9729 34.174C61.9609 39.234 60.2589 44.0027 57.8669 48.48ZM77.3083 48.48H79.4703C82.1997 43.5427 84.1777 37.946 85.4043 31.69L87.4743 21.248H104.034L98.6063 48.48H101.366L98.9283 60.624H93.0863L94.4203 54H82.0463L80.7123 60.624H74.9163L77.3083 48.48ZM85.7723 48.48H92.4423L96.7663 26.768H92.3503L90.8783 34.174C89.8663 39.234 88.1643 44.0027 85.7723 48.48ZM105.996 54L112.528 21.248H126.88L125.776 26.768H117.588L115.978 34.726H123.016L121.912 40.246H114.874L113.264 48.48H121.452L120.348 54H105.996ZM126.399 54L132.931 21.248H141.257C143.895 21.248 145.842 21.8767 147.099 23.134C148.203 24.238 148.755 25.7867 148.755 27.78C148.755 29.16 148.633 30.4633 148.387 31.69C147.59 35.6767 146.379 38.4213 144.753 39.924C143.128 41.396 140.859 42.132 137.945 42.132H134.909L132.563 54H126.399ZM136.013 36.612H138.267C139.463 36.612 140.322 36.244 140.843 35.508C141.395 34.7413 141.855 33.4687 142.223 31.69C142.438 30.6167 142.545 29.758 142.545 29.114C142.545 28.3167 142.361 27.734 141.993 27.366C141.625 26.9673 140.997 26.768 140.107 26.768H137.991L136.013 36.612ZM146.157 54L157.059 36.014L154.161 21.248H160.417L163.223 36.934L153.287 54H146.157ZM172.699 54L169.571 37.026L178.633 21.248H185.579L175.873 37.348L179.231 54H172.699ZM159.911 54L166.443 21.248H172.607L166.075 54H159.911ZM204.69 54H198.48L198.526 48.71H191.35L189.234 54H182.61L197.146 21.248H203.218L204.69 54ZM198.434 43.19L198.48 30.356L193.558 43.19H198.434ZM211.101 54L216.529 26.768H211.285L212.389 21.248H229.041L227.937 26.768H222.693L217.265 54H211.101ZM228.093 54L234.625 21.248H240.789L238.397 33.116H240.559C243.197 33.116 245.144 33.7447 246.401 35.002C247.505 36.106 248.057 37.6547 248.057 39.648C248.057 41.028 247.935 42.3313 247.689 43.558C246.892 47.5447 245.681 50.2893 244.055 51.792C242.43 53.264 240.161 54 237.247 54H228.093ZM235.361 48.48H237.569C238.765 48.48 239.624 48.112 240.145 47.376C240.697 46.6093 241.157 45.3367 241.525 43.558C241.74 42.4847 241.847 41.626 241.847 40.982C241.847 40.1847 241.663 39.602 241.295 39.234C240.927 38.8353 240.299 38.636 239.409 38.636H237.293L235.361 48.48ZM281.407 54H275.197L275.243 48.71H268.067L265.951 54H259.327L273.863 21.248H279.935L281.407 54ZM275.151 43.19L275.197 30.356L270.275 43.19H275.151ZM286.384 54L292.916 21.248H301.334C304.247 21.248 306.256 21.984 307.36 23.456C308.188 24.56 308.602 25.9247 308.602 27.55C308.602 28.4087 308.479 29.436 308.234 30.632C307.743 33.0853 306.946 34.8027 305.842 35.784C305.259 36.2747 304.677 36.6427 304.094 36.888C304.615 37.1333 305.045 37.5167 305.382 38.038C305.934 38.8047 306.21 39.7707 306.21 40.936C306.21 42.0093 306.087 43.1593 305.842 44.386C305.106 48.1273 303.971 50.688 302.438 52.068C301.61 52.804 300.675 53.31 299.632 53.586C298.589 53.862 297.179 54 295.4 54H286.384ZM293.652 48.48H295.676C296.964 48.48 297.869 48.1733 298.39 47.56C298.942 46.916 299.387 45.7813 299.724 44.156C299.908 43.2973 300 42.5613 300 41.948C300 41.0893 299.801 40.476 299.402 40.108C299.003 39.7093 298.359 39.51 297.47 39.51H295.446L293.652 48.48ZM296.458 34.266H298.206C299.371 34.266 300.23 33.99 300.782 33.438C301.365 32.8553 301.794 31.92 302.07 30.632C302.223 29.9267 302.3 29.344 302.3 28.884C302.3 28.1787 302.116 27.6573 301.748 27.32C301.411 26.952 300.797 26.768 299.908 26.768H297.976L296.458 34.266ZM313.658 54L319.086 26.768H313.842L314.946 21.248H331.598L330.494 26.768H325.25L319.822 54H313.658ZM332.322 37.624C333.273 32.9627 334.07 29.712 334.714 27.872C335.389 26.0013 336.263 24.5293 337.336 23.456C339.054 21.7387 341.338 20.88 344.19 20.88C347.349 20.88 349.526 21.938 350.722 24.054C351.428 25.3113 351.78 26.8907 351.78 28.792C351.78 30.724 351.366 33.668 350.538 37.624C349.588 42.2853 348.775 45.5513 348.1 47.422C347.456 49.262 346.598 50.7187 345.524 51.792C343.807 53.5093 341.522 54.368 338.67 54.368C335.512 54.368 333.334 53.31 332.138 51.194C331.433 49.9367 331.08 48.3573 331.08 46.456C331.08 44.524 331.494 41.58 332.322 37.624ZM338.486 37.624C337.658 41.764 337.244 44.6773 337.244 46.364C337.244 48.02 337.919 48.848 339.268 48.848C340.004 48.848 340.664 48.5567 341.246 47.974C341.768 47.4527 342.243 46.4713 342.672 45.03C343.102 43.5887 343.669 41.12 344.374 37.624C345.202 33.484 345.616 30.5707 345.616 28.884C345.616 27.228 344.942 26.4 343.592 26.4C342.856 26.4 342.197 26.6913 341.614 27.274C341.093 27.7953 340.618 28.7767 340.188 30.218C339.759 31.6593 339.192 34.128 338.486 37.624ZM353.434 54L359.966 21.248H368.292C370.93 21.248 372.877 21.8767 374.134 23.134C375.238 24.238 375.79 25.7867 375.79 27.78C375.79 29.16 375.668 30.4633 375.422 31.69C374.625 35.6767 373.414 38.4213 371.788 39.924C370.163 41.396 367.894 42.132 364.98 42.132H361.944L359.598 54H353.434ZM363.048 36.612H365.302C366.498 36.612 367.357 36.244 367.878 35.508C368.43 34.7413 368.89 33.4687 369.258 31.69C369.473 30.6167 369.58 29.758 369.58 29.114C369.58 28.3167 369.396 27.734 369.028 27.366C368.66 26.9673 368.032 26.768 367.142 26.768H365.026L363.048 36.612ZM393.712 54H387.502L387.548 48.71H380.372L378.256 54H371.632L386.168 21.248H392.24L393.712 54ZM387.456 43.19L387.502 30.356L382.58 43.19H387.456Z" fill="#4BC050"/>
</g>
<mask id="mask1" mask-type="alpha" maskUnits="userSpaceOnUse" x="0" y="36" width="403" height="27">
<rect y="36" width="403" height="27" fill="#C4C4C4"/>
</mask>
<g mask="url(#mask1)">
<path d="M2.954 54L9.486 21.248H27.058L20.526 54H14.362L19.79 26.768H14.546L9.118 54H2.954ZM29.9711 37.624C30.9218 32.9627 31.7191 29.712 32.3631 27.872C33.0378 26.0013 33.9118 24.5293 34.9851 23.456C36.7024 21.7387 38.9871 20.88 41.8391 20.88C44.9978 20.88 47.1751 21.938 48.3711 24.054C49.0764 25.3113 49.4291 26.8907 49.4291 28.792C49.4291 30.724 49.0151 33.668 48.1871 37.624C47.2364 42.2853 46.4238 45.5513 45.7491 47.422C45.1051 49.262 44.2464 50.7187 43.1731 51.792C41.4558 53.5093 39.1711 54.368 36.3191 54.368C33.1604 54.368 30.9831 53.31 29.7871 51.194C29.0818 49.9367 28.7291 48.3573 28.7291 46.456C28.7291 44.524 29.1431 41.58 29.9711 37.624ZM36.1351 37.624C35.3071 41.764 34.8931 44.6773 34.8931 46.364C34.8931 48.02 35.5678 48.848 36.9171 48.848C37.6531 48.848 38.3124 48.5567 38.8951 47.974C39.4164 47.4527 39.8918 46.4713 40.3211 45.03C40.7504 43.5887 41.3178 41.12 42.0231 37.624C42.8511 33.484 43.2651 30.5707 43.2651 28.884C43.2651 27.228 42.5904 26.4 41.2411 26.4C40.5051 26.4 39.8458 26.6913 39.2631 27.274C38.7418 27.7953 38.2664 28.7767 37.8371 30.218C37.4078 31.6593 36.8404 34.128 36.1351 37.624ZM49.4029 48.48H51.5649C54.2942 43.5427 56.2722 37.946 57.4989 31.69L59.5689 21.248H76.1289L70.7009 48.48H73.4609L71.0229 60.624H65.1809L66.5149 54H54.1409L52.8069 60.624H47.0109L49.4029 48.48ZM57.8669 48.48H64.5369L68.8609 26.768H64.4449L62.9729 34.174C61.9609 39.234 60.2589 44.0027 57.8669 48.48ZM77.3083 48.48H79.4703C82.1997 43.5427 84.1777 37.946 85.4043 31.69L87.4743 21.248H104.034L98.6063 48.48H101.366L98.9283 60.624H93.0863L94.4203 54H82.0463L80.7123 60.624H74.9163L77.3083 48.48ZM85.7723 48.48H92.4423L96.7663 26.768H92.3503L90.8783 34.174C89.8663 39.234 88.1643 44.0027 85.7723 48.48ZM105.996 54L112.528 21.248H126.88L125.776 26.768H117.588L115.978 34.726H123.016L121.912 40.246H114.874L113.264 48.48H121.452L120.348 54H105.996ZM126.399 54L132.931 21.248H141.257C143.895 21.248 145.842 21.8767 147.099 23.134C148.203 24.238 148.755 25.7867 148.755 27.78C148.755 29.16 148.633 30.4633 148.387 31.69C147.59 35.6767 146.379 38.4213 144.753 39.924C143.128 41.396 140.859 42.132 137.945 42.132H134.909L132.563 54H126.399ZM136.013 36.612H138.267C139.463 36.612 140.322 36.244 140.843 35.508C141.395 34.7413 141.855 33.4687 142.223 31.69C142.438 30.6167 142.545 29.758 142.545 29.114C142.545 28.3167 142.361 27.734 141.993 27.366C141.625 26.9673 140.997 26.768 140.107 26.768H137.991L136.013 36.612ZM146.157 54L157.059 36.014L154.161 21.248H160.417L163.223 36.934L153.287 54H146.157ZM172.699 54L169.571 37.026L178.633 21.248H185.579L175.873 37.348L179.231 54H172.699ZM159.911 54L166.443 21.248H172.607L166.075 54H159.911ZM204.69 54H198.48L198.526 48.71H191.35L189.234 54H182.61L197.146 21.248H203.218L204.69 54ZM198.434 43.19L198.48 30.356L193.558 43.19H198.434ZM211.101 54L216.529 26.768H211.285L212.389 21.248H229.041L227.937 26.768H222.693L217.265 54H211.101ZM228.093 54L234.625 21.248H240.789L238.397 33.116H240.559C243.197 33.116 245.144 33.7447 246.401 35.002C247.505 36.106 248.057 37.6547 248.057 39.648C248.057 41.028 247.935 42.3313 247.689 43.558C246.892 47.5447 245.681 50.2893 244.055 51.792C242.43 53.264 240.161 54 237.247 54H228.093ZM235.361 48.48H237.569C238.765 48.48 239.624 48.112 240.145 47.376C240.697 46.6093 241.157 45.3367 241.525 43.558C241.74 42.4847 241.847 41.626 241.847 40.982C241.847 40.1847 241.663 39.602 241.295 39.234C240.927 38.8353 240.299 38.636 239.409 38.636H237.293L235.361 48.48ZM281.407 54H275.197L275.243 48.71H268.067L265.951 54H259.327L273.863 21.248H279.935L281.407 54ZM275.151 43.19L275.197 30.356L270.275 43.19H275.151ZM286.384 54L292.916 21.248H301.334C304.247 21.248 306.256 21.984 307.36 23.456C308.188 24.56 308.602 25.9247 308.602 27.55C308.602 28.4087 308.479 29.436 308.234 30.632C307.743 33.0853 306.946 34.8027 305.842 35.784C305.259 36.2747 304.677 36.6427 304.094 36.888C304.615 37.1333 305.045 37.5167 305.382 38.038C305.934 38.8047 306.21 39.7707 306.21 40.936C306.21 42.0093 306.087 43.1593 305.842 44.386C305.106 48.1273 303.971 50.688 302.438 52.068C301.61 52.804 300.675 53.31 299.632 53.586C298.589 53.862 297.179 54 295.4 54H286.384ZM293.652 48.48H295.676C296.964 48.48 297.869 48.1733 298.39 47.56C298.942 46.916 299.387 45.7813 299.724 44.156C299.908 43.2973 300 42.5613 300 41.948C300 41.0893 299.801 40.476 299.402 40.108C299.003 39.7093 298.359 39.51 297.47 39.51H295.446L293.652 48.48ZM296.458 34.266H298.206C299.371 34.266 300.23 33.99 300.782 33.438C301.365 32.8553 301.794 31.92 302.07 30.632C302.223 29.9267 302.3 29.344 302.3 28.884C302.3 28.1787 302.116 27.6573 301.748 27.32C301.411 26.952 300.797 26.768 299.908 26.768H297.976L296.458 34.266ZM313.658 54L319.086 26.768H313.842L314.946 21.248H331.598L330.494 26.768H325.25L319.822 54H313.658ZM332.322 37.624C333.273 32.9627 334.07 29.712 334.714 27.872C335.389 26.0013 336.263 24.5293 337.336 23.456C339.054 21.7387 341.338 20.88 344.19 20.88C347.349 20.88 349.526 21.938 350.722 24.054C351.428 25.3113 351.78 26.8907 351.78 28.792C351.78 30.724 351.366 33.668 350.538 37.624C349.588 42.2853 348.775 45.5513 348.1 47.422C347.456 49.262 346.598 50.7187 345.524 51.792C343.807 53.5093 341.522 54.368 338.67 54.368C335.512 54.368 333.334 53.31 332.138 51.194C331.433 49.9367 331.08 48.3573 331.08 46.456C331.08 44.524 331.494 41.58 332.322 37.624ZM338.486 37.624C337.658 41.764 337.244 44.6773 337.244 46.364C337.244 48.02 337.919 48.848 339.268 48.848C340.004 48.848 340.664 48.5567 341.246 47.974C341.768 47.4527 342.243 46.4713 342.672 45.03C343.102 43.5887 343.669 41.12 344.374 37.624C345.202 33.484 345.616 30.5707 345.616 28.884C345.616 27.228 344.942 26.4 343.592 26.4C342.856 26.4 342.197 26.6913 341.614 27.274C341.093 27.7953 340.618 28.7767 340.188 30.218C339.759 31.6593 339.192 34.128 338.486 37.624ZM353.434 54L359.966 21.248H368.292C370.93 21.248 372.877 21.8767 374.134 23.134C375.238 24.238 375.79 25.7867 375.79 27.78C375.79 29.16 375.668 30.4633 375.422 31.69C374.625 35.6767 373.414 38.4213 371.788 39.924C370.163 41.396 367.894 42.132 364.98 42.132H361.944L359.598 54H353.434ZM363.048 36.612H365.302C366.498 36.612 367.357 36.244 367.878 35.508C368.43 34.7413 368.89 33.4687 369.258 31.69C369.473 30.6167 369.58 29.758 369.58 29.114C369.58 28.3167 369.396 27.734 369.028 27.366C368.66 26.9673 368.032 26.768 367.142 26.768H365.026L363.048 36.612ZM393.712 54H387.502L387.548 48.71H380.372L378.256 54H371.632L386.168 21.248H392.24L393.712 54ZM387.456 43.19L387.502 30.356L382.58 43.19H387.456Z" fill="#4BC050"/>
</g>
</svg>
